*
G04 Mass Parameters ***
*
G04 Image ***
*
%INE:\EUROBOT 2010\ELECTRONICA\BALIZA FARO\DISENIO ELECTRONICO\MAIN\DESIGN1.BOT*%
%ICAS*%
%MOIN*%
%IPPOS*%
%ASAXBY*%
G74*%FSLAN2X34Y34*%
*
G04 Aperture Definitions ***
*
%ADD10R,0.0500X0.0500*%
%ADD11R,0.0870X0.0320*%
%ADD12R,0.0260X0.1340*%
%ADD13R,0.0950X0.0510*%
%ADD14R,0.0760X0.0480*%
%ADD15C,0.1181*%
%ADD16C,0.0620*%
%ADD17R,0.0620X0.0620*%
%ADD18C,0.0580*%
%ADD19R,0.0580X0.0580*%
%ADD20C,0.0550*%
%ADD21R,0.0550X0.0550*%
%ADD22C,0.0700*%
%ADD23O,0.0700X0.0180*%
%ADD24R,0.0700X0.0180*%
%ADD25O,0.0180X0.0700*%
%ADD26R,0.0180X0.0700*%
%ADD27R,0.0240X0.0790*%
%ADD28R,0.0880X0.1420*%
%ADD29R,0.0880X0.0480*%
%ADD30R,0.0335X0.0787*%
%ADD31C,0.0320*%
%ADD32C,0.0100*%
%ADD33C,0.0120*%
%ADD34C,0.0010*%
%ADD35C,0.0004*%
%ADD36C,0.0000*%
%ADD37C,0.0150*%
%ADD38C,0.0400*%
%ADD39C,0.0200*%
%ADD40C,0.0080*%
%ADD41C,0.0250*%
%ADD42R,0.0600X0.0600*%
%ADD43R,0.0320X0.0870*%
%ADD44R,0.0510X0.0950*%
%ADD45R,0.1160X0.0800*%
%ADD46R,0.0850X0.1080*%
%ADD47R,0.0360X0.0480*%
%ADD48R,0.1968X0.1772*%
%ADD49R,0.0630X0.1300*%
%ADD50R,0.0340X0.0400*%
%ADD51R,0.0340X0.0500*%
%ADD52O,0.0940X0.0250*%
%ADD53R,0.0940X0.0250*%
%ADD54O,0.0250X0.0940*%
%ADD55R,0.0250X0.0940*%
%ADD56C,0.1400*%
%ADD57C,0.0820*%
%ADD58R,0.0820X0.0820*%
%ADD59C,0.0780*%
%ADD60R,0.0780X0.0780*%
%ADD61C,0.0750*%
%ADD62R,0.0750X0.0750*%
%ADD63C,0.0197*%
%ADD64R,0.0890X0.0340*%
%ADD65R,0.0280X0.1360*%
%ADD66R,0.0970X0.0530*%
%ADD67C,0.1050*%
%ADD68C,0.0720*%
%ADD69R,0.0260X0.0810*%
%ADD70R,0.0340X0.0890*%
%ADD71R,0.0530X0.0970*%
%ADD72R,0.0870X0.1100*%
%ADD73R,0.2200X0.2000*%
%ADD74R,0.0650X0.1320*%
%ADD75C,0.0060*%
%ADD76C,0.0118*%
%ADD77C,0.0098*%
%ADD78C,0.0420*%
%ADD79C,0.0079*%
%ADD80C,0.0030*%
%ADD81C,0.0050*%
%ADD82R,0.0334X0.0787*%
%ADD83C,0.0110*%
%ADD84C,0.1500*%
%ADD85C,0.0790*%
%ADD86C,0.0260*%
*
G04 Plot Data ***
*
G54D32*
G01X0014150Y0018900D02*
X0014070D01*
X0024270Y0020160D02*
X0023490Y0020940D01*
X0020920D01*
X0020430Y0021430D01*
Y0022630D01*
X0019790Y0023270D01*
X0014560D01*
X0014370Y0023080D01*
X0016430Y0005800D02*
X0016920Y0006290D01*
X0019000D01*
X0019150Y0006140D01*
Y0005920D01*
X0018800Y0014577D02*
X0018860Y0014520D01*
Y0013400D01*
X0018590Y0013130D01*
X0015710D01*
X0011320Y0008740D01*
X0016210Y0004650D02*
X0016520D01*
X0017230Y0003940D01*
Y0003920D01*
X0023050Y0014800D02*
X0025050D01*
Y0019870D01*
X0024760Y0020160D01*
X0024270D01*
X0021290Y0015670D02*
Y0012830D01*
X0022043Y0012080D01*
X0022040D01*
X0011380Y0009350D02*
X0015430Y0013400D01*
X0018210D01*
X0018440Y0013630D01*
X0022040Y0011080D02*
X0022043D01*
X0020930Y0012190D01*
Y0016080D01*
X0018780Y0006710D02*
Y0006720D01*
X0021710D01*
X0025050Y0010060D01*
Y0019870D01*
X0024760Y0020160D01*
X0024270D01*
X0020190Y0010230D02*
X0020060Y0010360D01*
Y0014880D01*
X0019500Y0015440D01*
X0019220Y0014150D02*
Y0013290D01*
X0018800Y0012870D01*
X0015780D01*
X0011980Y0009070D01*
Y0008900D01*
X0018520Y0003120D02*
Y0003860D01*
X0018450Y0003920D01*
X0019390D01*
X0015910Y0017160D02*
Y0016220D01*
X0015550Y0015860D01*
X0014910D01*
X0017710Y0014340D02*
X0017380D01*
X0017130Y0014090D01*
X0014930D01*
X0010660Y0009820D01*
X0009700D01*
X0011250Y0009920D02*
X0015110Y0013780D01*
X0017900D01*
X0012930Y0016880D02*
X0012950Y0016860D01*
X0018410Y0005920D02*
Y0004780D01*
X0018430Y0004760D01*
X0017230Y0003920D02*
Y0003120D01*
X0016430Y0006640D02*
X0016870D01*
X0016940Y0006710D01*
X0017390D01*
X0018430Y0003920D02*
X0019390D01*
X0010850Y0010530D02*
X0014600Y0014280D01*
X0015760D01*
X0015920Y0014440D01*
X0017390Y0006710D02*
X0018780D01*
X0011960Y0008370D02*
X0012450Y0008860D01*
Y0009260D01*
X0015870Y0012680D01*
X0019100D01*
X0019710Y0013290D01*
Y0014350D01*
X0019720Y0014360D01*
X0016510Y0014880D02*
X0015860D01*
X0015520Y0014540D01*
X0012360D01*
X0012160Y0014740D01*
Y0015470D01*
X0012550Y0015860D01*
X0012950D01*
X0025390Y0000000D02*
Y0023622D01*
X0002949D01*
Y0000000D01*
X0025390D01*
G54D33*
G01X0014330Y0021980D02*
Y0021520D01*
X0012628Y0001068D02*
X0012890Y0001330D01*
X0013152Y0001068D02*
X0012890Y0001330D01*
X0012628Y0001592D02*
X0012890Y0001330D01*
X0012222Y0001592D02*
X0011960Y0001330D01*
X0011698Y0001068D02*
X0011960Y0001330D01*
X0012222Y0001068D02*
X0011960Y0001330D01*
X0011698Y0001592D02*
X0011960Y0001330D01*
X0020682Y0003402D02*
X0020420Y0003140D01*
X0020158Y0002878D02*
X0020420Y0003140D01*
X0020682Y0002878D02*
X0020420Y0003140D01*
X0020158Y0003402D02*
X0020420Y0003140D01*
X0020792Y0001988D02*
X0020530Y0002250D01*
X0020268Y0002512D02*
X0020530Y0002250D01*
X0022132Y0003032D02*
X0021870Y0002770D01*
X0021608Y0002508D02*
X0021870Y0002770D01*
X0022132Y0002508D02*
X0021870Y0002770D01*
X0021608Y0003032D02*
X0021870Y0002770D01*
X0022832Y0003412D02*
X0022570Y0003150D01*
X0022308Y0002888D02*
X0022570Y0003150D01*
X0022832Y0002888D02*
X0022570Y0003150D01*
X0022308Y0003412D02*
X0022570Y0003150D01*
X0022852Y0004262D02*
X0022590Y0004000D01*
X0022328Y0003738D02*
X0022590Y0004000D01*
X0022852Y0003738D02*
X0022590Y0004000D01*
X0022328Y0004262D02*
X0022590Y0004000D01*
X0022852Y0005122D02*
X0022590Y0004860D01*
X0022328Y0004598D02*
X0022590Y0004860D01*
X0022852Y0004598D02*
X0022590Y0004860D01*
X0022328Y0005122D02*
X0022590Y0004860D01*
X0020672Y0005532D02*
X0020410Y0005270D01*
X0020148Y0005008D02*
X0020410Y0005270D01*
X0020672Y0005008D02*
X0020410Y0005270D01*
X0020148Y0005532D02*
X0020410Y0005270D01*
X0022852Y0006872D02*
X0022590Y0006610D01*
X0022328Y0006348D02*
X0022590Y0006610D01*
X0022852Y0006348D02*
X0022590Y0006610D01*
X0022328Y0006872D02*
X0022590Y0006610D01*
X0022852Y0005992D02*
X0022590Y0005730D01*
X0022328Y0005468D02*
X0022590Y0005730D01*
X0022852Y0005468D02*
X0022590Y0005730D01*
X0022328Y0005992D02*
X0022590Y0005730D01*
X0021312Y0002972D02*
X0021050Y0002710D01*
X0021312Y0002448D02*
X0021050Y0002710D01*
X0020788Y0002972D02*
X0021050Y0002710D01*
X0010250Y0004210D02*
Y0004840D01*
Y0005470D02*
Y0004840D01*
X0008965D02*
X0009250D01*
Y0004210D02*
Y0004840D01*
Y0005470D02*
Y0004840D01*
X0008965Y0006800D02*
X0009250D01*
Y0007430D02*
Y0006800D01*
Y0006170D02*
Y0006800D01*
X0015540Y0016360D02*
X0014910D01*
X0014280D02*
X0014910D01*
X0020815Y0011472D02*
X0020496Y0011791D01*
X0019390Y0005170D02*
Y0004760D01*
X0019800D02*
X0019390D01*
X0018980D02*
X0019390D01*
X0016460Y0016390D02*
Y0016800D01*
X0016870D02*
X0016460D01*
X0008980Y0022560D02*
X0009390D01*
Y0022150D02*
Y0022560D01*
Y0022970D02*
Y0022560D01*
X0019150Y0006280D02*
Y0005920D01*
Y0005560D02*
Y0005920D01*
X0018820D02*
X0019150D01*
X0006935Y0004176D02*
X0007405D01*
X0007875D02*
X0007405D01*
Y0004646D02*
Y0004176D01*
X0005630Y0002170D02*
X0006100D01*
X0006570D02*
X0006100D01*
Y0001700D02*
Y0002170D01*
X0021711Y0008877D02*
X0022043Y0008545D01*
X0021711Y0008212D02*
X0022043Y0008545D01*
X0022375Y0008877D02*
X0022043Y0008545D01*
X0006935Y0008854D02*
X0007405D01*
X0007875D02*
X0007405D01*
Y0009324D02*
Y0008854D01*
X0005641Y0005845D02*
X0006111D01*
X0006581D02*
X0006111D01*
Y0005375D02*
Y0005845D01*
X0021570Y0014080D02*
X0022040D01*
Y0014550D02*
Y0014080D01*
X0023962Y0018468D02*
X0024270Y0018160D01*
X0023962Y0017852D02*
X0024270Y0018160D01*
X0006470Y0019540D02*
X0006940D01*
X0007410D02*
X0006940D01*
Y0019070D02*
Y0019540D01*
X0011130Y0001925D02*
Y0001290D01*
Y0000655D02*
Y0001290D01*
X0011545D02*
X0011130D01*
X0010715D02*
X0011130D01*
X0016840Y0005800D02*
X0016430D01*
X0016410Y0008365D02*
Y0008960D01*
X0016730D02*
X0016410D01*
X0016090D02*
X0016410D01*
Y0010725D02*
Y0010130D01*
X0022807Y0018715D02*
Y0019165D01*
X0016730Y0010130D02*
X0016410D01*
X0016090D02*
X0016410D01*
X0011150Y0018290D02*
X0011560D01*
X0011970D02*
X0011560D01*
X0010240Y0018280D02*
X0010650D01*
X0011060D02*
X0010650D01*
X0014790Y0021520D02*
X0014330D01*
X0020252Y0004632D02*
X0019990Y0004370D01*
X0020252Y0004108D02*
X0019990Y0004370D01*
X0010222Y0018322D02*
X0009960Y0018060D01*
X0014182Y0016922D02*
X0013920Y0016660D01*
X0014182Y0016398D02*
X0013920Y0016660D01*
X0013658Y0016922D02*
X0013920Y0016660D01*
X0020052Y0006182D02*
X0019790Y0005920D01*
X0019528Y0005658D02*
X0019790Y0005920D01*
X0020052Y0005658D02*
X0019790Y0005920D01*
X0019528Y0006182D02*
X0019790Y0005920D01*
X0020052Y0006182D02*
X0019790Y0005920D01*
X0019528Y0005658D02*
X0019790Y0005920D01*
X0020052Y0005658D02*
X0019790Y0005920D01*
X0019528Y0006182D02*
X0019790Y0005920D01*
X0017098Y0009948D02*
X0017360Y0010210D01*
X0017098Y0010472D02*
X0017360Y0010210D01*
X0009502Y0013602D02*
X0009240Y0013340D01*
X0008978Y0013078D02*
X0009240Y0013340D01*
X0009502Y0013078D02*
X0009240Y0013340D01*
X0012392Y0012922D02*
X0012130Y0012660D01*
X0011868Y0012398D02*
X0012130Y0012660D01*
X0011868Y0012922D02*
X0012130Y0012660D01*
X0011948Y0018238D02*
X0012210Y0018500D01*
X0015932Y0012182D02*
X0015670Y0011920D01*
X0015408Y0011658D02*
X0015670Y0011920D01*
X0015932Y0011658D02*
X0015670Y0011920D01*
X0012842Y0008692D02*
X0012580Y0008430D01*
X0012318Y0008168D02*
X0012580Y0008430D01*
X0012842Y0008168D02*
X0012580Y0008430D01*
X0011948Y0018238D02*
X0012210Y0018500D01*
X0011908Y0019942D02*
X0012170Y0019680D01*
X0020832Y0004362D02*
X0020570Y0004100D01*
X0020308Y0003838D02*
X0020570Y0004100D01*
X0020832Y0003838D02*
X0020570Y0004100D01*
X0020308Y0004362D02*
X0020570Y0004100D01*
X0020148Y0005958D02*
X0020410Y0006220D01*
X0020672Y0005958D02*
X0020410Y0006220D01*
X0019868Y0007048D02*
X0020130Y0007310D01*
X0020392Y0007048D02*
X0020130Y0007310D01*
X0020378Y0007048D02*
X0020640Y0007310D01*
X0020902Y0007048D02*
X0020640Y0007310D01*
X0020898Y0007048D02*
X0021160Y0007310D01*
X0021422Y0007048D02*
X0021160Y0007310D01*
X0021418Y0007048D02*
X0021680Y0007310D01*
X0015742Y0001592D02*
X0015480Y0001330D01*
X0015218Y0001068D02*
X0015480Y0001330D01*
X0015742Y0001068D02*
X0015480Y0001330D01*
X0015218Y0001592D02*
X0015480Y0001330D01*
X0014862Y0001592D02*
X0014600Y0001330D01*
X0014338Y0001068D02*
X0014600Y0001330D01*
X0014862Y0001068D02*
X0014600Y0001330D01*
X0014338Y0001592D02*
X0014600Y0001330D01*
X0014112Y0001592D02*
X0013850Y0001330D01*
X0013588Y0001068D02*
X0013850Y0001330D01*
X0014112Y0001068D02*
X0013850Y0001330D01*
X0013588Y0001592D02*
X0013850Y0001330D01*
X0013152Y0001592D02*
X0012890Y0001330D01*
G54D37*
G01X0016460Y0016800D02*
X0016610D01*
X0017000Y0017190D01*
Y0017230D01*
X0016570Y0016800D01*
X0016460D01*
X0019390Y0004760D02*
X0019850D01*
X0019990Y0004620D01*
Y0004370D01*
X0016410Y0010130D02*
Y0008960D01*
X0020130Y0007310D02*
X0020640D01*
X0021160D01*
X0021680D01*
X0011960Y0001330D02*
X0012890D01*
X0013850D01*
X0014600D01*
X0015480D01*
X0019390Y0004760D02*
Y0005280D01*
X0019150Y0005520D01*
Y0005920D01*
X0014050Y0019900D02*
X0014070D01*
X0010650Y0018280D02*
X0010180D01*
X0009960Y0018060D01*
X0013920Y0016660D02*
X0014220Y0016360D01*
X0014910D01*
X0019790Y0005920D02*
X0019150D01*
X0019790D01*
X0006110Y0002160D02*
X0006100Y0002170D01*
X0016460Y0016800D02*
X0016570D01*
X0017000Y0017230D01*
X0015650Y0022220D02*
X0014570D01*
X0014270Y0021920D01*
Y0021580D01*
X0014330Y0021520D01*
X0012210Y0018500D02*
X0012000Y0018290D01*
X0011560D01*
X0009390Y0022560D02*
Y0022940D01*
X0009550Y0023100D01*
X0010850D01*
X0011500Y0022450D01*
X0012180D01*
X0012470Y0022740D01*
X0013450D01*
X0014270Y0021920D01*
Y0021580D01*
X0014330Y0021520D01*
X0011560Y0018290D02*
X0012000D01*
X0012210Y0018500D01*
X0012170Y0019680D02*
X0012460Y0019390D01*
X0013260D01*
X0013770Y0019900D01*
X0014070D01*
X0006100Y0002170D02*
X0006110Y0002160D01*
X0018940Y0017230D02*
Y0018960D01*
X0019090Y0019110D01*
Y0021320D01*
X0018540Y0021870D01*
X0017300D01*
X0016820Y0022350D01*
X0022341Y0013079D02*
X0022359D01*
X0022600Y0013320D01*
Y0015850D01*
X0023550Y0016800D01*
Y0017440D01*
X0023310Y0017680D01*
X0022270D01*
X0021807Y0017217D01*
Y0017165D01*
X0012040Y0022990D02*
X0013590D01*
X0013900Y0022680D01*
X0015790D01*
X0016290Y0022180D01*
X0015630Y0021520D01*
X0012310Y0005770D02*
X0013220D01*
X0015660Y0008210D01*
Y0008960D01*
X0017790Y0018920D02*
X0018290D01*
X0018800Y0019430D01*
Y0021170D01*
X0018350Y0021620D01*
X0016830D01*
X0016280Y0022170D01*
X0015630Y0021520D01*
X0010650Y0019120D02*
X0011060Y0018710D01*
X0011860D01*
X0012020Y0018870D01*
X0013260D01*
X0013730Y0018400D01*
X0014070D01*
X0024270Y0019160D02*
X0024700Y0018730D01*
Y0015850D01*
X0024280Y0015430D01*
X0023070D01*
X0015070Y0006140D02*
X0015570D01*
X0015920Y0005790D01*
Y0005330D01*
X0016060Y0005190D01*
X0017230D01*
Y0004760D01*
X0011870Y0014250D02*
X0012710Y0013410D01*
X0017820Y0004240D02*
X0017300Y0004760D01*
X0017230D01*
Y0005210D01*
X0017390Y0005370D01*
Y0005870D01*
X0015660Y0010130D02*
Y0008960D01*
G54D38*
G01X0012990Y0018090D02*
X0012420Y0017520D01*
X0009920D01*
X0008280Y0015880D01*
X0007470D01*
Y0015890D01*
X0006940Y0020540D02*
X0006938Y0020538D01*
X0004468D01*
X0003480Y0019550D01*
Y0014150D01*
X0005296Y0012340D01*
Y0011246D01*
Y0017544D02*
Y0018000D01*
X0008350D01*
X0008910Y0018560D01*
Y0019630D01*
X0009680Y0020400D01*
X0012530D01*
X0012990Y0019940D01*
G54D39*
G01X0009250Y0004840D02*
X0008060D01*
X0007405Y0004176D01*
X0011560Y0018290D02*
X0010660D01*
X0010650Y0018280D01*
X0009390Y0021380D02*
X0009990Y0020780D01*
X0013170D01*
X0014050Y0019900D01*
X0007405Y0004176D02*
X0006230Y0005350D01*
Y0005720D01*
X0006111Y0005835D01*
Y0005845D01*
X0007405Y0004176D02*
X0007396D01*
X0006730Y0003510D01*
Y0002800D01*
X0006101Y0002177D01*
X0006100Y0002176D01*
Y0002170D01*
X0006110Y0000510D02*
Y0002160D01*
X0006111Y0005845D02*
X0005555D01*
X0005150Y0006250D01*
Y0008810D01*
X0005960Y0009620D01*
X0007060D01*
X0007405Y0009275D01*
Y0008854D01*
X0016410Y0010130D02*
X0017280D01*
X0017360Y0010210D01*
X0009240Y0013340D02*
X0011450D01*
X0012130Y0012660D01*
X0015670Y0011920D02*
X0014750Y0011000D01*
Y0010800D01*
X0012580Y0008630D01*
Y0008430D01*
X0006110Y0002160D02*
Y0000510D01*
X0011100Y0019840D02*
X0010880D01*
X0010650Y0019610D01*
Y0019120D01*
X0006670Y0017200D02*
X0006750Y0017280D01*
X0008370D01*
X0010210Y0019120D01*
X0010650D01*
X0017910Y0011690D02*
Y0008980D01*
X0015070Y0006140D01*
X0017640Y0021116D02*
X0018244D01*
X0018520Y0020840D01*
Y0019750D01*
X0018190Y0019420D01*
X0017790D01*
X0007405Y0003176D02*
X0007861Y0002720D01*
X0008990D01*
X0011560Y0019130D02*
X0013440D01*
X0013710Y0019400D01*
X0014070D01*
X0016800Y0021116D02*
X0016494Y0020810D01*
X0014130D01*
X0013640Y0021300D01*
Y0022070D01*
X0013260Y0022450D01*
X0012760D01*
X0012010Y0021700D01*
X0012140Y0016880D02*
X0012930D01*
X0007470Y0013990D02*
Y0014000D01*
X0007480D01*
G54D40*
G01X0014930Y0019710D02*
X0014700Y0019480D01*
Y0019070D01*
X0014530Y0018900D01*
X0014150D01*
X0014540Y0017360D02*
X0014910Y0016990D01*
Y0016860D01*
X0021830Y0020280D02*
X0022350Y0019760D01*
Y0018640D01*
X0021875Y0018165D01*
X0021807D01*
X0022830Y0019840D02*
X0023070D01*
X0023390Y0019520D01*
Y0018747D01*
X0022807Y0018165D01*
X0022400Y0013130D02*
X0022600Y0012930D01*
Y0013330D02*
X0022400Y0013130D01*
X0022452Y0013182D02*
Y0013078D01*
X0022524Y0013254D02*
Y0013006D01*
X0022596Y0013326D02*
Y0012930D01*
X0022564Y0013294D02*
X0022600D01*
X0022492Y0013222D02*
X0022600D01*
X0022420Y0013150D02*
X0022600D01*
X0022452Y0013078D02*
X0022600D01*
X0022524Y0013006D02*
X0022600D01*
Y0013330D02*
Y0012930D01*
X0011456Y0006986D02*
X0011811D01*
X0011384Y0006914D02*
X0011880D01*
X0011312Y0006842D02*
X0011880D01*
X0011300Y0006770D02*
X0011880D01*
X0011372Y0006698D02*
X0011880D01*
X0011444Y0006626D02*
X0011880D01*
X0011516Y0006554D02*
X0011880D01*
X0011588Y0006482D02*
X0011880D01*
X0011660Y0006410D02*
X0011880D01*
X0011732Y0006338D02*
X0011880D01*
X0011804Y0006266D02*
X0011880D01*
X0011300Y0006830D02*
Y0006770D01*
X0011372Y0006902D02*
Y0006698D01*
X0011444Y0006974D02*
Y0006626D01*
X0011516Y0007046D02*
Y0006554D01*
X0011588Y0007118D02*
Y0006482D01*
X0011660Y0007131D02*
Y0006410D01*
X0011732Y0007062D02*
Y0006338D01*
X0011804Y0006993D02*
Y0006266D01*
X0011876Y0006924D02*
Y0006190D01*
X0011600Y0007130D02*
X0011661D01*
X0011528Y0007058D02*
X0011736D01*
X0011630Y0007160D02*
X0011880Y0006920D01*
Y0006190D01*
X0011270Y0006800D02*
X0011880Y0006190D01*
X0011630Y0007160D02*
X0011270Y0006800D01*
X0008320Y0013710D02*
X0008530Y0013500D01*
X0008740Y0013710D02*
X0008530Y0013500D01*
X0008376Y0013710D02*
Y0013654D01*
X0008448Y0013710D02*
Y0013582D01*
X0008520Y0013710D02*
Y0013510D01*
X0008592Y0013710D02*
Y0013562D01*
X0008664Y0013710D02*
Y0013634D01*
X0008382Y0013648D02*
X0008678D01*
X0008454Y0013576D02*
X0008606D01*
X0008320Y0013710D02*
X0008740D01*
X0016290Y0022170D02*
X0016460Y0022000D01*
X0016120D02*
X0016460D01*
X0016290Y0022170D02*
X0016120Y0022000D01*
X0016168Y0022048D02*
Y0022000D01*
X0016240Y0022120D02*
Y0022000D01*
X0016312Y0022148D02*
Y0022000D01*
X0016384Y0022076D02*
Y0022000D01*
X0016268Y0022148D02*
X0016312D01*
X0016196Y0022076D02*
X0016384D01*
X0016124Y0022004D02*
X0016460D01*
X0025040Y0014990D02*
X0024850Y0014800D01*
X0025040Y0014990D02*
X0025050D01*
X0024902Y0014852D02*
Y0014751D01*
X0024974Y0014924D02*
Y0014682D01*
X0025046Y0014990D02*
Y0014610D01*
X0025024Y0014974D02*
X0025050D01*
X0024952Y0014902D02*
X0025050D01*
X0024880Y0014830D02*
X0025050D01*
X0024894Y0014758D02*
X0025050D01*
X0024970Y0014686D02*
X0025050D01*
Y0014990D02*
Y0014610D01*
X0024850Y0014800D02*
X0025050Y0014610D01*
G54D41*
G01X0017790Y0019420D02*
X0017260D01*
X0017040Y0019200D01*
Y0018650D01*
X0017270Y0018420D01*
X0017790D01*
Y0019920D02*
X0017230D01*
X0016710Y0019400D01*
Y0018400D01*
X0016030D01*
X0021807Y0019165D02*
X0021563Y0018920D01*
X0019750D01*
X0009250Y0006800D02*
Y0004840D01*
X0009390Y0022560D02*
Y0021380D01*
X0009250Y0004840D02*
Y0004340D01*
X0009510Y0004080D01*
X0010010D01*
X0010250Y0004320D01*
Y0004840D01*
X0011130Y0001290D02*
Y0001190D01*
X0011060Y0001120D01*
X0010710D01*
X0010100Y0000510D01*
X0006110D01*
X0009390Y0022560D02*
Y0021360D01*
X0007568Y0019538D01*
X0006938D01*
X0006940Y0019540D01*
X0006110Y0000510D02*
X0005280D01*
X0004350Y0001440D01*
Y0008720D01*
X0005710Y0010080D01*
X0006590D01*
X0006620Y0010110D01*
Y0012450D01*
X0004000Y0015070D01*
Y0018870D01*
X0004670Y0019538D01*
X0006938D01*
X0006940Y0019540D01*
X0017790Y0017180D02*
X0018420D01*
X0018580Y0017020D01*
Y0016380D01*
X0018380Y0016180D01*
X0017790D01*
X0015660Y0010130D02*
Y0010700D01*
X0017140Y0012180D01*
X0018420D01*
X0019040Y0011560D01*
Y0008640D01*
X0019950Y0007730D01*
X0022240D01*
X0022970Y0008460D01*
Y0011100D01*
X0022720Y0011350D01*
Y0012700D01*
X0022341Y0013079D01*
X0022044D01*
X0022043Y0013080D01*
X0022040D01*
X0022043D01*
X0022044Y0013079D01*
X0022341D01*
X0007470Y0013990D02*
X0008050D01*
X0008540Y0013500D01*
Y0011700D01*
X0008950Y0011290D01*
Y0009820D01*
X0011880Y0006890D01*
X0011700D01*
X0011610Y0006800D01*
X0010750D01*
X0012950Y0016360D02*
X0013590D01*
X0013790Y0016160D01*
Y0015250D01*
X0014050Y0014990D01*
X0015580D01*
X0017270Y0016680D01*
X0017790D01*
X0015290Y0010960D02*
X0015660Y0010590D01*
Y0010130D01*
X0009511Y0014471D02*
X0010160Y0015120D01*
X0011310D01*
X0012550Y0016360D01*
X0012950D01*
X0007470Y0013990D02*
X0008050D01*
X0008540Y0013500D01*
X0009511Y0014471D01*
X0011890Y0004800D02*
Y0006800D01*
X0010750D01*
X0010250D02*
X0010750D01*
X0019750Y0016680D02*
X0020720D01*
X0020790Y0016610D01*
X0022260D01*
X0022807Y0017165D01*
X0008990Y0002720D02*
X0009470D01*
X0010750Y0004000D01*
Y0004840D01*
X0007470Y0013990D02*
X0007230D01*
X0007190Y0014030D01*
X0007510D01*
X0007470Y0013990D01*
X0019750Y0016680D02*
Y0016180D01*
X0008760Y0001290D02*
Y0001850D01*
X0008990Y0002080D01*
Y0002720D01*
X0010730D02*
Y0003180D01*
X0011160Y0003610D01*
Y0005750D01*
X0010830Y0006080D01*
X0010030D01*
X0009750Y0006360D01*
Y0006800D01*
X0019750Y0018920D02*
Y0018420D01*
Y0017180D02*
Y0016680D01*
X0017790Y0017680D02*
X0017370D01*
X0016650Y0018400D01*
X0016030D01*
Y0019900D02*
X0015490D01*
X0014950Y0020440D01*
X0014010D01*
X0013360Y0021090D01*
X0011340D01*
X0010270Y0022160D01*
Y0022520D01*
X0010230Y0022560D01*
X0019750Y0019420D02*
Y0018920D01*
X0010730Y0002720D02*
X0011630D01*
X0013710Y0004800D01*
X0015400D01*
X0019750Y0017680D02*
Y0017180D01*
Y0019920D02*
Y0019420D01*
X0016030Y0018900D02*
Y0018400D01*
Y0019400D02*
X0015440D01*
X0015230Y0019190D01*
Y0018170D01*
X0015400Y0018000D01*
X0016100D01*
X0016460Y0017640D01*
X0016030Y0019900D02*
Y0019400D01*
X0007480Y0014000D02*
X0007510Y0014030D01*
X0007190D01*
X0007230Y0013990D01*
X0007470D01*
X0017790Y0016180D02*
X0017350Y0015740D01*
Y0014880D01*
G54D83*
G01X0015836Y0015842D02*
X0016022D01*
X0016125Y0016238D02*
X0016418D01*
X0011686Y0013924D02*
Y0011670D01*
X0018175Y0010794D02*
X0018750D01*
X0015518Y0016238D02*
X0015624D01*
X0014853Y0011359D02*
Y0007743D01*
X0014952Y0010797D02*
Y0007842D01*
X0016433Y0022376D02*
X0016446D01*
X0010645Y0022277D02*
X0012212D01*
X0009815Y0022975D02*
Y0022145D01*
Y0022975D02*
X0010645D01*
X0009805D02*
Y0022145D01*
X0008975D02*
X0009805D01*
X0008975Y0022975D02*
Y0022145D01*
Y0022975D02*
X0009805D01*
X0018075Y0006285D02*
X0018745D01*
Y0005555D01*
X0018625Y0005250D02*
X0020036D01*
X0018075Y0006285D02*
Y0005555D01*
X0018445Y0007125D02*
X0019115D01*
X0019011Y0008259D02*
Y0007125D01*
X0018445Y0006295D02*
X0019115D01*
X0017922Y0008618D02*
Y0006925D01*
X0018815Y0006285D02*
X0019485D01*
X0019605Y0006505D02*
Y0006246D01*
X0018815Y0005555D02*
X0019485D01*
X0018815Y0006285D02*
Y0005555D01*
X0012180Y0006339D02*
X0013449D01*
X0019827Y0005547D02*
X0020157D01*
X0015249Y0005811D02*
Y0005615D01*
X0014920Y0003985D02*
X0015880D01*
X0012788Y0003468D02*
X0016885D01*
X0015941Y0006636D02*
X0016015D01*
X0007429Y0002702D02*
Y0002651D01*
X0007825Y0002458D02*
Y0002399D01*
X0007880Y0004651D02*
Y0003702D01*
X0006930D02*
X0007880D01*
X0006930Y0004651D02*
Y0003702D01*
Y0004651D02*
X0007880D01*
X0006575Y0002645D02*
Y0001695D01*
X0005625D02*
X0006575D01*
X0005625Y0002645D02*
Y0001695D01*
Y0002645D02*
X0006575D01*
X0022501Y0008418D02*
X0022518D01*
X0021486Y0011332D02*
Y0009691D01*
X0022518Y0010020D02*
Y0009070D01*
X0021568Y0010020D02*
X0022518D01*
X0007880Y0009329D02*
Y0008379D01*
X0006930D02*
X0007880D01*
X0006930Y0009329D02*
Y0008379D01*
Y0009329D02*
X0007880D01*
X0006586Y0006320D02*
Y0005370D01*
X0005636D02*
X0006586D01*
X0005636Y0006320D02*
Y0005370D01*
Y0006320D02*
X0006586D01*
X0022518Y0009309D02*
X0022680D01*
X0019407Y0012683D02*
Y0009615D01*
X0022377Y0010745D02*
Y0010020D01*
X0021565Y0014555D02*
Y0013605D01*
X0016100Y0010730D02*
X0016735D01*
X0023565Y0020561D02*
Y0019627D01*
X0023595Y0018812D02*
X0024001D01*
X0024361Y0018730D02*
X0024460Y0018631D01*
X0023546Y0018614D02*
X0024460D01*
X0024753Y0019863D02*
Y0019016D01*
X0023830Y0019720D02*
X0024710D01*
X0023763Y0020363D02*
Y0017550D01*
X0020323Y0020099D02*
X0021501D01*
X0023466Y0018533D02*
Y0017862D01*
X0022377Y0018016D02*
Y0017920D01*
X0021924Y0019604D02*
X0022145D01*
X0022555Y0018786D02*
Y0018640D01*
X0017920Y0008616D02*
X0018751D01*
X0023790Y0017426D02*
X0023920D01*
X0023790Y0016832D02*
X0023976D01*
X0019605Y0023055D02*
Y0022892D01*
X0022773Y0018711D02*
Y0018618D01*
X0005944Y0021307D02*
Y0020903D01*
X0009815Y0022145D02*
X0009980D01*
X0007415Y0020015D02*
Y0019065D01*
X0006465D02*
X0007415D01*
X0006465Y0020015D02*
Y0019065D01*
Y0020015D02*
X0007415D01*
X0021189Y0002362D02*
Y0002062D01*
X0022179Y0008090D02*
Y0008079D01*
X0021288Y0011529D02*
Y0009932D01*
X0003260Y0009309D02*
X0006009D01*
X0008221Y0013409D02*
Y0011778D01*
X0005179Y0012971D02*
X0008250D01*
X0006241Y0021245D02*
Y0020903D01*
X0005350Y0023320D02*
Y0023126D01*
X0003260Y0021386D02*
X0005763D01*
X0015995Y0017525D02*
X0016045D01*
X0004147Y0016494D02*
X0006445D01*
X0004147Y0018595D02*
Y0016494D01*
Y0018595D02*
X0006445D01*
Y0012296D02*
Y0010195D01*
X0004147D02*
X0006445D01*
X0004147Y0012296D02*
Y0010195D01*
X0018813Y0006295D02*
Y0005175D01*
X0018865Y0003525D02*
Y0002715D01*
X0018175D02*
X0018865D01*
X0023790Y0017129D02*
X0023831D01*
X0015744Y0006440D02*
Y0006305D01*
X0017922Y0006495D02*
Y0004601D01*
X0016885Y0002715D02*
X0017575D01*
X0016446Y0004359D02*
X0016507D01*
X0008400Y0003425D02*
X0009580D01*
X0009706Y0004208D02*
Y0003366D01*
X0019704Y0005555D02*
Y0005175D01*
X0010140Y0002015D02*
X0011320D01*
X0010102Y0004246D02*
Y0003762D01*
X0022476Y0016416D02*
Y0016066D01*
X0009650Y0016733D02*
X0011795D01*
X0006725Y0014555D02*
Y0013425D01*
Y0014555D02*
X0008215D01*
X0005661Y0012296D02*
X0006445D01*
X0006725Y0015325D02*
X0008215D01*
X0006725Y0016455D02*
Y0015325D01*
Y0016455D02*
X0008215D01*
X0010710Y0001930D02*
X0011550D01*
Y0000650D01*
X0010710D02*
X0011550D01*
X0010710Y0001930D02*
Y0000650D01*
X0007779Y0001884D02*
X0008340D01*
X0009112Y0000650D02*
Y0000300D01*
X0008340Y0000650D02*
X0009180D01*
X0008340Y0001930D02*
Y0000650D01*
X0016015Y0006215D02*
X0016845D01*
Y0006339D02*
X0016975D01*
X0016015Y0006225D02*
X0016845D01*
X0015829Y0008040D02*
X0013390Y0005600D01*
X0022515Y0011145D02*
X0022680Y0010980D01*
X0016085Y0008360D02*
X0016735D01*
X0016536Y0011166D02*
Y0010730D01*
X0015249Y0010587D02*
Y0008139D01*
X0015335Y0008360D02*
X0015420D01*
X0016635Y0011265D02*
Y0010730D01*
X0016735Y0009560D02*
Y0009530D01*
Y0010730D02*
Y0009560D01*
X0016140Y0010770D02*
Y0010730D01*
X0011389Y0003431D02*
Y0003010D01*
X0015985Y0009560D02*
Y0009530D01*
Y0008616D02*
X0016085D01*
X0014061Y0004510D02*
Y0001640D01*
X0008518Y0017060D02*
Y0016634D01*
X0014952Y0005784D02*
Y0005615D01*
X0010003Y0018538D02*
Y0018433D01*
X0014259Y0006470D02*
Y0005090D01*
X0015249Y0022440D02*
Y0021985D01*
X0011065Y0018470D02*
Y0017885D01*
X0013467Y0020572D02*
Y0020233D01*
X0008617Y0017152D02*
Y0016733D01*
X0003845Y0014555D02*
X0009146D01*
X0014952Y0022440D02*
Y0021075D01*
X0012498Y0013961D02*
X0013977D01*
X0005548Y0020173D02*
Y0018595D01*
X0017722Y0008418D02*
X0018852D01*
X0022191Y0002577D02*
X0022910D01*
X0004855Y0016494D02*
Y0013295D01*
X0005548Y0016494D02*
Y0012604D01*
X0003845Y0014301D02*
X0005553Y0012599D01*
X0003271Y0013843D02*
Y0000300D01*
X0003370Y0013744D02*
Y0000300D01*
X0003469Y0013646D02*
Y0000300D01*
X0003568Y0013547D02*
Y0000300D01*
X0003667Y0013448D02*
Y0000300D01*
X0003766Y0013350D02*
Y0000300D01*
X0006340Y0016494D02*
Y0012296D01*
X0004063Y0013054D02*
Y0000300D01*
X0004162Y0010195D02*
Y0000300D01*
X0004261Y0010195D02*
Y0000300D01*
X0004360Y0010195D02*
Y0000300D01*
X0004459Y0010195D02*
Y0000300D01*
X0004558Y0010195D02*
Y0000300D01*
X0004657Y0010195D02*
Y0000300D01*
X0004756Y0010195D02*
Y0000300D01*
X0004855Y0010195D02*
Y0000300D01*
X0004954Y0010195D02*
Y0000300D01*
X0005053Y0010195D02*
Y0000300D01*
X0005152Y0010195D02*
Y0000300D01*
X0005251Y0010195D02*
Y0000300D01*
X0005350Y0010195D02*
Y0000300D01*
X0012955Y0008418D02*
X0015335D01*
X0006340Y0002760D02*
Y0002645D01*
X0015150Y0011656D02*
Y0011308D01*
X0005548Y0010195D02*
Y0000300D01*
X0011389Y0000650D02*
Y0000300D01*
X0006439Y0002837D02*
Y0002645D01*
X0003260Y0002676D02*
X0007531D01*
X0005944Y0001695D02*
Y0000300D01*
X0006142Y0020173D02*
Y0018595D01*
X0007033Y0021464D02*
Y0021006D01*
X0008419Y0017019D02*
Y0016535D01*
X0009409Y0002015D02*
Y0000300D01*
X0006445Y0011685D02*
X0007298D01*
X0007132Y0017015D02*
Y0016455D01*
X0010300Y0004209D02*
Y0003960D01*
X0006470Y0003468D02*
X0007030D01*
X0007871Y0003085D02*
X0007971Y0002985D01*
X0006835Y0010024D02*
Y0000300D01*
X0007033Y0003702D02*
Y0003471D01*
X0007825Y0001954D02*
Y0000300D01*
X0007924Y0002455D02*
Y0000300D01*
X0019696Y0012971D02*
X0019845D01*
X0003260Y0009606D02*
X0007245D01*
X0007231Y0001735D02*
Y0000300D01*
X0003260Y0001290D02*
X0008340D01*
X0009180Y0000795D02*
X0010710D01*
X0003260Y0003666D02*
X0010006D01*
X0008716Y0000650D02*
Y0000300D01*
X0008815Y0000650D02*
Y0000300D01*
X0010420Y0004260D02*
X0010460D01*
X0009013Y0004328D02*
Y0003425D01*
X0009211Y0001892D02*
Y0000300D01*
Y0004208D02*
Y0003425D01*
X0010460Y0004120D02*
X0009580Y0003240D01*
X0019209Y0022149D02*
Y0021540D01*
X0013170Y0022750D02*
Y0022715D01*
X0008400Y0003425D02*
Y0002985D01*
X0009904Y0018439D02*
Y0018431D01*
X0008792Y0017327D02*
X0009211D01*
X0012280Y0003985D02*
Y0003780D01*
X0010102Y0002941D02*
Y0000300D01*
X0010201Y0002015D02*
Y0000300D01*
X0010300Y0002015D02*
Y0000300D01*
X0010399Y0002015D02*
Y0000300D01*
X0007132Y0015325D02*
Y0014555D01*
X0010795Y0000650D02*
Y0000300D01*
X0014556Y0006767D02*
Y0005090D01*
X0012181Y0022642D02*
Y0022245D01*
X0014061Y0010567D02*
Y0006951D01*
X0011550Y0001389D02*
X0011590D01*
X0015828Y0001191D02*
X0017432D01*
X0011884Y0002563D02*
Y0001697D01*
X0011983Y0002662D02*
Y0001704D01*
X0012082Y0002761D02*
Y0001685D01*
X0012181Y0002860D02*
Y0001633D01*
X0004782Y0013367D02*
X0008250D01*
X0013665Y0001004D02*
Y0000300D01*
X0011488Y0017155D02*
Y0015708D01*
X0009508Y0008852D02*
Y0007304D01*
X0017029Y0007725D02*
X0019545D01*
X0008215Y0015446D02*
X0011226D01*
X0009805Y0016888D02*
Y0015175D01*
X0011340Y0020800D02*
X0013240D01*
X0015770Y0001092D02*
X0017490D01*
X0013467Y0019647D02*
Y0019533D01*
X0015840Y0011586D02*
X0016135D01*
X0009112Y0012988D02*
Y0011538D01*
X0020920Y0020725D02*
X0023401D01*
X0012874Y0000955D02*
Y0000300D01*
X0008815Y0017350D02*
Y0016931D01*
X0013269Y0019455D02*
Y0019395D01*
X0013764Y0018110D02*
Y0017001D01*
X0014556Y0004510D02*
Y0001702D01*
X0012370Y0005052D02*
X0013566D01*
X0014754Y0004510D02*
Y0001672D01*
X0015744Y0001064D02*
Y0000300D01*
X0015335Y0009530D02*
Y0008360D01*
X0014655Y0022440D02*
Y0021985D01*
X0013199Y0009705D02*
X0015335D01*
X0014853Y0007064D02*
Y0006446D01*
X0015820Y0001488D02*
X0017440D01*
X0015546Y0003985D02*
Y0001699D01*
X0016085Y0009530D02*
Y0008360D01*
Y0009560D02*
Y0009530D01*
X0015843Y0001237D02*
Y0000300D01*
X0015942Y0004387D02*
Y0000300D01*
X0016140Y0004281D02*
Y0000300D01*
X0016815Y0003505D02*
X0016885D01*
X0012689Y0003369D02*
X0016885D01*
X0016833Y0003505D02*
Y0000300D01*
X0017427Y0001203D02*
Y0000300D01*
X0017724Y0000959D02*
Y0000300D01*
X0017130Y0002715D02*
Y0000300D01*
X0019070Y0001389D02*
X0019288D01*
X0015447Y0005900D02*
Y0005615D01*
X0017645Y0003765D02*
X0018015D01*
X0017526Y0002715D02*
Y0001606D01*
X0015942Y0015948D02*
Y0015762D01*
X0018750Y0011440D02*
Y0008640D01*
X0006340Y0010195D02*
Y0009261D01*
X0017575Y0002775D02*
X0018175D01*
X0018120Y0001172D02*
Y0000300D01*
X0018070Y0001092D02*
X0018410D01*
X0018973Y0001587D02*
X0019421D01*
X0018219Y0002715D02*
Y0000300D01*
X0018417Y0002715D02*
Y0001576D01*
X0020715Y0006438D02*
X0022257D01*
X0018615Y0002715D02*
Y0001695D01*
X0016975Y0007125D02*
Y0006925D01*
X0018516Y0001003D02*
Y0000300D01*
X0019308Y0001136D02*
Y0000300D01*
X0017944Y0000993D02*
X0018536D01*
X0006340Y0001695D02*
Y0000300D01*
X0018845Y0004135D02*
X0018975D01*
X0019704Y0003505D02*
Y0001661D01*
X0019803Y0003505D02*
Y0001632D01*
X0020766Y0005151D02*
X0022353D01*
X0019805Y0005175D02*
Y0004696D01*
X0020001Y0001159D02*
Y0000300D01*
X0020100Y0001297D02*
Y0000300D01*
X0020298Y0001245D02*
Y0000300D01*
X0007825Y0009431D02*
Y0009329D01*
X0008914Y0017449D02*
Y0017030D01*
X0011550Y0000696D02*
X0020906D01*
X0020794Y0003171D02*
X0022196D01*
X0020595Y0001402D02*
Y0000300D01*
X0022080Y0012607D02*
Y0012553D01*
X0020717Y0003369D02*
X0022266D01*
X0021416Y0008319D02*
X0021625D01*
X0021090Y0002337D02*
Y0001959D01*
X0020611Y0001884D02*
X0021031D01*
X0019330Y0011388D02*
X0019845D01*
X0022515Y0011091D02*
X0022569D01*
X0014729Y0022970D02*
X0019786D01*
X0014853Y0005834D02*
Y0005090D01*
X0022674Y0002790D02*
Y0002176D01*
X0018845Y0004458D02*
X0018975D01*
X0011389Y0008371D02*
Y0007792D01*
X0021684Y0020725D02*
Y0020625D01*
X0022872Y0016710D02*
Y0016461D01*
X0012180Y0006735D02*
X0013845D01*
X0014358Y0006569D02*
Y0005090D01*
X0023577Y0019604D02*
X0024835D01*
X0003260Y0020099D02*
X0003513D01*
X0024707Y0019208D02*
X0024835D01*
X0021930Y0006636D02*
X0022216D01*
X0006445Y0016634D02*
X0008518D01*
X0022941Y0020198D02*
X0023830D01*
X0022524Y0007230D02*
X0022910D01*
X0012774Y0008109D02*
Y0006010D01*
X0021189Y0020725D02*
Y0019210D01*
X0015310Y0011816D02*
X0012665Y0009171D01*
X0008122Y0017015D02*
Y0016455D01*
X0011686Y0002435D02*
Y0001586D01*
X0023595Y0019010D02*
X0023856D01*
X0023398Y0019802D02*
X0023830D01*
X0023466Y0020660D02*
Y0019734D01*
X0015695Y0016309D02*
X0015461Y0016075D01*
X0019330Y0020990D02*
X0020566D01*
X0018175Y0010893D02*
X0018750D01*
X0006241Y0016494D02*
Y0012296D01*
X0018300Y0011890D02*
X0018750Y0011440D01*
X0019110Y0012465D02*
Y0011900D01*
X0015959Y0012465D02*
X0015774Y0012280D01*
X0016833Y0012465D02*
Y0012283D01*
X0012082Y0018148D02*
Y0017885D01*
X0018015Y0003505D02*
X0018175D01*
X0023192Y0017921D02*
X0023900D01*
X0022377Y0012633D02*
Y0012415D01*
X0015118Y0007329D02*
X0015884D01*
X0016735Y0010398D02*
X0017035D01*
X0016015Y0006710D02*
X0015665Y0006360D01*
X0024377Y0016733D02*
X0024460D01*
X0010645Y0022772D02*
X0011735D01*
X0024060Y0015773D02*
Y0015670D01*
X0016845Y0005844D02*
X0016975D01*
X0019407Y0007863D02*
Y0006935D01*
X0010399Y0014830D02*
Y0010035D01*
X0017575Y0003505D02*
Y0002715D01*
X0022674Y0003635D02*
Y0003510D01*
X0021505Y0013565D02*
X0022360D01*
X0022430Y0012580D02*
Y0012351D01*
X0022517Y0008517D02*
X0022617D01*
X0020939Y0011685D02*
X0021132D01*
X0021505Y0013664D02*
X0021565D01*
X0020275Y0010794D02*
X0021661D01*
X0003260Y0011982D02*
X0004147D01*
X0005746Y0016494D02*
Y0012296D01*
X0022674Y0007380D02*
Y0006975D01*
X0008320Y0009517D02*
Y0002985D01*
X0018273Y0011784D02*
X0018406D01*
X0018175Y0009903D02*
X0018750D01*
X0012906Y0008616D02*
X0015335D01*
X0014288Y0010794D02*
X0014954D01*
X0020275Y0010893D02*
X0021604D01*
X0015645Y0003985D02*
Y0001667D01*
X0015880Y0004472D02*
Y0003985D01*
X0019845Y0013121D02*
X0019252Y0012528D01*
X0018175Y0010200D02*
X0018750D01*
X0021058Y0010101D02*
X0022680D01*
X0015335Y0009560D02*
Y0009530D01*
X0015680Y0005691D02*
Y0005615D01*
X0016041Y0004315D02*
Y0000300D01*
X0020793Y0001983D02*
X0021111D01*
X0022769Y0003468D02*
X0022910D01*
X0019110Y0006505D02*
Y0006295D01*
X0011653Y0007527D02*
X0014637D01*
X0021783Y0008147D02*
Y0008020D01*
X0021585Y0006505D02*
Y0003014D01*
X0005746Y0007541D02*
Y0007148D01*
X0003260Y0000993D02*
X0008340D01*
X0016845Y0006425D02*
X0016870D01*
X0020991Y0006975D02*
Y0006935D01*
X0022722Y0007428D02*
X0022910D01*
X0022377Y0006301D02*
Y0006039D01*
X0022872Y0006363D02*
Y0005977D01*
X0022326Y0007032D02*
X0022910D01*
X0022781Y0006933D02*
X0022910D01*
X0022891Y0006834D02*
X0022910D01*
X0008914Y0000650D02*
Y0000300D01*
X0015613Y0007824D02*
X0016379D01*
X0020355Y0004458D02*
X0020458D01*
X0022798Y0006042D02*
X0022910D01*
X0017625Y0003505D02*
Y0001672D01*
X0011450Y0003985D02*
Y0003610D01*
X0020663Y0005943D02*
X0022281D01*
X0020740Y0005448D02*
X0022343D01*
X0016536Y0004330D02*
Y0000300D01*
X0018745Y0006141D02*
X0018815D01*
X0024700Y0019069D02*
X0024835Y0018934D01*
X0022837Y0005448D02*
X0022910D01*
X0022377Y0002828D02*
Y0002322D01*
X0005746Y0005370D02*
Y0004486D01*
X0007429Y0001702D02*
Y0000300D01*
X0015744Y0003985D02*
Y0001596D01*
X0015420Y0008360D02*
Y0008309D01*
X0017922Y0000983D02*
Y0000300D01*
X0016932Y0002715D02*
Y0000300D01*
X0018120Y0005555D02*
Y0005175D01*
X0020682Y0004458D02*
X0022910D01*
X0019605Y0003505D02*
Y0001662D01*
X0006439Y0005370D02*
Y0004503D01*
X0010267Y0008913D02*
X0010987D01*
X0011996Y0002676D02*
X0020677D01*
X0015850Y0001389D02*
X0017410D01*
X0018516Y0002715D02*
Y0001657D01*
X0022080Y0006786D02*
Y0003081D01*
X0022575Y0002775D02*
Y0002236D01*
X0011320Y0002379D02*
X0020178D01*
X0022824Y0002874D02*
X0022910D01*
X0022245Y0002775D02*
X0022910D01*
X0011550Y0000795D02*
X0020868D01*
X0003260Y0000300D02*
X0021189D01*
X0022076Y0002379D02*
X0022910D01*
X0008419Y0000650D02*
Y0000300D01*
X0011092Y0000650D02*
Y0000300D01*
X0022667Y0002181D02*
X0022910D01*
X0022797Y0002082D02*
X0022910D01*
X0022476Y0002787D02*
Y0002284D01*
X0003260Y0000399D02*
X0021094D01*
X0020595Y0011346D02*
Y0010248D01*
X0004261Y0016494D02*
Y0013887D01*
X0015843Y0017710D02*
Y0017529D01*
X0004162Y0016494D02*
Y0013986D01*
X0012366Y0006141D02*
X0013251D01*
X0003260Y0013268D02*
X0003847D01*
X0010795Y0023320D02*
Y0022046D01*
X0013184Y0003864D02*
X0016815D01*
X0007839Y0003369D02*
X0008400D01*
X0008122Y0009457D02*
Y0002985D01*
X0010034Y0002874D02*
X0010140D01*
X0008023Y0002455D02*
Y0000300D01*
X0013764Y0004444D02*
Y0001695D01*
X0017575Y0002874D02*
X0018175D01*
X0013566Y0004246D02*
Y0001575D01*
X0016735Y0009903D02*
X0017145D01*
X0017629Y0005349D02*
X0018195D01*
X0021591Y0015446D02*
X0022360D01*
X0022760Y0003666D02*
X0022910D01*
X0017575Y0003369D02*
X0018175D01*
X0012887Y0003567D02*
X0016815D01*
X0017575Y0003505D02*
X0017645D01*
X0011290Y0000650D02*
Y0000300D01*
X0020199Y0002073D02*
Y0001984D01*
X0007627Y0001756D02*
Y0000300D01*
X0017575Y0003171D02*
X0018175D01*
X0018912Y0005555D02*
Y0004135D01*
X0017427Y0002715D02*
Y0001457D01*
Y0009841D02*
Y0008872D01*
X0015645Y0007856D02*
Y0007090D01*
X0009607Y0004243D02*
Y0003267D01*
X0010003Y0004344D02*
Y0003663D01*
X0007880Y0003765D02*
X0010105D01*
X0009508Y0002015D02*
Y0000300D01*
X0018845Y0004161D02*
X0018975D01*
X0018865Y0002973D02*
X0020084D01*
X0018813Y0002715D02*
Y0001687D01*
X0009310Y0002015D02*
Y0000300D01*
X0003260Y0004656D02*
X0008960D01*
X0017575Y0003468D02*
X0018175D01*
X0006445Y0012081D02*
X0008250D01*
X0005449Y0020173D02*
Y0018595D01*
X0005350Y0020173D02*
Y0018595D01*
X0005251Y0020173D02*
Y0018595D01*
X0006934Y0019065D02*
Y0018365D01*
X0003951Y0019505D02*
X0006465D01*
X0005548Y0021535D02*
Y0020903D01*
X0005053Y0023320D02*
Y0020903D01*
X0005746Y0021396D02*
Y0020903D01*
Y0020173D02*
Y0018595D01*
X0010178Y0018713D02*
X0010235D01*
X0008023Y0018381D02*
Y0018365D01*
X0007825Y0017015D02*
Y0016455D01*
X0014681Y0018515D02*
X0014940D01*
X0008489Y0013961D02*
X0008591D01*
X0008419Y0023320D02*
Y0021300D01*
X0008815Y0023320D02*
Y0020051D01*
X0009421Y0020657D02*
X0008652Y0019888D01*
X0007117Y0020099D02*
X0008863D01*
X0012502Y0019505D02*
X0012637D01*
X0010696Y0021324D02*
Y0020765D01*
X0009310Y0009050D02*
Y0007429D01*
X0008300Y0019406D02*
X0008545D01*
X0007415Y0019505D02*
X0008545D01*
X0007528Y0017015D02*
Y0016455D01*
X0008215Y0015515D02*
Y0015325D01*
X0008124Y0020396D02*
X0009160D01*
X0009680Y0020765D02*
X0012530D01*
X0013421Y0020297D02*
X0013743D01*
X0016041Y0012465D02*
Y0011972D01*
X0011473Y0019802D02*
X0011816D01*
X0011686Y0021512D02*
Y0021380D01*
X0008530Y0020792D02*
X0013248D01*
X0007358Y0023069D02*
X0011673D01*
X0007880Y0005844D02*
X0009862D01*
X0014080Y0015446D02*
X0014275D01*
X0011651Y0015050D02*
X0011945D01*
X0012181Y0012288D02*
Y0012165D01*
X0011420Y0020035D02*
X0012049D01*
X0012972Y0013142D02*
Y0012957D01*
X0010597Y0014830D02*
Y0010806D01*
X0007206Y0023267D02*
X0011787D01*
X0015450Y0016075D02*
X0015461D01*
X0016437Y0007133D02*
Y0007055D01*
X0009869Y0014357D02*
X0011511D01*
X0009263Y0001983D02*
X0020196D01*
X0014722Y0006933D02*
X0015488D01*
X0016436Y0007131D02*
X0019801D01*
X0018021Y0008716D02*
Y0006925D01*
X0017805Y0006933D02*
X0018445D01*
X0012300Y0001488D02*
X0012550D01*
X0022278Y0012669D02*
Y0012491D01*
X0021505Y0012919D02*
X0021894Y0012532D01*
X0018120Y0006495D02*
Y0006285D01*
X0012665Y0009171D02*
Y0008860D01*
X0016634Y0007329D02*
X0019755D01*
X0018445Y0006495D02*
Y0006295D01*
X0015348Y0011727D02*
Y0011330D01*
X0012676Y0009181D02*
Y0008793D01*
X0013298Y0009804D02*
X0015335D01*
X0011554Y0007626D02*
X0014736D01*
X0010762Y0008418D02*
X0011128D01*
X0009211Y0016294D02*
Y0014695D01*
X0018318Y0006495D02*
Y0006285D01*
X0019029Y0011982D02*
X0019845D01*
X0019399Y0012674D02*
X0019845D01*
X0011785Y0020800D02*
Y0020765D01*
X0009240Y0010299D02*
X0010555D01*
X0008875Y0013424D02*
X0008830Y0013380D01*
X0022575Y0020725D02*
Y0020115D01*
X0022377Y0020725D02*
Y0020023D01*
X0019330Y0020396D02*
X0021473D01*
X0022301Y0020099D02*
X0022559D01*
X0021684Y0019935D02*
Y0019603D01*
X0022197Y0020203D02*
X0022467Y0019933D01*
X0020384Y0019901D02*
X0021919D01*
X0022416Y0018416D02*
X0022428D01*
X0023031Y0015941D02*
X0023888D01*
X0020298Y0021258D02*
Y0020127D01*
X0022773Y0020725D02*
Y0020211D01*
X0022476Y0020725D02*
Y0019964D01*
X0022575Y0018773D02*
Y0018556D01*
X0022192Y0017921D02*
X0022423D01*
X0015942Y0017710D02*
Y0017534D01*
X0012414Y0019395D02*
X0012861D01*
X0014806Y0017624D02*
X0016045D01*
X0009240Y0010695D02*
X0010513D01*
X0014160Y0014325D02*
Y0014144D01*
X0016635Y0023055D02*
Y0022676D01*
X0014275Y0015650D02*
Y0015280D01*
X0016956Y0011586D02*
X0017550D01*
X0012245Y0014258D02*
X0014274D01*
X0009593Y0013466D02*
X0012314D01*
X0012774Y0022750D02*
Y0022715D01*
X0010498Y0007862D02*
Y0007435D01*
X0009409Y0013005D02*
Y0010056D01*
X0011945Y0015345D02*
Y0014740D01*
X0012405Y0017145D02*
X0012552D01*
X0003260Y0013854D02*
Y0000300D01*
X0014080Y0015370D02*
X0014170Y0015280D01*
X0012344Y0016564D02*
X0011190Y0015410D01*
X0011884Y0016606D02*
Y0016104D01*
X0012243Y0014216D02*
X0012676Y0013783D01*
X0008023Y0015325D02*
Y0014555D01*
X0009353Y0016436D02*
X0012216D01*
X0010597Y0010254D02*
Y0010061D01*
X0010071Y0017155D02*
X0008538Y0015622D01*
X0011552Y0014951D02*
X0011945D01*
X0011686Y0015085D02*
Y0014576D01*
X0003845Y0015545D02*
X0006725D01*
X0014556Y0000958D02*
Y0000300D01*
X0010003Y0017086D02*
Y0015364D01*
X0010201Y0009605D02*
Y0008980D01*
X0003845Y0014852D02*
X0009482D01*
X0011389Y0017155D02*
Y0015609D01*
X0010696Y0023320D02*
Y0022145D01*
X0011092Y0023320D02*
Y0021749D01*
X0019803Y0006505D02*
Y0006295D01*
X0012229Y0014357D02*
X0012246D01*
X0022202Y0020198D02*
X0022719D01*
X0012360Y0014325D02*
X0014341D01*
X0022425Y0007131D02*
X0022910D01*
X0023595Y0019307D02*
X0023855D01*
X0020288Y0019703D02*
X0022117D01*
X0023215Y0019985D02*
X0023534Y0019666D01*
X0013403Y0022673D02*
X0013567D01*
X0013269Y0022750D02*
Y0022715D01*
X0022674Y0018729D02*
Y0018600D01*
X0022872Y0018714D02*
Y0018615D01*
X0023169Y0020725D02*
Y0020019D01*
X0023595Y0019520D02*
Y0018747D01*
X0023367Y0018434D02*
Y0017913D01*
X0023095Y0018812D02*
X0023165D01*
X0022377Y0018377D02*
Y0018313D01*
X0022145Y0019675D02*
Y0019469D01*
X0021783Y0020725D02*
Y0020652D01*
X0023565Y0018641D02*
Y0017764D01*
X0020001Y0005610D02*
Y0004745D01*
X0020100Y0004012D02*
Y0003336D01*
X0020397Y0007024D02*
Y0006935D01*
X0021822Y0006537D02*
X0022222D01*
X0020891Y0007032D02*
X0020909D01*
X0020892D02*
Y0006935D01*
X0016930Y0007626D02*
X0019644D01*
X0016734Y0012465D02*
Y0012184D01*
X0021486Y0006989D02*
Y0006935D01*
X0016831Y0007527D02*
X0019743D01*
X0019605Y0007665D02*
Y0006935D01*
X0021288Y0006958D02*
Y0006935D01*
X0015644Y0000993D02*
X0017616D01*
X0015348Y0005889D02*
Y0005615D01*
X0015753Y0001587D02*
X0017507D01*
X0014220Y0001389D02*
X0014230D01*
X0020664Y0001587D02*
X0020875D01*
X0019968Y0001092D02*
X0020807D01*
X0020397Y0001261D02*
Y0000300D01*
X0020496Y0001307D02*
Y0000300D01*
X0009180Y0001860D02*
Y0000650D01*
X0011550Y0001785D02*
X0019953D01*
X0019704Y0000919D02*
Y0000300D01*
X0019011Y0001121D02*
Y0000300D01*
X0022821Y0007527D02*
X0022910D01*
X0020627Y0001785D02*
X0020967D01*
X0019330Y0020891D02*
X0020665D01*
X0017724Y0023055D02*
Y0022850D01*
X0018516Y0023055D02*
Y0022110D01*
X0010300Y0005790D02*
Y0005471D01*
X0022278Y0009070D02*
Y0008957D01*
X0019330Y0010794D02*
X0019845D01*
X0017130Y0011760D02*
Y0010506D01*
X0007880Y0004161D02*
X0010460D01*
X0019308Y0012584D02*
Y0011670D01*
X0007231Y0003702D02*
Y0003618D01*
X0007880Y0004359D02*
X0008994D01*
X0009409Y0004252D02*
Y0003425D01*
X0019330Y0011289D02*
X0019845D01*
X0010489Y0005349D02*
X0010511D01*
X0009873Y0005448D02*
X0010127D01*
X0019308Y0006505D02*
Y0006285D01*
X0009805Y0004210D02*
Y0003465D01*
X0009112Y0004240D02*
Y0003425D01*
X0010696Y0005790D02*
Y0005470D01*
X0016735Y0010596D02*
X0017645D01*
X0009508Y0006201D02*
Y0005344D01*
X0008960Y0005185D02*
Y0004495D01*
X0009805Y0008555D02*
Y0007430D01*
X0008830Y0011982D02*
X0011997D01*
X0008960Y0007145D02*
Y0006455D01*
X0007615Y0007428D02*
X0009185D01*
X0019330Y0009606D02*
X0019402D01*
X0009904Y0008456D02*
Y0007391D01*
X0010498Y0005790D02*
Y0005336D01*
X0009474Y0007329D02*
X0009526D01*
X0007231Y0006412D02*
Y0006295D01*
X0019330Y0010200D02*
X0019816D01*
X0003260Y0006339D02*
X0008984D01*
X0006356Y0006438D02*
X0007176D01*
X0009974Y0007329D02*
X0010026D01*
X0009904Y0005819D02*
Y0005431D01*
X0018097Y0008792D02*
X0016360Y0007055D01*
X0013170Y0001081D02*
Y0000300D01*
X0009112Y0009248D02*
Y0007400D01*
X0011587Y0017155D02*
Y0015807D01*
X0015942Y0012448D02*
Y0012178D01*
X0010597Y0021423D02*
Y0020765D01*
X0011884Y0012377D02*
Y0011868D01*
X0006319Y0008418D02*
X0006930D01*
X0015443Y0016139D02*
X0015525D01*
X0003845Y0015050D02*
X0009680D01*
X0013071Y0017536D02*
Y0017150D01*
X0012972Y0017530D02*
Y0017150D01*
X0006556Y0009012D02*
X0006930D01*
X0007880Y0008616D02*
X0009744D01*
X0011884Y0015283D02*
Y0014625D01*
X0012605Y0017150D02*
X0013295D01*
X0007880Y0008913D02*
X0009447D01*
X0015516Y0016733D02*
X0015695D01*
X0011983Y0016540D02*
Y0016203D01*
X0014637Y0018713D02*
X0014940D01*
X0016125Y0016337D02*
X0016517D01*
X0010366Y0008814D02*
X0010952D01*
X0014274Y0016535D02*
X0014334D01*
X0015447Y0016643D02*
Y0016577D01*
X0015544Y0016337D02*
X0015695D01*
X0016034Y0016040D02*
X0016220D01*
X0011975Y0018020D02*
X0012404D01*
X0012874Y0003553D02*
Y0001705D01*
X0015447Y0016143D02*
Y0016077D01*
X0014069Y0016238D02*
X0014302D01*
X0014275Y0015650D02*
X0014365D01*
X0008118Y0021485D02*
X0010535D01*
X0005661Y0012340D02*
Y0012296D01*
X0016735Y0010695D02*
X0017645D01*
X0016263Y0010893D02*
X0017645D01*
X0017260Y0011890D02*
X0016100Y0010730D01*
X0017630Y0005455D02*
X0017805D01*
X0011332Y0019545D02*
X0011820D01*
X0016758Y0011388D02*
X0017645D01*
X0008957Y0016040D02*
X0011820D01*
X0015935Y0015941D02*
X0016121D01*
X0007397Y0021881D02*
X0010139D01*
X0009607Y0013261D02*
Y0010183D01*
X0011785Y0013885D02*
Y0012806D01*
X0012379Y0012379D02*
Y0012363D01*
X0022691Y0016634D02*
X0023045D01*
X0012399Y0014060D02*
X0014076D01*
X0015040Y0017150D02*
X0015255D01*
X0017602Y0010497D02*
X0017645D01*
X0016735Y0010002D02*
X0017048D01*
X0020001Y0006958D02*
Y0006935D01*
X0012478Y0012519D02*
Y0012462D01*
X0019330Y0021320D02*
Y0020200D01*
X0019405Y0020210D02*
X0020095D01*
X0020215Y0022541D02*
Y0021430D01*
X0020295Y0019210D02*
X0021355D01*
X0019330Y0021287D02*
X0020269D01*
X0017031Y0023055D02*
Y0022660D01*
X0018615Y0023055D02*
Y0022098D01*
X0013071Y0005530D02*
Y0004572D01*
X0022650Y0006240D02*
X0022910D01*
X0020100Y0022656D02*
Y0020210D01*
X0020001Y0022755D02*
Y0020210D01*
X0023830Y0020296D02*
Y0019720D01*
X0013170Y0009676D02*
Y0006060D01*
X0018175Y0011425D02*
Y0008980D01*
X0012972Y0009478D02*
Y0006010D01*
X0022179Y0016320D02*
Y0014555D01*
X0014160Y0006371D02*
Y0005090D01*
X0013301Y0017624D02*
X0014274D01*
X0013482Y0017822D02*
X0015168D01*
X0005477Y0012674D02*
X0008250D01*
X0013725Y0018110D02*
X0014415D01*
X0012180Y0006636D02*
X0013746D01*
X0008830Y0013380D02*
Y0011820D01*
X0013764Y0020275D02*
Y0020190D01*
X0015985Y0009111D02*
X0016085D01*
X0013725Y0020190D02*
X0013863D01*
X0013159Y0019406D02*
X0013341D01*
X0012774Y0019423D02*
Y0019395D01*
X0013368Y0017677D02*
Y0017140D01*
X0011392Y0019604D02*
X0011803D01*
X0003260Y0012971D02*
X0004145D01*
X0003260Y0013169D02*
X0003947D01*
X0016635Y0012465D02*
Y0012085D01*
X0005575Y0012576D02*
X0008250D01*
X0004162Y0023320D02*
Y0020748D01*
X0003260Y0012872D02*
X0004245D01*
X0016045Y0017645D02*
Y0017510D01*
X0003845Y0019399D02*
Y0014301D01*
X0012744Y0017327D02*
X0014166D01*
X0007924Y0013425D02*
Y0011829D01*
X0012370Y0004755D02*
X0013255D01*
X0006445Y0018515D02*
X0007625D01*
X0003865Y0023320D02*
Y0020451D01*
X0013368Y0020671D02*
Y0020353D01*
X0008594Y0017129D02*
X0009013D01*
X0011884Y0022649D02*
Y0022053D01*
X0010761Y0022079D02*
X0012014D01*
X0022278Y0013605D02*
Y0013491D01*
X0019330Y0010398D02*
X0019845D01*
X0019330Y0011487D02*
X0019845D01*
X0018975Y0005175D02*
X0019805D01*
X0020100Y0005059D02*
Y0004728D01*
X0018975Y0005175D02*
Y0004345D01*
X0019616D01*
X0018975Y0003505D02*
X0019805D01*
X0016845Y0006425D02*
Y0006225D01*
X0009013Y0017548D02*
Y0017129D01*
X0018845Y0005175D02*
Y0004345D01*
X0017328Y0002715D02*
Y0000300D01*
X0009848Y0016931D02*
X0011769D01*
X0017922Y0003879D02*
Y0001677D01*
X0019805Y0003567D02*
X0022910D01*
X0017645Y0004754D02*
X0017786Y0004613D01*
X0014623Y0006834D02*
X0015389D01*
X0018015Y0005175D02*
Y0004560D01*
X0015880Y0004359D02*
X0015974D01*
X0017645Y0005175D02*
Y0004754D01*
X0016815Y0004051D02*
Y0003505D01*
X0022278Y0003792D02*
Y0003385D01*
X0015843Y0008055D02*
Y0007288D01*
X0016975Y0007125D02*
X0017805D01*
X0016975Y0006295D02*
X0017805D01*
X0013467Y0005678D02*
Y0004968D01*
X0016975Y0006285D02*
X0017805D01*
Y0005455D01*
X0016735Y0008616D02*
X0017171D01*
X0016975Y0006285D02*
Y0005455D01*
X0011884Y0020800D02*
Y0020765D01*
X0018975Y0004335D02*
Y0004135D01*
X0010696Y0014830D02*
Y0010872D01*
X0009310Y0012971D02*
X0011921D01*
X0003260Y0000894D02*
X0008340D01*
X0008320Y0002455D02*
Y0000300D01*
X0003260Y0009408D02*
X0008952D01*
X0021585Y0013605D02*
Y0013217D01*
X0009749Y0016832D02*
X0011768D01*
X0008215Y0014456D02*
X0009086D01*
X0003260Y0001092D02*
X0008340D01*
X0008400Y0002015D02*
X0008522D01*
X0003260Y0001191D02*
X0008340D01*
X0011884Y0000963D02*
Y0000300D01*
X0005647Y0001695D02*
Y0000300D01*
X0006364Y0002775D02*
X0007151D01*
X0007924Y0009431D02*
Y0003032D01*
X0008340Y0001930D02*
X0008481D01*
X0020865Y0002082D02*
X0021211D01*
X0010795Y0009652D02*
Y0008386D01*
X0010909Y0009765D02*
X0010812Y0009668D01*
X0010006Y0014555D02*
X0011652D01*
X0010498Y0021522D02*
Y0020765D01*
X0020991Y0006505D02*
Y0003080D01*
X0020903Y0011586D02*
X0021232D01*
X0020951Y0011784D02*
X0021033D01*
X0021585Y0011233D02*
Y0011217D01*
X0021505Y0013862D02*
X0021565D01*
X0021850Y0012576D02*
X0022430D01*
X0022179Y0010626D02*
Y0010020D01*
X0003260Y0005646D02*
X0005636D01*
X0023664Y0016575D02*
Y0015670D01*
X0011355Y0021485D02*
X0011703D01*
X0020275Y0011289D02*
X0021529D01*
X0021288Y0020725D02*
Y0019210D01*
X0019506Y0007764D02*
Y0006935D01*
X0018615Y0011575D02*
Y0007125D01*
X0015080Y0011586D02*
X0015500D01*
X0018516Y0012465D02*
Y0012454D01*
X0021411Y0007032D02*
X0021429D01*
X0021783Y0006518D02*
Y0003135D01*
X0020100Y0005709D02*
Y0005481D01*
X0016164Y0010794D02*
X0017645D01*
X0018318Y0011872D02*
Y0006925D01*
X0020694Y0003746D02*
Y0003396D01*
X0022029Y0006735D02*
X0022236D01*
X0020694Y0005975D02*
Y0005515D01*
X0022435Y0008814D02*
X0022680D01*
X0021585Y0006947D02*
Y0006935D01*
X0021565Y0013605D02*
X0022360D01*
X0023299Y0019901D02*
X0023830D01*
X0022137Y0020495D02*
X0023631D01*
X0024710Y0019906D02*
Y0019720D01*
X0017055Y0011685D02*
X0017535D01*
X0020298Y0011381D02*
Y0010589D01*
X0020397Y0011346D02*
Y0010543D01*
X0019704Y0012980D02*
Y0009980D01*
X0024707Y0019109D02*
X0024835D01*
X0018175Y0009705D02*
X0018750D01*
X0021505Y0015050D02*
X0022360D01*
X0022910Y0002992D02*
Y0001968D01*
X0019330Y0010101D02*
X0019838D01*
X0008255Y0014195D02*
X0008535Y0013915D01*
X0018625Y0012385D02*
X0019244Y0011766D01*
X0010280Y0014830D02*
X0009885Y0014434D01*
X0017805Y0005646D02*
X0018075D01*
X0006934Y0002117D02*
Y0000300D01*
X0007675Y0003567D02*
X0009907D01*
X0006538Y0002986D02*
Y0002645D01*
X0007880Y0004260D02*
X0009080D01*
X0006586Y0005448D02*
X0007159D01*
X0008419Y0002015D02*
Y0001930D01*
X0007880Y0003171D02*
X0008400D01*
X0011290Y0002015D02*
Y0001930D01*
X0007971Y0002985D02*
X0008400D01*
X0009904Y0002743D02*
Y0000300D01*
X0017328Y0009836D02*
Y0008773D01*
X0009580Y0003425D02*
Y0003240D01*
X0010300Y0008060D02*
Y0007431D01*
X0019845Y0013121D02*
Y0010377D01*
X0020298Y0004912D02*
Y0004584D01*
X0011790Y0002478D02*
X0020232D01*
X0009580Y0003270D02*
X0009610D01*
X0007884Y0003072D02*
X0008400D01*
X0010315Y0007428D02*
X0010460D01*
X0013930Y0006141D02*
X0014695D01*
X0010460Y0007435D02*
Y0007345D01*
X0011450Y0003765D02*
X0012265D01*
X0007784Y0006141D02*
X0009559D01*
X0009211Y0009149D02*
Y0007432D01*
X0007827Y0006636D02*
X0008960D01*
X0010894Y0009749D02*
Y0008287D01*
X0007634Y0006438D02*
X0008961D01*
X0009013Y0006288D02*
Y0005352D01*
X0010003Y0008357D02*
Y0007296D01*
X0018714Y0023055D02*
Y0022035D01*
X0007841Y0006042D02*
X0009658D01*
X0010870Y0005630D02*
Y0005449D01*
X0010030Y0005790D02*
X0010710D01*
X0009409Y0008951D02*
Y0007388D01*
X0007682Y0006240D02*
X0009056D01*
X0018732Y0012279D02*
X0019845D01*
X0014744Y0023055D02*
X0019701D01*
X0013566Y0001085D02*
Y0000300D01*
X0011389Y0019600D02*
Y0019545D01*
X0011587Y0002430D02*
Y0001364D01*
X0014288Y0016733D02*
X0014304D01*
X0012280Y0018131D02*
Y0017896D01*
X0007330Y0021769D02*
Y0020811D01*
X0012280Y0001134D02*
Y0000300D01*
X0013665Y0020374D02*
Y0020184D01*
X0016009Y0012081D02*
X0016630D01*
X0013438Y0019604D02*
X0013519D01*
X0014844Y0018924D02*
X0014675Y0018755D01*
X0018845Y0003705D02*
Y0003525D01*
X0013119Y0019395D02*
X0013330D01*
X0013368Y0019527D02*
Y0019433D01*
X0013497Y0019703D02*
X0013512D01*
X0016560Y0011190D02*
X0017645D01*
X0009548Y0014098D02*
X0009156Y0013705D01*
X0016536Y0016385D02*
Y0016356D01*
X0014877Y0017525D02*
X0015825D01*
X0015400Y0017710D02*
X0015980D01*
X0003845Y0019109D02*
X0006465D01*
X0004484Y0013664D02*
X0006725D01*
X0018912Y0012465D02*
Y0012098D01*
X0009223Y0011388D02*
X0011404D01*
X0016536Y0007232D02*
Y0007055D01*
X0018225Y0011487D02*
X0018703D01*
X0017260Y0011890D02*
X0017593D01*
X0010168Y0009012D02*
X0011061D01*
X0009013Y0013042D02*
Y0011637D01*
X0010861Y0008319D02*
X0011589D01*
X0010663Y0008517D02*
X0011019D01*
X0011512Y0008418D02*
X0011588D01*
X0009240Y0011290D02*
Y0009940D01*
X0010564Y0008616D02*
X0010966D01*
X0017823Y0008519D02*
Y0006925D01*
X0016932Y0007628D02*
Y0006925D01*
X0017645Y0003864D02*
X0018015D01*
X0018845Y0003705D02*
X0018975D01*
X0017575Y0002973D02*
X0018175D01*
X0017575Y0003072D02*
X0018175D01*
X0017645Y0003666D02*
X0018015D01*
X0011389Y0014841D02*
Y0011373D01*
X0017031Y0002715D02*
Y0000300D01*
X0006445Y0010596D02*
X0006671D01*
X0012824Y0008715D02*
X0015335D01*
X0018180Y0004345D02*
X0018845D01*
X0020315Y0004557D02*
X0022369D01*
X0018615Y0000965D02*
Y0000300D01*
X0018625Y0005555D02*
Y0005175D01*
X0018745Y0005646D02*
X0018815D01*
X0014905Y0019336D02*
Y0019070D01*
Y0019208D02*
X0014941D01*
X0008759Y0015842D02*
X0011622D01*
X0007443Y0021980D02*
X0010043D01*
X0014457Y0006668D02*
Y0005090D01*
X0017229Y0011859D02*
Y0010561D01*
X0012874Y0020800D02*
Y0020573D01*
X0012082Y0022617D02*
Y0022146D01*
X0012280Y0020800D02*
Y0020765D01*
X0013063Y0020495D02*
X0013545D01*
X0013466Y0019531D02*
X0013330Y0019395D01*
X0010795Y0021225D02*
Y0020765D01*
X0008716Y0017251D02*
Y0016832D01*
X0011256Y0021584D02*
X0011653D01*
X0009211Y0017746D02*
Y0017327D01*
X0010498Y0023320D02*
Y0022975D01*
X0007524Y0022277D02*
X0008975D01*
X0008617Y0023320D02*
Y0019847D01*
X0009904Y0023320D02*
Y0022975D01*
X0011686Y0020800D02*
Y0020765D01*
X0010993Y0021027D02*
Y0020765D01*
X0013315Y0020396D02*
X0013644D01*
X0010894Y0021126D02*
Y0020765D01*
X0007412Y0022970D02*
X0011666D01*
X0010399Y0023320D02*
Y0022975D01*
X0010300Y0023320D02*
Y0022975D01*
X0010201Y0023320D02*
Y0022975D01*
X0010102Y0023320D02*
Y0022975D01*
X0018175Y0010695D02*
X0018750D01*
X0015490Y0017030D02*
X0015558D01*
X0015843Y0011587D02*
Y0011293D01*
X0008830Y0011883D02*
X0011899D01*
X0015437Y0016634D02*
X0015695D01*
X0015737Y0015743D02*
X0015923D01*
X0016338Y0016385D02*
Y0016158D01*
X0012774Y0003454D02*
Y0001687D01*
X0015535Y0016436D02*
X0015695D01*
X0008548Y0020990D02*
X0011030D01*
X0008548Y0020891D02*
X0011129D01*
X0003260Y0012476D02*
X0004642D01*
X0014294Y0016634D02*
X0014383D01*
X0015744Y0015750D02*
Y0015564D01*
X0015695Y0016853D02*
Y0016309D01*
X0020595Y0020961D02*
Y0019210D01*
X0019605Y0022028D02*
Y0020210D01*
X0015900Y0008360D02*
X0015985D01*
X0015587Y0011190D02*
X0015739D01*
X0009904Y0022145D02*
Y0020765D01*
X0008492Y0021188D02*
X0010832D01*
X0010860Y0021980D02*
X0011761D01*
X0010645Y0022975D02*
Y0022195D01*
X0014732Y0018812D02*
X0014940D01*
X0013083Y0013367D02*
X0013383D01*
X0009706Y0023320D02*
Y0022975D01*
X0008716Y0009649D02*
Y0003425D01*
X0009949Y0010101D02*
X0010637D01*
X0009871Y0009309D02*
X0011007D01*
X0010300Y0009605D02*
Y0008881D01*
X0009310Y0004211D02*
Y0003425D01*
X0006835Y0016863D02*
Y0016455D01*
X0009706Y0008654D02*
Y0007432D01*
X0010007Y0009605D02*
X0010660D01*
X0009772Y0009408D02*
X0011009D01*
X0007880Y0009309D02*
X0009051D01*
X0009240Y0010200D02*
X0010673D01*
X0011092Y0020928D02*
Y0020765D01*
X0007429Y0021947D02*
Y0018365D01*
X0012379Y0008114D02*
Y0006139D01*
X0011092Y0008443D02*
Y0008089D01*
X0010007Y0010035D02*
X0010571D01*
X0008530Y0021089D02*
X0010931D01*
X0022840Y0015751D02*
Y0015726D01*
X0009906Y0009507D02*
X0011039D01*
X0012676Y0003355D02*
Y0001638D01*
X0019902Y0004005D02*
Y0001568D01*
X0010498Y0002015D02*
Y0000300D01*
X0009580Y0002379D02*
X0010140D01*
X0010597Y0002015D02*
Y0000300D01*
X0013830Y0004510D02*
X0011835Y0002515D01*
X0015744Y0017710D02*
Y0017496D01*
X0013863Y0004510D02*
Y0001705D01*
X0024460Y0016763D02*
Y0016557D01*
X0013566Y0005777D02*
Y0005052D01*
X0012945Y0008517D02*
X0015335D01*
X0016338Y0004298D02*
Y0000300D01*
X0015150Y0003985D02*
Y0001509D01*
X0012370Y0004359D02*
X0012859D01*
X0012181Y0003985D02*
Y0003681D01*
X0016239Y0010869D02*
Y0010730D01*
X0018175Y0011190D02*
X0018750D01*
X0012576Y0017190D02*
Y0017149D01*
X0008426Y0015545D02*
X0011325D01*
X0012774Y0005530D02*
Y0004275D01*
X0013764Y0000965D02*
Y0000300D01*
X0012938Y0008319D02*
X0015420D01*
X0013467Y0004147D02*
Y0000300D01*
X0011460Y0021380D02*
X0011814D01*
X0008830Y0012180D02*
X0012195D01*
X0011191Y0017155D02*
Y0015411D01*
X0010894Y0014830D02*
Y0010902D01*
X0003845Y0015644D02*
X0006725D01*
X0003845Y0015743D02*
X0006725D01*
X0023790Y0017228D02*
X0023835D01*
X0009607Y0008753D02*
Y0007397D01*
X0008221Y0017015D02*
Y0016337D01*
X0003845Y0015842D02*
X0006725D01*
X0009904Y0016987D02*
Y0015274D01*
X0003845Y0015941D02*
X0006725D01*
X0003845Y0016040D02*
X0006725D01*
X0003845Y0016139D02*
X0006725D01*
X0003845Y0016238D02*
X0006725D01*
X0012803Y0009309D02*
X0015335D01*
X0020362Y0019307D02*
X0021375D01*
X0019506Y0023055D02*
Y0022900D01*
X0019803Y0022123D02*
Y0020210D01*
X0016334Y0022475D02*
X0016466D01*
X0009138Y0014508D02*
X0008545Y0013915D01*
X0005634Y0012476D02*
X0008250D01*
X0014795Y0021089D02*
X0015165D01*
X0024060Y0019720D02*
Y0019547D01*
X0023401Y0020725D02*
X0023830Y0020296D01*
X0014795Y0021188D02*
X0015165D01*
X0016338Y0023055D02*
Y0022471D01*
X0013170Y0020800D02*
Y0020470D01*
X0009188Y0017723D02*
X0009607D01*
Y0017934D02*
Y0017723D01*
X0007231Y0019065D02*
Y0018365D01*
X0010077Y0018416D02*
X0010235D01*
X0015942Y0023055D02*
Y0022865D01*
X0014970Y0001389D02*
X0015110D01*
X0013962Y0022440D02*
Y0021985D01*
X0016235Y0022574D02*
X0016519D01*
X0014061Y0022440D02*
Y0021985D01*
X0011191Y0020841D02*
Y0020765D01*
X0013269Y0020770D02*
Y0020425D01*
X0006445Y0016535D02*
X0008419D01*
X0012760Y0022715D02*
X0013260D01*
X0008990Y0017525D02*
X0009409D01*
X0011454Y0021386D02*
X0011805D01*
X0011389Y0023320D02*
Y0021452D01*
X0013764Y0022482D02*
Y0022320D01*
X0006439Y0016494D02*
Y0012296D01*
X0011785Y0023320D02*
Y0023264D01*
X0006932Y0016931D02*
X0008815D01*
X0010645Y0022195D02*
X0011460Y0021380D01*
X0013467Y0017797D02*
Y0017093D01*
X0011488Y0002430D02*
Y0001930D01*
X0009551Y0016634D02*
X0011857D01*
X0010071Y0017155D02*
X0011885D01*
X0008660Y0015743D02*
X0011523D01*
X0009155Y0016238D02*
X0012018D01*
X0009287Y0017822D02*
X0009670D01*
X0009452Y0016535D02*
X0011992D01*
X0011785Y0017155D02*
Y0016999D01*
Y0016761D02*
Y0016005D01*
X0011422Y0014852D02*
X0011945D01*
X0013269Y0017605D02*
Y0017150D01*
X0013170Y0017560D02*
Y0017150D01*
X0013610Y0022475D02*
X0013775D01*
X0016845Y0006240D02*
X0016975D01*
X0017823Y0003865D02*
Y0001702D01*
X0018745Y0005844D02*
X0018815D01*
X0016845Y0005646D02*
X0016975D01*
X0017805Y0006042D02*
X0018075D01*
X0017630Y0005455D02*
Y0005370D01*
X0017805Y0005547D02*
X0018195D01*
X0010201Y0014750D02*
Y0010035D01*
X0009240Y0010101D02*
X0009451D01*
X0017645Y0004953D02*
X0018015D01*
X0017645Y0005052D02*
X0018015D01*
X0017645Y0005151D02*
X0018015D01*
X0012392Y0003072D02*
X0016885D01*
X0012491Y0003171D02*
X0016885D01*
X0018845Y0003666D02*
X0018975D01*
X0016845Y0005547D02*
X0016975D01*
X0007330Y0017015D02*
Y0016455D01*
X0016437Y0004352D02*
Y0000300D01*
X0017805Y0006438D02*
X0018445D01*
X0006340Y0007429D02*
Y0007261D01*
X0015740Y0006310D02*
X0016015Y0006034D01*
X0018975Y0004335D02*
X0019617D01*
X0011983Y0018202D02*
Y0017885D01*
X0017328Y0008024D02*
Y0007125D01*
X0017229Y0007925D02*
Y0007125D01*
X0012432Y0018048D02*
X0012269Y0017885D01*
X0016734Y0007430D02*
Y0007055D01*
X0016635Y0007331D02*
Y0007055D01*
X0017130Y0007826D02*
Y0007125D01*
X0017031Y0007727D02*
Y0007125D01*
X0017526Y0008222D02*
Y0007125D01*
X0017645Y0009090D02*
X0015070Y0006515D01*
X0015348Y0017715D02*
Y0017134D01*
X0014103Y0015347D02*
X0014275D01*
X0018845Y0004335D02*
Y0004135D01*
X0017645Y0003567D02*
X0018015D01*
X0008518Y0015603D02*
Y0013932D01*
X0017136Y0005455D02*
X0017111Y0005430D01*
X0014259Y0017111D02*
Y0016819D01*
X0012874Y0017457D02*
Y0017150D01*
X0012948Y0017532D02*
X0012678Y0017262D01*
X0012676Y0017259D02*
Y0017150D01*
X0014896Y0019010D02*
X0014940D01*
X0012843Y0017426D02*
X0014171D01*
X0012941Y0017525D02*
X0014203D01*
X0011975Y0017885D02*
X0012269D01*
X0014259Y0016501D02*
Y0015280D01*
X0009947Y0017030D02*
X0011796D01*
X0007415Y0019208D02*
X0007499D01*
X0007033Y0020074D02*
Y0020015D01*
X0022278Y0016321D02*
Y0014555D01*
X0024835Y0019781D02*
Y0018934D01*
X0011488Y0020800D02*
Y0020765D01*
X0006934Y0021401D02*
Y0021015D01*
X0006835Y0021350D02*
Y0021003D01*
X0023526Y0016436D02*
X0023928D01*
X0023120Y0016710D02*
X0022430Y0016020D01*
X0012676Y0020800D02*
Y0020735D01*
X0007413Y0020495D02*
X0007650D01*
X0006736Y0021310D02*
Y0020969D01*
X0003370Y0023320D02*
Y0019956D01*
X0023606Y0017723D02*
X0024216D01*
X0013524Y0017921D02*
X0015069D01*
X0006043Y0021277D02*
Y0020903D01*
X0006637Y0021279D02*
Y0020905D01*
X0003845Y0019307D02*
X0006465D01*
X0003260Y0020198D02*
X0003612D01*
X0003260Y0021782D02*
X0005332D01*
X0004558Y0023320D02*
Y0020903D01*
X0005647Y0020173D02*
Y0018595D01*
X0004050Y0019604D02*
X0006465D01*
X0003766Y0023320D02*
Y0020352D01*
X0003260Y0013367D02*
X0003748D01*
X0003568Y0023320D02*
Y0020154D01*
X0003667Y0023320D02*
Y0020253D01*
X0005350Y0016494D02*
Y0012802D01*
X0012576Y0013060D02*
Y0012561D01*
X0003845Y0016832D02*
X0004147D01*
X0003469Y0023320D02*
Y0020055D01*
X0003260Y0020396D02*
X0003810D01*
X0004147Y0012296D02*
X0004823D01*
X0003260Y0001884D02*
X0005625D01*
X0004657Y0012462D02*
Y0012296D01*
X0005251Y0016494D02*
Y0012900D01*
X0004558Y0016494D02*
Y0013591D01*
X0005449Y0016494D02*
Y0012703D01*
X0003260Y0021683D02*
X0005405D01*
X0006439Y0021245D02*
Y0020903D01*
X0020319Y0019604D02*
X0021690D01*
X0020595Y0004944D02*
Y0004474D01*
X0006340Y0020173D02*
Y0018595D01*
X0018975Y0003705D02*
Y0003505D01*
X0014641Y0018218D02*
X0014940D01*
X0015150Y0017839D02*
Y0017150D01*
X0014940Y0019190D02*
Y0018170D01*
X0014693Y0018317D02*
X0014940D01*
X0014160Y0004510D02*
Y0001540D01*
X0004261Y0023320D02*
Y0020839D01*
X0012568Y0006042D02*
X0013152D01*
X0004385Y0013763D02*
X0006725D01*
X0009310Y0013859D02*
Y0013708D01*
X0004286Y0013862D02*
X0006725D01*
X0004186Y0013961D02*
X0006725D01*
X0004087Y0014060D02*
X0006725D01*
X0005378Y0012774D02*
X0008250D01*
X0003260D02*
X0004344D01*
X0003988Y0014159D02*
X0006725D01*
X0010993Y0017155D02*
Y0015410D01*
X0003888Y0014258D02*
X0006725D01*
X0003964Y0019518D02*
Y0014183D01*
X0009409Y0013958D02*
Y0013675D01*
X0007132Y0013425D02*
Y0011576D01*
X0008830Y0013070D02*
X0008979D01*
X0021664Y0015644D02*
X0022360D01*
X0009607Y0016690D02*
Y0014977D01*
X0003260Y0010398D02*
X0004147D01*
X0008215Y0014555D02*
Y0014228D01*
X0006445Y0010497D02*
X0006678D01*
X0006445Y0011784D02*
X0007540D01*
X0005279Y0012872D02*
X0008250D01*
X0006445Y0012279D02*
X0008250D01*
X0006736Y0013425D02*
Y0011021D01*
X0009240Y0011091D02*
X0011107D01*
X0008293Y0009507D02*
X0008853D01*
X0013595Y0010101D02*
X0015335D01*
X0009278Y0009903D02*
X0009334D01*
X0012049Y0007131D02*
X0014241D01*
X0011191Y0008388D02*
Y0007990D01*
X0009920Y0004260D02*
X0010080D01*
X0009607Y0014109D02*
Y0013419D01*
X0011983Y0022619D02*
Y0022074D01*
X0008215Y0014357D02*
X0008987D01*
X0012660Y0008814D02*
X0015335D01*
X0010993Y0009647D02*
Y0008923D01*
X0012181Y0008067D02*
Y0006122D01*
X0012180Y0006800D02*
Y0006122D01*
X0011059Y0008121D02*
X0011680D01*
X0010460Y0007435D02*
X0010925D01*
X0007750Y0007527D02*
X0010833D01*
X0011686Y0008114D02*
Y0007495D01*
X0007502Y0008319D02*
X0010041D01*
X0019795Y0013070D02*
X0019845D01*
X0011450Y0003985D02*
X0012370D01*
X0007231Y0008379D02*
Y0008295D01*
X0013308Y0005547D02*
X0014920D01*
X0013962Y0010468D02*
Y0006852D01*
X0022899Y0005943D02*
X0022910D01*
X0010399Y0009605D02*
Y0008782D01*
X0013962Y0014325D02*
Y0013946D01*
X0013863Y0010369D02*
Y0006753D01*
X0016833Y0007529D02*
Y0007055D01*
X0012478Y0005434D02*
Y0003978D01*
X0013170Y0014325D02*
Y0013155D01*
X0009734Y0009446D02*
X0012084Y0007096D01*
X0012082Y0008015D02*
Y0007099D01*
X0012874Y0005530D02*
Y0004374D01*
X0010993Y0008557D02*
Y0008188D01*
X0014655Y0011161D02*
Y0007545D01*
X0013001Y0009507D02*
X0015335D01*
X0015883Y0008121D02*
X0016676D01*
X0015712Y0007923D02*
X0016478D01*
X0020777Y0006141D02*
X0022910D01*
X0020991Y0020725D02*
Y0019210D01*
X0012774Y0009280D02*
Y0008751D01*
X0020892Y0006505D02*
Y0004292D01*
X0014754Y0011260D02*
Y0007644D01*
X0011950Y0007230D02*
X0014340D01*
X0020372Y0019505D02*
X0021506D01*
X0017031Y0011661D02*
Y0010391D01*
X0019506Y0022020D02*
Y0020210D01*
X0019308Y0023055D02*
Y0022846D01*
X0021585Y0020725D02*
Y0020564D01*
X0016019Y0011784D02*
X0016333D01*
X0015348Y0008360D02*
Y0008238D01*
X0014457Y0010963D02*
Y0007347D01*
X0018658Y0022079D02*
X0019300D01*
X0014358Y0010864D02*
Y0007248D01*
X0016437Y0011067D02*
Y0010730D01*
X0012099Y0008022D02*
X0015132D01*
X0018710Y0022040D02*
X0019259Y0021490D01*
X0019330Y0020792D02*
X0020764D01*
X0003845Y0015248D02*
X0009878D01*
X0016437Y0023055D02*
Y0022372D01*
X0013368Y0005581D02*
Y0004869D01*
X0015165Y0021985D02*
X0015358D01*
X0016136Y0022673D02*
X0016630D01*
X0014795Y0021485D02*
X0015165D01*
X0014795Y0021584D02*
X0015165D01*
X0016041Y0023055D02*
Y0022768D01*
X0015744Y0023055D02*
Y0022920D01*
X0003845Y0016337D02*
X0006725D01*
X0007231Y0017015D02*
Y0016455D01*
X0015546Y0023055D02*
Y0022920D01*
X0006934Y0016933D02*
Y0016455D01*
X0015514Y0007725D02*
X0016280D01*
X0007033Y0017015D02*
Y0016455D01*
X0008459Y0017030D02*
X0008914D01*
X0010235Y0018770D02*
Y0018705D01*
X0006538Y0016849D02*
Y0009053D01*
X0012598Y0006010D02*
X0013121D01*
X0013665Y0010171D02*
Y0006555D01*
X0008326Y0018492D02*
X0008199Y0018365D01*
X0013764Y0010270D02*
Y0006654D01*
X0007726Y0017015D02*
Y0016455D01*
X0008482Y0019208D02*
X0008545D01*
X0009112Y0017647D02*
Y0017228D01*
X0006445Y0011388D02*
X0006940D01*
X0003260Y0020990D02*
X0006789D01*
X0019330Y0021089D02*
X0020467D01*
X0010894Y0000650D02*
Y0000300D01*
X0010079Y0018614D02*
X0010235D01*
X0010993Y0000650D02*
Y0000300D01*
X0019902Y0022242D02*
Y0020210D01*
X0011975Y0018119D02*
X0012431D01*
X0010003Y0002842D02*
Y0000300D01*
X0013566Y0022674D02*
Y0022518D01*
X0010102Y0018637D02*
Y0018407D01*
X0011191Y0002015D02*
Y0001930D01*
X0011983Y0020035D02*
Y0020005D01*
X0014914Y0017327D02*
X0015574D01*
X0011065Y0018020D02*
X0011145D01*
X0009315Y0007428D02*
X0009685D01*
X0006744Y0016832D02*
X0008716D01*
X0011092Y0018470D02*
Y0017885D01*
X0015165Y0021985D02*
Y0021075D01*
X0010849Y0009705D02*
X0010943D01*
X0012180Y0006141D02*
X0012254D01*
X0012426Y0019406D02*
X0012821D01*
X0003260Y0013466D02*
X0003649D01*
X0010300Y0014830D02*
Y0010035D01*
X0009240Y0010002D02*
X0009372D01*
X0014080Y0015842D02*
X0014276D01*
X0014080Y0015644D02*
X0014275D01*
X0008328Y0021386D02*
X0010634D01*
X0012288Y0016535D02*
X0012315D01*
X0014358Y0016656D02*
Y0016564D01*
X0006445Y0011586D02*
X0007145D01*
X0014080Y0015545D02*
X0014275D01*
X0014907Y0017283D02*
X0015040Y0017150D01*
X0007880Y0008517D02*
X0009843D01*
X0014061Y0016313D02*
Y0016262D01*
X0014160Y0016372D02*
Y0015290D01*
X0013269Y0009775D02*
Y0006159D01*
X0015249Y0011755D02*
Y0011333D01*
X0013665Y0004345D02*
Y0001656D01*
X0019330Y0021188D02*
X0020368D01*
X0010235Y0018695D02*
Y0018315D01*
X0011587Y0020800D02*
Y0020765D01*
X0021882Y0019909D02*
Y0019613D01*
X0003260Y0008319D02*
X0006081D01*
X0016140Y0016385D02*
Y0015960D01*
X0009501Y0013070D02*
X0012551D01*
X0009574Y0013169D02*
X0012422D01*
X0010498Y0014830D02*
Y0010658D01*
X0014962Y0017228D02*
X0015541D01*
X0014905Y0019307D02*
X0014965D01*
X0014080Y0015941D02*
X0014287D01*
X0016934Y0012384D02*
X0015641Y0011091D01*
X0008830Y0012872D02*
X0011821D01*
X0008830Y0013268D02*
X0008872D01*
X0011785Y0002475D02*
Y0001661D01*
X0013694Y0010200D02*
X0015335D01*
X0013793Y0010299D02*
X0015335D01*
X0013991Y0010497D02*
X0015335D01*
X0014952Y0011458D02*
Y0011123D01*
X0015942Y0011662D02*
Y0011392D01*
X0014684Y0011190D02*
X0014994D01*
X0013100Y0009606D02*
X0015335D01*
X0016875Y0016733D02*
X0016913D01*
X0016338Y0010968D02*
Y0010730D01*
X0012704Y0009210D02*
X0015335D01*
X0016041Y0010671D02*
Y0007486D01*
X0015447Y0011618D02*
Y0011300D01*
X0016437Y0016385D02*
Y0016257D01*
X0015744Y0011552D02*
Y0011194D01*
X0014090Y0010596D02*
X0015202D01*
X0023497Y0019703D02*
X0024835D01*
X0015545Y0015645D02*
Y0015365D01*
X0016041Y0016047D02*
Y0015861D01*
X0018175Y0011091D02*
X0018750D01*
X0024456Y0019720D02*
Y0019559D01*
X0015645Y0015667D02*
Y0015465D01*
X0015150Y0010612D02*
Y0008040D01*
X0024159Y0015734D02*
Y0015670D01*
X0023592Y0018713D02*
X0024377D01*
X0022971Y0016710D02*
Y0016560D01*
X0023367Y0016278D02*
Y0015670D01*
X0023276Y0015743D02*
X0024129D01*
X0015843Y0006539D02*
Y0006206D01*
X0023328Y0016238D02*
X0023837D01*
X0021658Y0015743D02*
X0022360D01*
X0010160Y0015410D02*
X0011190D01*
X0010795Y0017155D02*
Y0015410D01*
X0010696Y0017155D02*
Y0015410D01*
X0011904Y0013877D02*
X0012337Y0013444D01*
X0009955Y0015325D02*
X0009474Y0014844D01*
X0008535Y0013915D02*
X0008545D01*
X0014709Y0022920D02*
X0015790D01*
X0008914Y0015997D02*
Y0014284D01*
X0003845Y0015347D02*
X0006725D01*
X0010894Y0017155D02*
Y0015410D01*
X0009661Y0017777D02*
X0008215Y0016331D01*
X0010102Y0017155D02*
Y0015404D01*
X0010993Y0014830D02*
Y0010977D01*
X0014061Y0018110D02*
Y0017007D01*
X0011587Y0014986D02*
Y0014495D01*
X0010597Y0017155D02*
Y0015410D01*
X0010498Y0017155D02*
Y0015410D01*
X0011686Y0017155D02*
Y0015906D01*
X0009254Y0016337D02*
X0012117D01*
X0009904Y0014453D02*
Y0010135D01*
X0008122Y0015325D02*
Y0014555D01*
X0021300Y0016139D02*
X0022550D01*
X0003845Y0014456D02*
X0006725D01*
X0007231Y0015325D02*
Y0014555D01*
X0003845Y0015149D02*
X0009779D01*
X0005659Y0012378D02*
X0008250D01*
X0007479Y0022079D02*
X0009992D01*
X0008255Y0014195D02*
X0008535Y0013915D01*
X0007924Y0015325D02*
Y0014555D01*
X0007825Y0015325D02*
Y0014555D01*
X0008215Y0016436D02*
X0008320D01*
X0008215Y0015347D02*
X0009980D01*
X0008023Y0013425D02*
Y0011820D01*
X0006725Y0013425D02*
X0008205D01*
X0010280Y0014830D02*
X0011310D01*
X0006445Y0011982D02*
X0008250D01*
X0011488Y0014891D02*
Y0011472D01*
X0009211Y0013760D02*
Y0013714D01*
X0008122Y0013425D02*
Y0011803D01*
X0008320Y0015517D02*
Y0014130D01*
X0003845Y0014951D02*
X0009581D01*
X0008815Y0015898D02*
Y0014185D01*
X0014179Y0016931D02*
X0014284D01*
X0009720Y0014159D02*
X0011506D01*
X0009013Y0016096D02*
Y0014383D01*
X0008250Y0013380D02*
Y0011768D01*
X0023705Y0017624D02*
X0024460D01*
X0016062Y0016068D02*
X0015702Y0015708D01*
X0023961Y0015847D02*
Y0015670D01*
X0011488Y0008404D02*
Y0007693D01*
X0010894Y0007466D02*
Y0007435D01*
X0011257Y0007923D02*
X0015033D01*
X0018232Y0011883D02*
X0018307D01*
X0014882Y0011388D02*
X0015937D01*
X0018714Y0011476D02*
Y0007125D01*
X0016461Y0011091D02*
X0017645D01*
X0015645Y0011546D02*
Y0011095D01*
X0013633Y0005844D02*
X0014840D01*
X0015348Y0007559D02*
Y0006793D01*
X0013732Y0005943D02*
X0014751D01*
X0016735Y0009507D02*
X0017645D01*
X0017575Y0009903D02*
X0017645D01*
X0021485Y0008418D02*
X0021586D01*
X0015051Y0005765D02*
Y0005615D01*
X0015942Y0008360D02*
Y0007387D01*
X0015316Y0007527D02*
X0016082D01*
X0015909Y0006141D02*
X0016015D01*
X0014952Y0007163D02*
Y0006496D01*
X0016975Y0006452D02*
Y0006295D01*
X0017130Y0009914D02*
Y0008575D01*
X0014387Y0010893D02*
X0014921D01*
X0015645Y0005725D02*
Y0005615D01*
X0015705Y0006339D02*
X0016015D01*
X0015420Y0008309D02*
X0013121Y0006010D01*
X0013534Y0005745D02*
X0015626D01*
X0019330Y0009705D02*
X0019460D01*
X0016735Y0010200D02*
X0016985D01*
X0017253Y0011883D02*
X0017588D01*
X0016735Y0009606D02*
X0017645D01*
X0014128Y0006339D02*
X0014752D01*
X0016975Y0005455D02*
X0017136D01*
X0016735Y0009210D02*
X0017645D01*
X0016735Y0010299D02*
X0016996D01*
X0016857Y0011487D02*
X0017595D01*
X0014029Y0006240D02*
X0014709D01*
X0014754Y0006965D02*
Y0006343D01*
X0016735Y0009309D02*
X0017645D01*
X0013435Y0005646D02*
X0015680D01*
X0016845Y0005430D02*
X0017111D01*
X0022827Y0005151D02*
X0022910D01*
X0012676Y0014325D02*
Y0013784D01*
X0014227Y0006438D02*
X0014842D01*
X0016015Y0006710D02*
Y0006225D01*
X0017534Y0005175D02*
X0017645D01*
X0017598Y0005250D02*
X0018195D01*
X0016845Y0007055D02*
Y0006903D01*
X0012985Y0013664D02*
X0013680D01*
X0013269Y0014325D02*
Y0013254D01*
X0011983Y0012315D02*
Y0011967D01*
X0009214Y0013763D02*
X0012017D01*
X0011785Y0015184D02*
Y0014615D01*
X0010003Y0014552D02*
Y0010041D01*
X0009409Y0016492D02*
Y0014832D01*
X0009428Y0013664D02*
X0012116D01*
X0012379Y0014325D02*
Y0014081D01*
X0014341Y0014325D02*
X0010915Y0010899D01*
X0010465Y0008715D02*
X0010946D01*
X0013071Y0014325D02*
Y0013510D01*
X0013679Y0004359D02*
X0014920D01*
X0010201Y0004209D02*
Y0003861D01*
X0015300Y0005844D02*
X0015527D01*
X0007880Y0006834D02*
X0008960D01*
X0007874Y0006933D02*
X0008960D01*
X0011785Y0008039D02*
Y0007396D01*
X0011983Y0007996D02*
Y0007198D01*
X0007846Y0007032D02*
X0008960D01*
X0007791Y0007131D02*
X0008960D01*
X0007696Y0007230D02*
X0008973D01*
X0007865Y0006735D02*
X0008960D01*
X0010105Y0014654D02*
X0011963D01*
X0010710Y0005790D02*
X0010870Y0005630D01*
X0016239Y0004276D02*
Y0000300D01*
X0016845Y0005745D02*
X0016975D01*
X0018845Y0003525D02*
X0018865D01*
X0018021Y0003505D02*
Y0001617D01*
X0018183Y0004335D02*
X0018845D01*
X0017625Y0009945D02*
Y0009070D01*
X0013283Y0003963D02*
X0016815D01*
X0017645Y0009966D02*
Y0009090D01*
X0008830Y0011820D02*
X0009154Y0011496D01*
X0018912Y0023055D02*
Y0021837D01*
X0012181Y0016507D02*
Y0016401D01*
X0007880Y0003864D02*
X0010204D01*
X0016478Y0004388D02*
X0016815Y0004051D01*
X0017031Y0010029D02*
Y0008476D01*
X0016735Y0008418D02*
X0016973D01*
X0009511Y0014060D02*
X0011546D01*
X0012576Y0014325D02*
Y0013883D01*
X0016437Y0012465D02*
Y0011887D01*
X0018075Y0005555D02*
X0018195D01*
X0015645Y0016894D02*
Y0016259D01*
X0017630Y0005448D02*
X0018195D01*
X0017805Y0005943D02*
X0018075D01*
X0016845D02*
X0016975D01*
X0016735Y0008913D02*
X0017468D01*
X0016932Y0006434D02*
Y0005430D01*
X0016735Y0008715D02*
X0017270D01*
X0017645Y0011425D02*
Y0010454D01*
X0016734Y0011364D02*
Y0008179D01*
X0015959Y0012465D02*
X0017086D01*
X0016845Y0006042D02*
X0016975D01*
X0017744Y0004656D02*
X0018015D01*
Y0003920D02*
Y0003505D01*
X0017031Y0005455D02*
Y0005430D01*
X0015985Y0008517D02*
X0016085D01*
X0012665Y0009012D02*
X0015335D01*
X0014655Y0006866D02*
Y0005090D01*
X0006043Y0001695D02*
Y0000300D01*
X0015179Y0011685D02*
X0015378D01*
X0016338Y0008360D02*
Y0007783D01*
X0024357Y0016729D02*
Y0016591D01*
X0018831Y0012180D02*
X0019845D01*
X0016239Y0008360D02*
Y0007684D01*
X0024555Y0019720D02*
Y0019495D01*
X0016362Y0010992D02*
X0017645D01*
X0017625Y0005323D02*
Y0005175D01*
X0015743Y0006438D02*
X0016015D01*
X0015447Y0007658D02*
Y0006892D01*
X0022205Y0020297D02*
X0023829D01*
X0019128Y0011883D02*
X0019845D01*
X0018175Y0010398D02*
X0018750D01*
X0016635Y0008360D02*
Y0008080D01*
X0011488Y0000650D02*
Y0000300D01*
X0017625Y0011446D02*
Y0010475D01*
X0022773Y0016710D02*
Y0016362D01*
X0021218Y0016320D02*
X0022260D01*
X0021981D02*
Y0014555D01*
X0023070Y0016710D02*
Y0016659D01*
X0010960Y0008220D02*
X0011616D01*
X0013071Y0009577D02*
Y0006010D01*
X0012180Y0006438D02*
X0013548D01*
X0010696Y0009608D02*
Y0008485D01*
X0022080Y0016320D02*
Y0014555D01*
X0020904Y0002280D02*
X0021522D01*
X0010597Y0009605D02*
Y0008584D01*
X0018021Y0023055D02*
Y0022110D01*
X0012133Y0007032D02*
X0014142D01*
X0012598Y0005530D02*
X0013220D01*
X0009805Y0002644D02*
Y0000300D01*
X0010399Y0005790D02*
Y0005434D01*
X0016735Y0009530D02*
Y0008360D01*
X0007231Y0002735D02*
Y0002618D01*
X0008518Y0009619D02*
Y0003425D01*
X0007528Y0002679D02*
Y0002635D01*
X0007780Y0003468D02*
X0009808D01*
X0011092Y0002015D02*
Y0001930D01*
X0008023Y0009440D02*
Y0002985D01*
X0008122Y0002455D02*
Y0000300D01*
X0009630Y0002478D02*
X0010140D01*
X0022318Y0010695D02*
X0022680D01*
X0009545Y0006155D02*
X0009824Y0005876D01*
X0010399Y0004246D02*
Y0004059D01*
X0015880Y0004260D02*
X0016606D01*
X0015880Y0004062D02*
X0016804D01*
X0020861Y0003864D02*
X0022241D01*
X0015810Y0006240D02*
X0016015D01*
X0012986Y0003666D02*
X0016815D01*
X0013382Y0004062D02*
X0014920D01*
X0016734Y0004132D02*
Y0000300D01*
X0013085Y0003765D02*
X0016815D01*
X0016635Y0004231D02*
Y0000300D01*
X0013580Y0004260D02*
X0014920D01*
X0015645Y0000993D02*
Y0000300D01*
X0015880Y0004161D02*
X0016705D01*
X0016833Y0011463D02*
Y0008278D01*
X0007033Y0015325D02*
Y0014555D01*
X0007726Y0015325D02*
Y0014555D01*
X0007627Y0015325D02*
Y0014555D01*
X0007528Y0015325D02*
Y0014555D01*
X0006934Y0015325D02*
Y0014555D01*
X0006835Y0015325D02*
Y0014555D01*
X0007429Y0015325D02*
Y0014555D01*
X0007330Y0015325D02*
Y0014555D01*
X0008205Y0013425D02*
X0008250Y0013380D01*
X0003845Y0015446D02*
X0006725D01*
X0006736Y0015325D02*
Y0014555D01*
X0006835Y0013425D02*
Y0011236D01*
X0009580Y0002452D02*
Y0002015D01*
X0009737Y0002577D02*
X0010140D01*
X0009607Y0002464D02*
Y0000300D01*
X0009935Y0002775D02*
X0010140D01*
X0007528Y0001718D02*
Y0000300D01*
X0005647Y0003028D02*
Y0002645D01*
X0009580Y0003369D02*
X0009709D01*
X0011450Y0003864D02*
X0012364D01*
X0007652Y0005448D02*
X0009127D01*
X0021505Y0014555D02*
X0022360D01*
X0021505Y0014951D02*
X0022360D01*
X0022316Y0013466D02*
X0022360D01*
X0021505Y0014753D02*
X0022360D01*
X0023358Y0015670D02*
X0024181D01*
X0024710Y0019802D02*
X0024814D01*
X0024456Y0018635D02*
Y0018559D01*
X0024635Y0019406D02*
X0024835D01*
X0018120Y0008819D02*
Y0006925D01*
X0024543Y0019505D02*
X0024835D01*
X0021552Y0012872D02*
X0021613D01*
X0018285Y0011685D02*
X0018505D01*
X0021505Y0014852D02*
X0022360D01*
X0020275Y0011190D02*
X0021578D01*
X0020708Y0011388D02*
X0021430D01*
X0021387Y0016320D02*
Y0016032D01*
X0020944Y0011873D02*
X0021589Y0011229D01*
X0019498Y0012774D02*
X0019845D01*
X0019330Y0010497D02*
X0019845D01*
X0022766Y0016710D02*
X0022467Y0016407D01*
X0017427Y0011890D02*
Y0010579D01*
X0022486Y0002280D02*
X0022910D01*
X0009580D02*
X0010140D01*
X0023101Y0020099D02*
X0023830D01*
X0023595Y0019109D02*
X0023833D01*
X0003260Y0001785D02*
X0005625D01*
X0021505Y0014654D02*
X0022360D01*
X0021486Y0016320D02*
Y0015990D01*
X0022518Y0009804D02*
X0022680D01*
X0022518Y0009903D02*
X0022680D01*
X0022476Y0010893D02*
X0022680D01*
X0022080Y0013605D02*
Y0013553D01*
X0011752Y0007428D02*
X0014538D01*
X0007768Y0005547D02*
X0010870D01*
X0011851Y0007329D02*
X0014439D01*
X0007875Y0007923D02*
X0010437D01*
X0015249Y0007460D02*
Y0006694D01*
X0011884Y0008003D02*
Y0007297D01*
X0007708Y0008220D02*
X0010140D01*
X0011158Y0008022D02*
X0011821D01*
X0008745Y0009615D02*
X0010925Y0007435D01*
X0008496Y0009606D02*
X0008754D01*
X0010597Y0007763D02*
Y0007435D01*
X0023790Y0017030D02*
X0023850D01*
X0009706Y0014151D02*
Y0010195D01*
X0021505Y0013466D02*
X0021764D01*
X0022555Y0018713D02*
X0022749D01*
X0008291Y0014159D02*
X0008789D01*
X0008617Y0015700D02*
Y0013987D01*
X0011290Y0014830D02*
Y0011274D01*
X0010204Y0014753D02*
X0011945D01*
X0008419Y0015542D02*
Y0014031D01*
X0010201Y0017155D02*
Y0015410D01*
X0008215Y0014258D02*
X0008888D01*
X0012180Y0006537D02*
X0013647D01*
X0017037Y0016857D02*
X0016875Y0016695D01*
X0016536Y0023055D02*
Y0022595D01*
X0007879Y0007824D02*
X0010536D01*
X0014909Y0017426D02*
X0015646D01*
X0020793Y0001983D02*
Y0000300D01*
X0018116Y0008814D02*
X0018750D01*
X0022872Y0007578D02*
Y0006857D01*
X0021148Y0003072D02*
X0021648D01*
X0009163Y0011487D02*
X0011503D01*
X0007330Y0023320D02*
Y0023113D01*
X0003260Y0021584D02*
X0005495D01*
X0007412Y0020594D02*
X0007550D01*
X0007429Y0023320D02*
Y0022935D01*
X0007231Y0023320D02*
Y0023240D01*
X0003845Y0016535D02*
X0004147D01*
X0003845Y0016733D02*
X0004147D01*
X0014952Y0019336D02*
Y0019274D01*
X0013546Y0018020D02*
X0014982D01*
X0007880Y0009111D02*
X0009249D01*
X0014905Y0019109D02*
X0014940D01*
X0016109Y0016139D02*
X0016319D01*
X0011449Y0019703D02*
X0011796D01*
X0014488Y0018119D02*
X0014944D01*
X0013413Y0017723D02*
X0014447D01*
X0014610Y0018614D02*
X0014940D01*
X0013343Y0019505D02*
X0013440D01*
X0014061Y0006272D02*
Y0005090D01*
X0017526Y0011890D02*
Y0010546D01*
X0011884Y0020035D02*
Y0019922D01*
X0012495Y0012576D02*
X0012591D01*
X0017229Y0009859D02*
Y0008674D01*
X0004360Y0016494D02*
Y0013788D01*
X0004459Y0020013D02*
Y0018595D01*
X0022179Y0020725D02*
Y0020417D01*
X0020397Y0021159D02*
Y0019210D01*
X0020374Y0020000D02*
X0021580D01*
X0012280Y0016532D02*
Y0016500D01*
X0020298Y0019713D02*
Y0019627D01*
X0019330Y0020594D02*
X0021625D01*
X0022080Y0019740D02*
Y0019529D01*
X0021907Y0019913D02*
X0022145Y0019675D01*
X0021486Y0020725D02*
Y0020430D01*
X0021505Y0015363D02*
Y0012919D01*
X0023367Y0020725D02*
Y0019833D01*
X0022080Y0020725D02*
Y0020559D01*
X0019858Y0022178D02*
X0020215D01*
X0019066Y0021683D02*
X0020215D01*
X0018967Y0021782D02*
X0020215D01*
X0019945Y0022574D02*
X0020182D01*
X0019704Y0023052D02*
Y0022860D01*
X0019960Y0022475D02*
X0020215D01*
X0019905Y0022673D02*
X0020083D01*
X0019920Y0022277D02*
X0020215D01*
X0012328Y0022750D02*
X0013491D01*
X0018769Y0021980D02*
X0020215D01*
X0018813Y0023055D02*
Y0021936D01*
X0014795Y0021075D02*
X0015165D01*
X0015249Y0023055D02*
Y0022920D01*
X0015348Y0023055D02*
Y0022920D01*
X0018868Y0021881D02*
X0020215D01*
X0020496Y0004905D02*
Y0004468D01*
X0020841Y0004359D02*
X0022481D01*
X0018865Y0003270D02*
X0020068D01*
X0015545Y0015446D02*
X0015626D01*
X0012639Y0017228D02*
X0014189D01*
X0009591Y0018126D02*
X0008557Y0017093D01*
X0014920Y0007131D02*
X0015686D01*
X0009211Y0012966D02*
Y0011417D01*
X0013530Y0017030D02*
X0013861D01*
X0013979D02*
X0014330D01*
X0018865Y0002874D02*
X0020156D01*
X0020496Y0005855D02*
Y0005635D01*
X0019485Y0006285D02*
Y0006138D01*
X0016735Y0009804D02*
X0017645D01*
X0016735Y0009111D02*
X0017645D01*
X0010300Y0017155D02*
Y0015410D01*
X0017724Y0003877D02*
Y0001701D01*
X0018175Y0011289D02*
X0018750D01*
X0017031Y0012465D02*
Y0012449D01*
X0013447Y0022637D02*
X0013827Y0022258D01*
X0015645Y0023055D02*
Y0022920D01*
X0007348Y0020297D02*
X0009061D01*
X0015471Y0011289D02*
X0015838D01*
X0015545Y0015644D02*
X0015824D01*
X0016735Y0010497D02*
X0017118D01*
X0011587Y0008476D02*
Y0008404D01*
X0012280Y0002959D02*
Y0001526D01*
X0011065Y0018119D02*
X0011145D01*
X0011945Y0015345D02*
X0011515Y0014915D01*
X0024159Y0019720D02*
Y0019586D01*
X0011785Y0020035D02*
Y0019545D01*
X0007872Y0005943D02*
X0009757D01*
X0012890Y0008220D02*
X0015330D01*
X0020496Y0021060D02*
Y0019210D01*
X0017010Y0022673D02*
X0017135D01*
X0020177Y0020198D02*
X0021464D01*
X0022872Y0002928D02*
Y0002009D01*
X0020694Y0020862D02*
Y0019210D01*
X0013549Y0018119D02*
X0013652D01*
X0019330Y0020297D02*
X0021455D01*
X0019321Y0021386D02*
X0020220D01*
X0019701Y0023055D02*
X0020215Y0022541D01*
X0022035Y0020594D02*
X0023532D01*
X0019330Y0020495D02*
X0021523D01*
X0013665Y0018116D02*
Y0016935D01*
X0019011Y0023055D02*
Y0021738D01*
X0019110Y0022300D02*
Y0021639D01*
X0019165Y0021584D02*
X0020215D01*
X0014259Y0010765D02*
Y0007149D01*
X0018120Y0023055D02*
Y0022110D01*
X0012178Y0006834D02*
X0013944D01*
X0008716Y0015799D02*
Y0014086D01*
X0015348Y0021997D02*
Y0021985D01*
X0019308Y0007962D02*
Y0006935D01*
X0012082Y0012288D02*
Y0012066D01*
X0016932Y0011562D02*
Y0008377D01*
X0020199Y0004960D02*
Y0004681D01*
X0008830Y0013169D02*
X0008906D01*
X0019329Y0011586D02*
X0019845D01*
X0023169Y0016080D02*
Y0015792D01*
X0012377Y0012378D02*
X0012393D01*
X0018175Y0010596D02*
X0018750D01*
X0019986Y0006240D02*
X0020036D01*
X0018219Y0011478D02*
Y0006925D01*
X0017526Y0001054D02*
Y0000300D01*
X0017427Y0008123D02*
Y0007125D01*
X0016659Y0011289D02*
X0017645D01*
X0013397Y0009903D02*
X0015335D01*
X0013496Y0010002D02*
X0015335D01*
X0019115Y0006933D02*
X0021619D01*
X0016536Y0012465D02*
Y0011986D01*
X0015546Y0011566D02*
Y0011234D01*
X0015780Y0012279D02*
X0016828D01*
X0014585Y0011091D02*
X0014939D01*
X0016338Y0012465D02*
Y0011788D01*
X0015985Y0009804D02*
X0016085D01*
X0013892Y0010398D02*
X0015335D01*
X0018930Y0012081D02*
X0019845D01*
X0016043Y0011883D02*
X0016432D01*
X0012379Y0018165D02*
Y0017995D01*
X0017140Y0012470D02*
X0018420D01*
X0019227Y0011784D02*
X0019845D01*
X0018175Y0010497D02*
X0018750D01*
X0018270Y0011586D02*
X0018604D01*
X0019302Y0011685D02*
X0019845D01*
X0019209Y0012495D02*
Y0011801D01*
X0018813Y0012465D02*
Y0012197D01*
X0015872Y0012378D02*
X0016927D01*
X0015019Y0007230D02*
X0015785D01*
X0019300Y0012576D02*
X0019845D01*
X0018714Y0012465D02*
Y0012296D01*
X0018835Y0008435D02*
X0019744Y0007526D01*
X0019506Y0006505D02*
Y0006165D01*
X0017425Y0008121D02*
X0019149D01*
X0017326Y0008022D02*
X0019248D01*
X0018175Y0009309D02*
X0018750D01*
X0018175Y0009408D02*
X0018750D01*
X0017227Y0007923D02*
X0019347D01*
X0022476Y0007182D02*
Y0006967D01*
X0022623Y0007329D02*
X0022910D01*
X0016534Y0007230D02*
X0019764D01*
X0022343Y0008913D02*
X0022680D01*
X0022518Y0009111D02*
X0022680D01*
X0021330Y0008220D02*
X0021697D01*
X0021387Y0007012D02*
Y0006935D01*
X0022360Y0013605D02*
Y0013431D01*
X0022128Y0006834D02*
X0022289D01*
X0021288Y0008178D02*
Y0008020D01*
X0020694Y0006505D02*
Y0006465D01*
X0020275Y0010992D02*
X0021573D01*
X0021387Y0011430D02*
Y0009827D01*
X0020275Y0010596D02*
X0022680D01*
X0020275Y0010695D02*
X0021763D01*
X0022507Y0010992D02*
X0022668D01*
X0021981Y0013605D02*
Y0013551D01*
X0020835Y0011487D02*
X0021331D01*
X0021882Y0012632D02*
Y0012544D01*
Y0013605D02*
Y0013528D01*
X0021505Y0013961D02*
X0021565D01*
X0021669Y0009070D02*
X0022518D01*
X0023565Y0016476D02*
Y0015670D01*
X0022674Y0010986D02*
Y0008574D01*
X0021684Y0013605D02*
Y0013394D01*
X0020525Y0010398D02*
X0022680D01*
X0011092Y0014830D02*
Y0011076D01*
X0021684Y0012765D02*
Y0012741D01*
X0021505Y0013070D02*
X0021565D01*
X0022301Y0012476D02*
X0022430D01*
X0021981Y0012609D02*
Y0012551D01*
X0021505Y0012971D02*
X0021578D01*
X0021585Y0012943D02*
Y0012839D01*
X0021505Y0013268D02*
X0021604D01*
X0019330Y0009507D02*
X0019357D01*
X0021505Y0013367D02*
X0021662D01*
X0019330Y0011560D02*
Y0009434D01*
X0022377Y0009070D02*
Y0008882D01*
X0021751Y0012674D02*
X0021793D01*
X0022410Y0012378D02*
X0022430D01*
X0021783Y0012681D02*
Y0012642D01*
X0003260Y0005745D02*
X0005636D01*
X0018175Y0010299D02*
X0018750D01*
X0022179Y0013605D02*
Y0013534D01*
X0003260Y0005844D02*
X0005636D01*
X0003260Y0005943D02*
X0005636D01*
X0003260Y0006042D02*
X0005636D01*
X0021505Y0014060D02*
X0021565D01*
X0020559Y0010299D02*
X0022680D01*
X0020496Y0011336D02*
Y0010446D01*
X0018175Y0010002D02*
X0018750D01*
X0018175Y0010101D02*
X0018750D01*
X0003260Y0007329D02*
X0009026D01*
X0019506Y0012782D02*
Y0009772D01*
X0005746Y0003854D02*
Y0003486D01*
X0021349Y0016040D02*
X0022451D01*
X0020892Y0011566D02*
Y0010178D01*
X0024456Y0017761D02*
Y0017559D01*
X0022518Y0009507D02*
X0022680D01*
X0022518Y0009606D02*
X0022680D01*
X0022518Y0009705D02*
X0022680D01*
X0023774Y0017525D02*
X0024025D01*
X0023790Y0017440D02*
Y0016800D01*
X0022287Y0012674D02*
X0022335D01*
X0023169Y0018889D02*
Y0018816D01*
X0023466Y0016377D02*
Y0015670D01*
X0021549Y0015941D02*
X0022378D01*
X0022496Y0016436D02*
X0022847D01*
X0022872Y0015783D02*
Y0015749D01*
X0017724Y0008420D02*
Y0007125D01*
X0022472Y0018472D02*
X0022254Y0018254D01*
X0023268Y0020725D02*
Y0019932D01*
X0022971Y0015882D02*
Y0015792D01*
X0013863Y0022443D02*
Y0022212D01*
X0012676Y0022750D02*
Y0022701D01*
X0012082Y0020800D02*
Y0020765D01*
X0012572Y0022637D02*
X0012010Y0022075D01*
X0012379Y0022750D02*
Y0022443D01*
X0015150Y0023055D02*
Y0022920D01*
X0011785Y0022715D02*
Y0022000D01*
X0012576Y0022750D02*
Y0022641D01*
X0012478Y0022750D02*
Y0022542D01*
X0013882Y0022178D02*
X0015277D01*
X0016037Y0022772D02*
X0017210D01*
X0013808Y0022277D02*
X0015279D01*
X0015335Y0010505D02*
Y0009560D01*
X0013368Y0009874D02*
Y0006258D01*
X0013071Y0013310D02*
Y0013056D01*
X0013900Y0022440D02*
X0015346D01*
X0014952Y0023055D02*
Y0022920D01*
X0009313Y0013862D02*
X0011918D01*
X0014754Y0022440D02*
Y0021985D01*
X0009508Y0014057D02*
Y0013603D01*
X0014795Y0021386D02*
X0015165D01*
X0016734Y0023055D02*
Y0022715D01*
X0003845Y0014654D02*
X0009184D01*
X0016932Y0016861D02*
Y0016752D01*
X0012852Y0020594D02*
X0013446D01*
X0024324Y0017723D02*
X0024460D01*
X0012241Y0022673D02*
X0012617D01*
X0012478Y0019465D02*
Y0019395D01*
X0007415Y0019901D02*
X0008665D01*
X0015253Y0010587D02*
X0015335Y0010505D01*
X0014853Y0023055D02*
Y0022920D01*
X0017821Y0008517D02*
X0018778D01*
X0014486Y0010992D02*
X0014916D01*
X0017724Y0005455D02*
Y0004675D01*
X0021505Y0014456D02*
X0021565D01*
X0021505Y0014258D02*
X0021565D01*
X0021505Y0014357D02*
X0021565D01*
X0021505Y0014159D02*
X0021565D01*
X0021505Y0013763D02*
X0021565D01*
X0016437Y0008360D02*
Y0007882D01*
X0023268Y0018335D02*
Y0017920D01*
X0024258Y0017720D02*
Y0017600D01*
X0021505Y0013169D02*
X0021574D01*
X0023862Y0016995D02*
Y0016325D01*
X0023961Y0016847D02*
Y0016473D01*
X0024060Y0016773D02*
Y0016547D01*
X0024159Y0016734D02*
Y0016586D01*
X0023724Y0016634D02*
X0024460D01*
X0023781Y0016733D02*
X0024163D01*
X0016845Y0006141D02*
X0016975D01*
X0021535Y0009606D02*
X0021568D01*
X0010201Y0018736D02*
Y0018348D01*
X0024456Y0016761D02*
Y0016559D01*
X0024258Y0016720D02*
Y0016600D01*
X0024460Y0017763D02*
Y0017557D01*
X0023862Y0017995D02*
Y0017325D01*
X0023961Y0017847D02*
Y0017473D01*
X0024357Y0017729D02*
Y0017591D01*
X0024060Y0017773D02*
Y0017547D01*
X0024159Y0017734D02*
Y0017586D01*
X0019011Y0012465D02*
Y0011999D01*
X0012665Y0009111D02*
X0015335D01*
X0022316Y0012694D02*
X0022430Y0012580D01*
X0023427Y0016337D02*
X0023867D01*
X0023130Y0016040D02*
X0023847D01*
X0023790Y0017327D02*
X0023863D01*
X0022932Y0015842D02*
X0023966D01*
X0023625Y0016535D02*
X0024041D01*
X0023790Y0016931D02*
X0023894D01*
X0016065Y0010695D02*
X0016085D01*
X0024654Y0019720D02*
Y0019375D01*
X0023862Y0018995D02*
Y0018325D01*
X0023961Y0018847D02*
Y0018473D01*
X0024060Y0018773D02*
Y0018547D01*
X0024159Y0018734D02*
Y0018586D01*
X0023260Y0018119D02*
X0023832D01*
X0015278Y0011784D02*
X0015321D01*
X0023595Y0018911D02*
X0023907D01*
X0024460Y0018631D02*
Y0018557D01*
X0024835Y0019781D02*
Y0018934D01*
X0024357Y0018729D02*
Y0018591D01*
X0023259Y0018218D02*
X0023834D01*
X0023349Y0018416D02*
X0023912D01*
X0023507Y0017822D02*
X0023988D01*
X0024710Y0019906D02*
X0024835Y0019781D01*
X0023595Y0019505D02*
X0023997D01*
X0024685Y0019307D02*
X0024835D01*
X0023595Y0019406D02*
X0023905D01*
X0023862Y0019720D02*
Y0019325D01*
X0023961Y0019720D02*
Y0019473D01*
X0023595Y0019208D02*
X0023833D01*
X0024258Y0019720D02*
Y0019600D01*
X0024357Y0019720D02*
Y0019591D01*
X0024759Y0019010D02*
X0024835D01*
X0024258Y0018720D02*
Y0018600D01*
X0012379Y0020800D02*
Y0020765D01*
X0013566Y0018157D02*
Y0016962D01*
X0013368Y0004048D02*
Y0000300D01*
X0022674Y0016617D02*
Y0016264D01*
X0020360Y0019802D02*
X0022018D01*
X0021981Y0020725D02*
Y0020623D01*
X0004459Y0012659D02*
Y0012296D01*
X0020793Y0020766D02*
Y0019210D01*
X0022109Y0019505D02*
X0022145D01*
X0020293Y0019208D02*
X0021354D01*
X0021486Y0020130D02*
Y0019487D01*
X0021981Y0019839D02*
Y0019585D01*
X0021585Y0019996D02*
Y0019562D01*
X0020278Y0021278D02*
X0020768Y0020788D01*
X0019330Y0020693D02*
X0023433D01*
X0020385Y0019406D02*
X0021422D01*
X0012972Y0020800D02*
Y0020500D01*
X0021783Y0019908D02*
Y0019619D01*
X0024710Y0019906D02*
X0024835Y0019781D01*
X0013491Y0022750D02*
X0013730Y0022511D01*
X0022400Y0020000D02*
X0022491D01*
X0019407Y0022035D02*
Y0020210D01*
X0021387Y0020725D02*
Y0019339D01*
X0021882Y0016320D02*
Y0014555D01*
X0009386Y0017921D02*
X0009612D01*
X0014221Y0016436D02*
X0014285D01*
X0013240Y0020800D02*
X0013804Y0020236D01*
X0022239Y0018020D02*
X0022376D01*
X0022865Y0018713D02*
X0023066D01*
X0022259Y0018218D02*
X0022356D01*
X0022260Y0018119D02*
X0022355D01*
X0023664Y0020462D02*
Y0017665D01*
X0022270Y0017920D02*
X0022424D01*
X0023191D02*
X0023310D01*
X0022877Y0018614D02*
X0022967D01*
X0022971Y0018740D02*
Y0018618D01*
X0023070Y0018793D02*
Y0018717D01*
X0023448Y0018515D02*
X0024011D01*
X0023239Y0018020D02*
X0023853D01*
X0022553Y0018614D02*
X0022738D01*
X0022317Y0018317D02*
X0022379D01*
X0023185Y0018832D02*
X0022950Y0018597D01*
X0014556Y0018147D02*
Y0017735D01*
X0023070Y0015981D02*
Y0015805D01*
X0018175Y0010992D02*
X0018750D01*
X0022359Y0016337D02*
X0022748D01*
X0023268Y0016179D02*
Y0015748D01*
X0023480Y0017850D02*
X0023719Y0017610D01*
X0022840Y0015743D02*
X0022864D01*
X0022278Y0018278D02*
Y0017920D01*
X0022766Y0016710D02*
X0023120D01*
X0021565Y0014555D02*
X0022360D01*
X0021882Y0002395D02*
Y0002375D01*
X0004468Y0020903D02*
X0006634D01*
X0006637Y0020173D02*
Y0020015D01*
X0010662Y0022178D02*
X0012113D01*
X0006142Y0021257D02*
Y0020903D01*
X0005845Y0021346D02*
Y0020903D01*
X0006340Y0021241D02*
Y0020903D01*
X0007132Y0020105D02*
Y0020015D01*
X0006439Y0020173D02*
Y0018595D01*
X0014655Y0018238D02*
Y0017717D01*
X0006241Y0020173D02*
Y0018595D01*
X0004558Y0020112D02*
Y0018595D01*
X0007132Y0019065D02*
Y0018365D01*
X0007528Y0022306D02*
Y0021256D01*
X0006736Y0020111D02*
Y0020015D01*
X0006835Y0020077D02*
Y0020015D01*
X0006934Y0020065D02*
Y0020015D01*
X0022680Y0010980D02*
Y0008580D01*
X0007231Y0020164D02*
Y0020015D01*
X0003260Y0021881D02*
X0005274D01*
X0006538Y0020173D02*
Y0020015D01*
X0004545Y0020099D02*
X0006763D01*
X0003845Y0019208D02*
X0006465D01*
X0004347Y0019901D02*
X0006465D01*
X0004248Y0019802D02*
X0006465D01*
X0004149Y0019703D02*
X0006465D01*
X0004446Y0020000D02*
X0006465D01*
X0005845Y0020173D02*
Y0018595D01*
X0020899Y0002181D02*
X0021340D01*
X0003260Y0000498D02*
X0021017D01*
X0022971Y0020725D02*
Y0020187D01*
X0021387Y0006505D02*
Y0002874D01*
X0021288Y0002420D02*
Y0002144D01*
X0022105Y0002478D02*
X0022910D01*
X0007835Y0002379D02*
X0008400D01*
X0019803Y0000948D02*
Y0000300D01*
X0020595Y0001881D02*
Y0001838D01*
X0022185Y0002973D02*
X0022239D01*
X0020659Y0001686D02*
X0020915D01*
X0019110Y0003505D02*
Y0000300D01*
X0020641Y0001488D02*
X0020844D01*
X0018150Y0001389D02*
X0018330D01*
X0020012Y0001191D02*
X0020804D01*
X0011488Y0003985D02*
Y0003010D01*
X0019879Y0000993D02*
X0020819D01*
X0011550Y0000894D02*
X0020839D01*
X0020991Y0000537D02*
Y0000300D01*
X0021090Y0000403D02*
Y0000300D01*
X0003260Y0000597D02*
X0020956D01*
X0022230Y0002874D02*
X0022316D01*
X0022360Y0015850D02*
Y0014555D01*
X0021585Y0002526D02*
Y0002306D01*
X0022897Y0001983D02*
X0022910D01*
X0019330Y0010299D02*
X0019821D01*
X0019330Y0010002D02*
X0019731D01*
X0018175Y0009210D02*
X0018750D01*
X0018175Y0009111D02*
X0018750D01*
X0019330Y0010695D02*
X0019845D01*
X0018175Y0009012D02*
X0018750D01*
X0020694Y0011381D02*
Y0010234D01*
X0018175Y0011388D02*
X0018750D01*
X0020454Y0010497D02*
X0022680D01*
X0020275Y0011393D02*
Y0010595D01*
X0019803Y0013079D02*
Y0010054D01*
X0019330Y0009903D02*
X0019619D01*
X0016360Y0007055D02*
X0016845D01*
X0017805Y0007125D02*
Y0006925D01*
X0018175Y0009507D02*
X0018750D01*
X0018516Y0011674D02*
Y0007125D01*
X0018813Y0008459D02*
Y0007125D01*
X0005647Y0006744D02*
Y0006320D01*
X0015150Y0007361D02*
Y0006595D01*
X0021079Y0008022D02*
X0022122D01*
X0010140Y0002980D02*
X0009675Y0002515D01*
X0004583Y0013565D02*
X0006725D01*
X0006934Y0013425D02*
Y0011380D01*
X0007330Y0013425D02*
Y0011701D01*
X0007429Y0013425D02*
Y0011746D01*
X0007528Y0013425D02*
Y0011780D01*
X0007627Y0013425D02*
Y0011805D01*
X0007726Y0013425D02*
Y0011821D01*
X0007825Y0013425D02*
Y0011829D01*
X0007393Y0020396D02*
X0007856D01*
X0008320Y0017015D02*
Y0016436D01*
X0008122Y0018396D02*
Y0018365D01*
X0006445Y0010398D02*
X0006693D01*
X0007033Y0013425D02*
Y0011489D01*
X0008201Y0011784D02*
X0008250D01*
X0007231Y0013425D02*
Y0011645D01*
X0006445Y0011289D02*
X0006867D01*
X0006445Y0011190D02*
X0006809D01*
X0006445Y0011091D02*
X0006762D01*
X0006445Y0010992D02*
X0006726D01*
X0006445Y0010893D02*
X0006699D01*
X0006445Y0010794D02*
X0006682D01*
X0006445Y0010695D02*
X0006672D01*
X0007033Y0009771D02*
Y0009329D01*
X0006445Y0011487D02*
X0007030D01*
X0006445Y0010299D02*
X0006717D01*
X0003260D02*
X0004147D01*
X0007627Y0009455D02*
Y0009329D01*
X0003260Y0010101D02*
X0006793D01*
X0009112Y0016195D02*
Y0014482D01*
X0003260Y0009804D02*
X0007000D01*
X0011686Y0022868D02*
Y0021888D01*
X0019952Y0022376D02*
X0020215D01*
X0020892Y0020727D02*
Y0019210D01*
X0010201Y0005790D02*
Y0005471D01*
X0019740Y0022079D02*
X0020215D01*
X0019704Y0022060D02*
Y0020210D01*
X0008634Y0009705D02*
X0008684D01*
X0014754Y0023055D02*
Y0022920D01*
X0015051Y0010671D02*
Y0007941D01*
X0005647Y0021458D02*
Y0020903D01*
X0005251Y0023320D02*
Y0022955D01*
X0005449Y0023320D02*
Y0023250D01*
X0003260Y0023168D02*
X0005381D01*
X0003260Y0023069D02*
X0005313D01*
X0003260Y0022970D02*
X0005258D01*
X0003260Y0022871D02*
X0005215D01*
X0003260Y0022772D02*
X0005182D01*
X0003260Y0022673D02*
X0005158D01*
X0003260Y0022574D02*
X0005143D01*
X0003260Y0022475D02*
X0005136D01*
X0003260Y0022376D02*
X0005137D01*
X0003260Y0022277D02*
X0005147D01*
X0003260Y0023320D02*
X0005518D01*
X0005152D02*
Y0022639D01*
X0003260Y0021980D02*
X0005227D01*
X0003260Y0022079D02*
X0005191D01*
X0003260Y0021485D02*
X0005610D01*
X0003845Y0018812D02*
X0007445D01*
X0008419Y0020580D02*
Y0019300D01*
X0003845Y0018614D02*
X0007535D01*
X0003845Y0018515D02*
X0004147D01*
X0003845Y0018416D02*
X0004147D01*
X0003845Y0018317D02*
X0004147D01*
X0003845Y0018218D02*
X0004147D01*
X0003845Y0018119D02*
X0004147D01*
X0003845Y0018020D02*
X0004147D01*
X0003845Y0017921D02*
X0004147D01*
X0003865Y0019419D02*
Y0014282D01*
X0003845Y0017723D02*
X0004147D01*
X0004063Y0019617D02*
Y0014084D01*
X0004162Y0019716D02*
Y0018595D01*
X0004063Y0023320D02*
Y0020649D01*
X0004360Y0019914D02*
Y0018595D01*
X0007231Y0021642D02*
Y0020916D01*
X0004657Y0020173D02*
Y0018595D01*
X0004756Y0020173D02*
Y0018595D01*
X0004855Y0020173D02*
Y0018595D01*
X0004954Y0020173D02*
Y0018595D01*
X0005053Y0020173D02*
Y0018595D01*
X0003852Y0019406D02*
X0006465D01*
X0004619Y0020173D02*
X0003845Y0019399D01*
X0005944Y0020173D02*
Y0018595D01*
X0006043Y0020173D02*
Y0018595D01*
X0011849Y0015248D02*
X0011945D01*
X0005845Y0016494D02*
Y0012296D01*
X0009706Y0016789D02*
Y0015076D01*
X0003845Y0017525D02*
X0004147D01*
X0003845Y0017426D02*
X0004147D01*
X0003845Y0017327D02*
X0004147D01*
X0003845Y0017228D02*
X0004147D01*
X0003845Y0017129D02*
X0004147D01*
X0003845Y0017030D02*
X0004147D01*
X0003845Y0016931D02*
X0004147D01*
X0004360Y0012758D02*
Y0012296D01*
X0003260Y0013070D02*
X0004046D01*
X0003260Y0012279D02*
X0004147D01*
X0003260Y0012180D02*
X0004147D01*
X0003260Y0012081D02*
X0004147D01*
X0003865Y0013251D02*
Y0000300D01*
X0006445Y0016900D02*
Y0016494D01*
X0003964Y0013152D02*
Y0000300D01*
X0004162Y0012955D02*
Y0012296D01*
X0003260Y0013854D02*
X0004823Y0012296D01*
X0003260Y0012674D02*
X0004443D01*
X0003260Y0012378D02*
X0004741D01*
X0004558Y0012560D02*
Y0012296D01*
X0004657Y0016494D02*
Y0013492D01*
X0004756Y0012363D02*
Y0012296D01*
Y0016494D02*
Y0013394D01*
X0003260Y0012576D02*
X0004543D01*
X0004954Y0016494D02*
Y0013196D01*
X0005053Y0016494D02*
Y0013098D01*
X0005152Y0016494D02*
Y0012999D01*
X0005746Y0010195D02*
Y0009148D01*
X0003260Y0009012D02*
X0005666D01*
X0003260Y0011784D02*
X0004147D01*
X0003260Y0011685D02*
X0004147D01*
X0003260Y0011586D02*
X0004147D01*
X0003260Y0011487D02*
X0004147D01*
X0003260Y0011388D02*
X0004147D01*
X0003260Y0011289D02*
X0004147D01*
X0003260Y0011190D02*
X0004147D01*
X0003260Y0011091D02*
X0004147D01*
X0003260Y0010992D02*
X0004147D01*
X0003260Y0010893D02*
X0004147D01*
X0003260Y0010794D02*
X0004147D01*
X0003260Y0010695D02*
X0004147D01*
X0003260Y0010596D02*
X0004147D01*
X0005152Y0020173D02*
Y0018595D01*
X0006445Y0012180D02*
X0008250D01*
X0003845Y0016634D02*
X0004147D01*
X0005944Y0016494D02*
Y0012296D01*
X0006043Y0016494D02*
Y0012296D01*
X0006142Y0016494D02*
Y0012296D01*
X0003260Y0010497D02*
X0004147D01*
X0020684Y0002874D02*
X0020713D01*
X0003845Y0017822D02*
X0004147D01*
X0003845Y0017624D02*
X0004147D01*
X0006142Y0001695D02*
Y0000300D01*
X0013566Y0010072D02*
Y0006456D01*
X0006439Y0010195D02*
Y0009188D01*
X0013071Y0020800D02*
Y0020494D01*
X0006445Y0016733D02*
X0008617D01*
X0003845Y0016436D02*
X0006725D01*
X0009180Y0001785D02*
X0010710D01*
X0009580Y0002181D02*
X0010140D01*
X0010795Y0002015D02*
Y0001930D01*
X0010894Y0002015D02*
Y0001930D01*
X0010993Y0002015D02*
Y0001930D01*
X0021644Y0015545D02*
X0022360D01*
X0003260Y0000795D02*
X0008340D01*
X0009195Y0001875D02*
X0009180Y0001860D01*
X0011191Y0000650D02*
Y0000300D01*
X0009180Y0001686D02*
X0010710D01*
X0009180Y0001587D02*
X0010710D01*
X0009180Y0001488D02*
X0010710D01*
X0009180Y0001389D02*
X0010710D01*
X0009180Y0001290D02*
X0010710D01*
X0009180Y0001191D02*
X0010710D01*
X0009180Y0001092D02*
X0010710D01*
X0009180Y0000993D02*
X0010710D01*
X0009180Y0000894D02*
X0010710D01*
X0007870Y0002082D02*
X0008400D01*
X0007880Y0002181D02*
X0008400D01*
X0007839Y0001983D02*
X0008502D01*
X0013778Y0004458D02*
X0014920D01*
X0007869Y0002280D02*
X0008400D01*
X0008518Y0000650D02*
Y0000300D01*
X0008617Y0000650D02*
Y0000300D01*
X0003260Y0001686D02*
X0008340D01*
X0003260Y0001587D02*
X0008340D01*
X0003260Y0001488D02*
X0008340D01*
X0003260Y0001389D02*
X0008340D01*
X0008215Y0015515D02*
X0008280D01*
X0021981Y0002412D02*
Y0002381D01*
X0022179Y0012626D02*
Y0012534D01*
X0013831Y0006042D02*
X0014708D01*
X0006241Y0001695D02*
Y0000300D01*
X0007330Y0001708D02*
Y0000300D01*
X0009706Y0005994D02*
Y0005472D01*
X0016735Y0009408D02*
X0017645D01*
X0011447Y0003567D02*
X0012067D01*
X0015471Y0005900D02*
X0015680Y0005691D01*
X0020275Y0011091D02*
X0021565D01*
X0016932Y0012465D02*
Y0012382D01*
X0016735Y0008517D02*
X0017072D01*
X0016735Y0009012D02*
X0017567D01*
X0016140Y0008360D02*
Y0007585D01*
X0015942Y0006638D02*
Y0006107D01*
X0016140Y0012465D02*
Y0011590D01*
X0015941Y0012180D02*
X0016729D01*
X0022910Y0007616D02*
X0021862Y0006568D01*
X0012874Y0014325D02*
Y0013747D01*
X0015843Y0012349D02*
Y0012252D01*
X0017526Y0009874D02*
Y0008971D01*
X0015985Y0009507D02*
X0016085D01*
X0015985Y0009408D02*
X0016085D01*
X0015985Y0009309D02*
X0016085D01*
X0015985Y0009210D02*
X0016085D01*
X0015900Y0008319D02*
X0016874D01*
X0015842Y0006537D02*
X0016015D01*
X0016536Y0008360D02*
Y0007981D01*
X0015985Y0008913D02*
X0016085D01*
X0015985Y0008814D02*
X0016085D01*
X0015985Y0008715D02*
X0016085D01*
X0015415Y0007626D02*
X0016181D01*
X0014754Y0005937D02*
Y0005090D01*
X0015985Y0009012D02*
X0016085D01*
X0015546Y0007757D02*
Y0006991D01*
X0005647Y0008744D02*
Y0007946D01*
X0007033Y0001881D02*
Y0000300D01*
X0012082Y0000975D02*
Y0000300D01*
X0017154Y0011784D02*
X0017547D01*
X0016085Y0010715D02*
Y0009560D01*
X0016041Y0011868D02*
Y0011491D01*
X0016085Y0010715D02*
X0015985Y0010615D01*
Y0010596D02*
X0016085D01*
X0014524Y0006735D02*
X0015290D01*
X0015985Y0010615D02*
Y0009560D01*
Y0010398D02*
X0016085D01*
X0015900Y0008360D02*
Y0008210D01*
X0016735Y0009705D02*
X0017645D01*
X0015985Y0010299D02*
X0016085D01*
X0015985Y0010200D02*
X0016085D01*
X0015985Y0010101D02*
X0016085D01*
X0015985Y0010002D02*
X0016085D01*
X0015985Y0009903D02*
X0016085D01*
X0022278Y0006984D02*
Y0006818D01*
X0022575Y0011085D02*
Y0008475D01*
X0016239Y0012465D02*
Y0011689D01*
X0019902Y0022854D02*
Y0022678D01*
X0009508Y0018043D02*
Y0017624D01*
X0007429Y0017015D02*
Y0016455D01*
X0012181Y0018126D02*
Y0017885D01*
X0013269Y0005535D02*
Y0004770D01*
X0011686Y0020035D02*
Y0019545D01*
X0015985Y0009705D02*
X0016085D01*
X0011065Y0018416D02*
X0011145D01*
X0011065Y0018317D02*
X0011145D01*
X0011065Y0018218D02*
X0011145D01*
X0008023Y0017015D02*
Y0016455D01*
X0009240Y0010497D02*
X0010476D01*
X0010235Y0018695D02*
X0010736D01*
X0010235Y0018770D02*
X0009894Y0018429D01*
X0008716Y0023320D02*
Y0019952D01*
X0011439Y0020000D02*
X0011975D01*
X0011488Y0020035D02*
Y0019545D01*
X0011587Y0020035D02*
Y0019545D01*
X0015985Y0009530D02*
Y0008360D01*
Y0009606D02*
X0016085D01*
X0015985Y0010497D02*
X0016085D01*
X0011975Y0018208D02*
Y0017885D01*
X0019805Y0004044D02*
Y0003505D01*
X0009980Y0018515D02*
X0010235D01*
X0008221Y0018430D02*
Y0018387D01*
X0011065Y0017921D02*
X0011145D01*
X0011065Y0018470D02*
X0011145D01*
X0009706Y0002545D02*
Y0000300D01*
X0013368Y0022750D02*
Y0022692D01*
X0020199Y0022557D02*
Y0020191D01*
X0016239Y0023055D02*
Y0022570D01*
X0014795Y0021985D02*
Y0021075D01*
X0013905Y0022070D02*
Y0021985D01*
X0015150Y0022440D02*
Y0021075D01*
X0014160Y0022440D02*
Y0021985D01*
X0014259Y0022440D02*
Y0021985D01*
X0014358Y0022440D02*
Y0021985D01*
X0014457Y0022440D02*
Y0021985D01*
X0006445Y0016832D02*
X0006596D01*
X0012078Y0001686D02*
X0012772D01*
X0012676Y0019477D02*
Y0019395D01*
X0014853Y0022440D02*
Y0021075D01*
X0009409Y0017944D02*
Y0017525D01*
X0012181Y0020800D02*
Y0020765D01*
X0013511Y0022574D02*
X0013666D01*
X0014556Y0022440D02*
Y0021985D01*
X0017526Y0023055D02*
Y0022900D01*
X0015935Y0022871D02*
X0017363D01*
X0013905Y0021985D02*
X0014795D01*
X0013709Y0022376D02*
X0015309D01*
X0014457Y0004510D02*
Y0001677D01*
X0014795Y0021980D02*
X0015165D01*
X0014795Y0021881D02*
X0015165D01*
X0014795Y0021782D02*
X0015165D01*
X0014795Y0021683D02*
X0015165D01*
X0014795Y0021287D02*
X0015165D01*
X0015447Y0023055D02*
Y0022920D01*
X0008858Y0015941D02*
X0011721D01*
X0015051Y0022440D02*
Y0021075D01*
X0007415Y0019604D02*
X0008545D01*
X0008524Y0019109D02*
X0008545D01*
X0007415Y0019406D02*
X0007680D01*
X0007415Y0019307D02*
X0007567D01*
X0009112Y0022145D02*
Y0020348D01*
X0007415Y0019109D02*
X0007456D01*
X0007528Y0020624D02*
Y0019256D01*
X0007627Y0020514D02*
Y0019366D01*
X0007726Y0020446D02*
Y0019434D01*
X0007825Y0020405D02*
Y0019475D01*
X0007924Y0020384D02*
Y0019496D01*
X0008023Y0020381D02*
Y0019499D01*
X0008122Y0020396D02*
Y0019484D01*
X0008221Y0020430D02*
Y0019450D01*
X0008320Y0020487D02*
Y0019393D01*
X0004261Y0019815D02*
Y0018595D01*
X0007627Y0018514D02*
Y0018365D01*
X0003845Y0019010D02*
X0007434D01*
X0003845Y0018911D02*
X0007431D01*
X0008188Y0018416D02*
X0008250D01*
X0003845Y0018713D02*
X0007478D01*
X0006445Y0018416D02*
X0007792D01*
X0007338Y0021782D02*
X0010238D01*
X0008431Y0020594D02*
X0009358D01*
X0007175Y0021584D02*
X0010436D01*
X0006908Y0021386D02*
X0007652D01*
X0003260Y0021287D02*
X0006005D01*
X0007132Y0021543D02*
Y0020974D01*
X0003260Y0021188D02*
X0007488D01*
X0007091Y0020990D02*
X0007432D01*
X0007260Y0020891D02*
X0007432D01*
X0007342Y0020792D02*
X0007450D01*
X0007390Y0020693D02*
X0007487D01*
X0007061Y0021485D02*
X0007862D01*
X0006665Y0021287D02*
X0007551D01*
X0003260Y0021089D02*
X0007450D01*
X0007627Y0023320D02*
Y0021366D01*
X0007726Y0023320D02*
Y0021434D01*
X0007825Y0023320D02*
Y0021475D01*
X0007924Y0023320D02*
Y0021496D01*
X0008023Y0023320D02*
Y0021499D01*
X0008122Y0023320D02*
Y0021484D01*
X0008221Y0023320D02*
Y0021450D01*
X0008320Y0023320D02*
Y0021393D01*
X0007270Y0020198D02*
X0008962D01*
X0010235Y0018705D02*
X0010726D01*
X0017328Y0011890D02*
Y0010584D01*
X0011145Y0018470D02*
Y0017885D01*
X0012874Y0009379D02*
Y0008663D01*
X0011065Y0017885D02*
X0011145D01*
X0014853Y0004510D02*
Y0001606D01*
X0012774Y0017358D02*
Y0017150D01*
X0014189Y0010695D02*
X0015025D01*
X0013467Y0009973D02*
Y0006357D01*
X0012576Y0008055D02*
Y0006034D01*
X0011975Y0017921D02*
X0012305D01*
X0013905Y0022079D02*
X0015302D01*
X0003260Y0020891D02*
X0004375D01*
X0011470Y0019901D02*
X0011867D01*
X0010498Y0009605D02*
Y0008683D01*
X0007880Y0009210D02*
X0009150D01*
X0012676Y0008067D02*
Y0006010D01*
X0021623Y0015842D02*
X0022360D01*
X0008429Y0021287D02*
X0010733D01*
X0011983Y0020800D02*
Y0020765D01*
X0012788Y0020658D02*
X0012948Y0020498D01*
X0013566Y0019657D02*
Y0019643D01*
X0011488Y0023320D02*
Y0021380D01*
X0011750Y0015149D02*
X0011945D01*
X0012576Y0019562D02*
Y0019395D01*
X0009607Y0022145D02*
Y0020758D01*
X0004619Y0020173D02*
X0006638D01*
X0011686Y0023320D02*
Y0023112D01*
X0010645Y0022871D02*
X0011684D01*
X0012280Y0022701D02*
Y0022344D01*
X0006996Y0017015D02*
X0008370D01*
X0021270Y0016238D02*
X0022649D01*
X0008891Y0017426D02*
X0009310D01*
X0013467Y0022750D02*
Y0022617D01*
X0022594Y0016535D02*
X0022946D01*
X0010645Y0022673D02*
X0011839D01*
X0008215Y0016455D02*
Y0016331D01*
X0008693Y0017228D02*
X0009112D01*
X0012576Y0020800D02*
Y0020762D01*
X0010645Y0022376D02*
X0012311D01*
X0010645Y0022574D02*
X0012509D01*
X0012478Y0020800D02*
Y0020765D01*
X0011058Y0021782D02*
X0011644D01*
X0011157Y0021683D02*
X0011635D01*
X0022575Y0016516D02*
Y0016164D01*
X0019605Y0012881D02*
Y0009888D01*
X0018227Y0011890D02*
X0018300D01*
X0020793Y0011446D02*
Y0010210D01*
X0016845Y0005448D02*
X0017128D01*
X0018175Y0009606D02*
X0018750D01*
X0022476Y0009070D02*
Y0008740D01*
X0022680Y0008580D02*
X0022493Y0008393D01*
X0018615Y0012465D02*
Y0012394D01*
X0018633Y0012378D02*
X0019845D01*
X0016735Y0010101D02*
X0017001D01*
X0019169Y0012476D02*
X0019845D01*
X0014783Y0011289D02*
X0015109D01*
X0017805Y0006495D02*
Y0006295D01*
X0019330Y0010596D02*
X0019845D01*
X0018912Y0008358D02*
Y0007125D01*
X0022419Y0010794D02*
X0022680D01*
X0023534Y0018602D02*
X0023240Y0018307D01*
X0015217Y0007428D02*
X0015983D01*
X0023862Y0015995D02*
Y0015670D01*
X0022518Y0010002D02*
X0022680D01*
X0018845Y0004656D02*
X0018975D01*
X0019110Y0005555D02*
Y0005175D01*
X0019209Y0005555D02*
Y0005175D01*
X0017823Y0006495D02*
Y0004615D01*
X0019011Y0005555D02*
Y0005175D01*
X0018845Y0005151D02*
X0018975D01*
X0018845Y0005052D02*
X0018975D01*
X0018845Y0004953D02*
X0018975D01*
X0018845Y0004854D02*
X0018975D01*
X0019704Y0006505D02*
Y0006285D01*
X0018845Y0004557D02*
X0018975D01*
X0019407Y0006505D02*
Y0006285D01*
X0018625Y0005448D02*
X0020080D01*
X0019407Y0003505D02*
Y0001576D01*
X0010003Y0005791D02*
Y0005336D01*
X0019805Y0005052D02*
X0020105D01*
X0019805Y0003864D02*
X0020279D01*
X0018845Y0003705D02*
X0018975D01*
X0018845Y0004135D02*
X0018975D01*
X0018845Y0004260D02*
X0018975D01*
X0018912Y0003705D02*
Y0001639D01*
X0016735Y0008814D02*
X0017369D01*
X0023763Y0016689D02*
Y0015670D01*
X0015900Y0008220D02*
X0016775D01*
X0017645Y0004854D02*
X0018015D01*
X0017128Y0007824D02*
X0019446D01*
X0017805Y0006925D02*
X0018445D01*
X0018625Y0005175D02*
X0018845D01*
X0018015D02*
X0018195D01*
X0012082Y0016510D02*
Y0016302D01*
X0014160Y0018110D02*
Y0016948D01*
X0018625Y0005555D02*
X0018745D01*
X0016943Y0006438D02*
X0016975D01*
X0016845Y0007032D02*
X0016975D01*
X0017625Y0008321D02*
Y0007125D01*
X0009013Y0000650D02*
Y0000300D01*
X0017805Y0006339D02*
X0018445D01*
X0016940Y0006925D02*
X0016975D01*
X0017805Y0006141D02*
X0018075D01*
X0014655Y0018738D02*
Y0018562D01*
X0014754Y0018834D02*
Y0017668D01*
X0015358Y0005900D02*
X0015471D01*
X0017805Y0005844D02*
X0018075D01*
X0017805Y0005745D02*
X0018075D01*
X0012665Y0008913D02*
X0015335D01*
X0018219Y0023055D02*
Y0022110D01*
X0023229Y0016139D02*
X0023831D01*
X0012972Y0022750D02*
Y0022715D01*
X0015843Y0015849D02*
Y0015663D01*
X0016239Y0016385D02*
Y0016059D01*
X0015546Y0015645D02*
Y0015366D01*
X0015980Y0017710D02*
X0016045Y0017645D01*
X0014831Y0018911D02*
X0014940D01*
X0004459Y0016494D02*
Y0013690D01*
X0003260Y0023320D02*
Y0019846D01*
Y0019901D02*
X0003315D01*
X0014853Y0018934D02*
Y0017566D01*
X0016875Y0016876D02*
Y0016695D01*
X0013576Y0016931D02*
X0013661D01*
X0014259Y0004510D02*
Y0001487D01*
X0010959Y0021881D02*
X0011682D01*
X0015546Y0017710D02*
Y0017252D01*
X0016125Y0016385D02*
X0016565D01*
X0008830Y0012576D02*
X0011765D01*
X0012280Y0012316D02*
Y0012264D01*
X0015051Y0017938D02*
Y0017150D01*
X0015025Y0017965D02*
X0015194Y0017796D01*
X0014253Y0016832D02*
X0014276D01*
X0015362Y0017129D02*
X0015536D01*
X0009608Y0013268D02*
X0012363D01*
X0007266Y0021683D02*
X0010337D01*
X0015544Y0016832D02*
X0015695D01*
X0016125Y0016385D02*
Y0016220D01*
X0014160Y0010666D02*
Y0007050D01*
X0016140Y0023055D02*
Y0022669D01*
X0017922Y0023055D02*
Y0022638D01*
X0014981Y0011487D02*
X0016036D01*
X0011356Y0007824D02*
X0014934D01*
X0009310Y0017845D02*
Y0017426D01*
X0010894Y0023320D02*
Y0021947D01*
X0010645Y0022475D02*
X0012410D01*
X0010003Y0023320D02*
Y0022975D01*
X0009211Y0023320D02*
Y0022975D01*
X0009310Y0023320D02*
Y0022975D01*
X0009409Y0023320D02*
Y0022975D01*
X0009508Y0023320D02*
Y0022975D01*
X0009013Y0023320D02*
Y0022975D01*
X0009112Y0023320D02*
Y0022975D01*
X0007290Y0023168D02*
X0011710D01*
X0009508Y0022145D02*
Y0020722D01*
X0009607Y0023320D02*
Y0022975D01*
X0007456Y0022871D02*
X0008975D01*
X0007489Y0022772D02*
X0008975D01*
X0007513Y0022673D02*
X0008975D01*
X0007528Y0022574D02*
X0008975D01*
X0007535Y0022475D02*
X0008975D01*
X0016845Y0006933D02*
X0016975D01*
X0018021Y0006495D02*
Y0005175D01*
X0010597Y0023320D02*
Y0022975D01*
X0019308Y0022074D02*
Y0021420D01*
X0017858Y0022178D02*
X0019182D01*
X0019209Y0006505D02*
Y0006285D01*
X0019110Y0008160D02*
Y0007125D01*
X0017645Y0004755D02*
X0018015D01*
X0018195Y0005555D02*
Y0005175D01*
X0018745Y0006240D02*
X0018815D01*
X0018219Y0006495D02*
Y0006285D01*
X0018417Y0011773D02*
Y0006925D01*
X0019209Y0008061D02*
Y0006935D01*
X0019115Y0007125D02*
Y0006935D01*
X0017805Y0007032D02*
X0018445D01*
X0009240Y0010992D02*
X0011008D01*
X0019308Y0005555D02*
Y0005175D01*
X0018845Y0004755D02*
X0018975D01*
X0018745Y0006042D02*
X0018815D01*
X0018745Y0005943D02*
X0018815D01*
X0010140Y0002980D02*
Y0002015D01*
X0009805Y0005895D02*
Y0005470D01*
X0009607Y0006093D02*
Y0005437D01*
X0016932Y0023055D02*
Y0022708D01*
X0007880Y0008814D02*
X0009546D01*
X0019330Y0010893D02*
X0019845D01*
X0019330Y0010992D02*
X0019845D01*
X0019330Y0011091D02*
X0019845D01*
X0014920Y0005615D02*
X0015680D01*
X0019330Y0011190D02*
X0019845D01*
X0019597Y0012872D02*
X0019845D01*
X0012181Y0001027D02*
Y0000300D01*
X0010795Y0005705D02*
Y0005472D01*
X0012370Y0005151D02*
X0014920D01*
X0011290Y0008366D02*
Y0007891D01*
X0007832Y0005646D02*
X0010854D01*
X0003260Y0004755D02*
X0008960D01*
X0009508Y0004336D02*
Y0003425D01*
X0009836Y0002676D02*
X0010140D01*
X0017823Y0022141D02*
Y0022110D01*
X0012676Y0005530D02*
Y0004176D01*
X0012576Y0005506D02*
Y0004077D01*
X0013710Y0005090D02*
X0014920D01*
X0019506Y0005675D02*
Y0005175D01*
X0012370Y0005349D02*
X0014920D01*
X0013764Y0005975D02*
Y0005090D01*
X0013504Y0005004D02*
X0011510Y0003010D01*
X0012370Y0005250D02*
X0014920D01*
X0013962Y0006173D02*
Y0005090D01*
X0014655Y0004510D02*
Y0001701D01*
X0014457Y0000983D02*
Y0000300D01*
X0014160Y0001120D02*
Y0000300D01*
X0014920Y0005615D02*
Y0005090D01*
X0017805Y0006240D02*
X0018075D01*
X0016015Y0006215D02*
Y0006034D01*
X0015051Y0007262D02*
Y0006515D01*
X0015150Y0005774D02*
Y0005615D01*
X0014821Y0007032D02*
X0015587D01*
X0011983Y0000956D02*
Y0000300D01*
X0014655Y0000959D02*
Y0000300D01*
X0015348Y0003985D02*
Y0001681D01*
X0011413Y0003468D02*
X0011968D01*
X0013830Y0004510D02*
X0014920D01*
X0005746Y0001695D02*
Y0000300D01*
X0006575Y0001983D02*
X0006971D01*
X0006575Y0002577D02*
X0007150D01*
X0006575Y0002478D02*
X0007038D01*
X0006575Y0002379D02*
X0006975D01*
X0006575Y0002280D02*
X0006941D01*
X0006575Y0002181D02*
X0006930D01*
X0006575Y0002082D02*
X0006940D01*
X0003260Y0010200D02*
X0006750D01*
X0007825Y0003702D02*
Y0003399D01*
X0006575Y0001785D02*
X0007136D01*
X0006934Y0003117D02*
Y0002235D01*
X0007033Y0002881D02*
Y0002471D01*
X0007674Y0001785D02*
X0008340D01*
X0007496Y0002710D02*
X0007595Y0002612D01*
X0007861Y0002455D02*
X0008400D01*
X0007330Y0002708D02*
Y0002645D01*
X0003260Y0003369D02*
X0005669D01*
X0007726Y0001826D02*
Y0000300D01*
X0006361Y0003567D02*
X0007135D01*
X0007825Y0006631D02*
Y0006077D01*
Y0005631D02*
Y0004651D01*
X0006934Y0005798D02*
Y0003235D01*
X0010460Y0004295D02*
Y0004120D01*
X0007871Y0003270D02*
X0008400D01*
X0007330Y0003702D02*
Y0003645D01*
X0007429Y0003702D02*
Y0003651D01*
X0007528Y0003702D02*
Y0003635D01*
X0007627Y0003702D02*
Y0003596D01*
X0003260Y0002874D02*
X0005729D01*
X0007132Y0002788D02*
Y0002565D01*
X0006575Y0003171D02*
X0006930D01*
X0006565Y0003072D02*
X0006942D01*
X0006564Y0003270D02*
X0006939D01*
X0008221Y0009482D02*
Y0002985D01*
X0007033Y0005559D02*
Y0004651D01*
X0009409Y0006212D02*
Y0005428D01*
X0007231Y0005412D02*
Y0004651D01*
X0007330Y0005385D02*
Y0004651D01*
X0007429Y0005379D02*
Y0004651D01*
X0007528Y0005395D02*
Y0004651D01*
X0007627Y0005434D02*
Y0004651D01*
X0006142Y0005370D02*
Y0004643D01*
X0007132Y0003702D02*
Y0003565D01*
X0006376Y0004557D02*
X0006930D01*
X0006478Y0004458D02*
X0006930D01*
X0006536Y0004359D02*
X0006930D01*
X0006566Y0004260D02*
X0006930D01*
X0006575Y0004161D02*
X0006930D01*
X0006562Y0004062D02*
X0006930D01*
X0006527Y0003963D02*
X0006930D01*
X0006439Y0007501D02*
Y0007188D01*
X0007726Y0003702D02*
Y0003527D01*
X0005647Y0004028D02*
Y0003312D01*
X0005845Y0003769D02*
Y0003570D01*
X0003260Y0005448D02*
X0005636D01*
X0003260Y0004557D02*
X0005824D01*
X0003260Y0004458D02*
X0005722D01*
X0003260Y0004359D02*
X0005664D01*
X0003260Y0004260D02*
X0005634D01*
X0003260Y0004161D02*
X0005625D01*
X0003260Y0003270D02*
X0005636D01*
X0003260Y0003963D02*
X0005673D01*
X0003260Y0005547D02*
X0005636D01*
X0006439Y0003837D02*
Y0003503D01*
X0003260Y0003864D02*
X0005737D01*
X0006463D02*
X0006930D01*
X0006142Y0003697D02*
Y0003643D01*
X0006241Y0003716D02*
Y0003624D01*
X0006340Y0003760D02*
Y0003580D01*
X0005845Y0005370D02*
Y0004570D01*
X0003260Y0004062D02*
X0005638D01*
X0003260Y0003567D02*
X0005839D01*
X0003260Y0003468D02*
X0005730D01*
X0022860Y0004260D02*
X0022910D01*
X0006538Y0003986D02*
Y0003354D01*
X0005647Y0005370D02*
Y0004312D01*
X0005845Y0002769D02*
Y0002645D01*
X0003260Y0003765D02*
X0005852D01*
X0003260Y0003171D02*
X0005625D01*
X0003260Y0003072D02*
X0005635D01*
X0003260Y0002973D02*
X0005668D01*
X0022699Y0004359D02*
X0022910D01*
X0006531Y0003369D02*
X0006971D01*
X0005944Y0005370D02*
Y0004618D01*
Y0003721D02*
Y0003618D01*
X0006043Y0003699D02*
Y0003641D01*
X0006241Y0005370D02*
Y0004624D01*
X0006340Y0005370D02*
Y0004580D01*
X0012194Y0002874D02*
X0016885D01*
X0006471D02*
X0007039D01*
X0006538Y0005370D02*
Y0004354D01*
X0005746Y0002854D02*
Y0002645D01*
X0003260Y0002775D02*
X0005836D01*
X0003260Y0002577D02*
X0005625D01*
X0003260Y0002478D02*
X0005625D01*
X0003260Y0002379D02*
X0005625D01*
X0003260Y0002280D02*
X0005625D01*
X0003260Y0002181D02*
X0005625D01*
X0003260Y0002082D02*
X0005625D01*
X0003260Y0001983D02*
X0005625D01*
X0008221Y0002455D02*
Y0000300D01*
X0006575Y0001884D02*
X0007031D01*
X0006532Y0002973D02*
X0006976D01*
X0005944Y0002721D02*
Y0002645D01*
X0006043Y0002699D02*
Y0002645D01*
X0006142Y0002697D02*
Y0002645D01*
X0006241Y0002716D02*
Y0002645D01*
X0022129Y0009012D02*
X0022680D01*
X0021189Y0008095D02*
Y0008020D01*
X0022513Y0008616D02*
X0022680D01*
X0021684Y0008234D02*
Y0008020D01*
Y0009070D02*
Y0008856D01*
X0006439Y0001695D02*
Y0000300D01*
X0021882Y0009070D02*
Y0008991D01*
X0021981Y0009070D02*
Y0009015D01*
X0022080Y0009070D02*
Y0009018D01*
X0021783Y0009070D02*
Y0008942D01*
X0021478Y0009705D02*
X0021568D01*
X0022487Y0008715D02*
X0022680D01*
X0021568Y0010020D02*
Y0009536D01*
X0021387Y0008283D02*
Y0008020D01*
X0021486Y0008419D02*
Y0008020D01*
X0021660Y0008913D02*
X0021743D01*
X0021644Y0008814D02*
X0021652D01*
X0021541Y0008517D02*
X0021569D01*
X0018175Y0009804D02*
X0018750D01*
X0006586Y0005547D02*
X0007043D01*
X0022179Y0009070D02*
Y0009000D01*
X0021585Y0010943D02*
Y0010020D01*
X0021684Y0010765D02*
Y0010020D01*
X0021783Y0010681D02*
Y0010020D01*
X0021882Y0010632D02*
Y0010020D01*
X0022080Y0010607D02*
Y0010020D01*
X0022518Y0009210D02*
X0022680D01*
X0021981Y0010609D02*
Y0010020D01*
X0022278Y0010669D02*
Y0010020D01*
X0021668Y0009012D02*
X0021957D01*
X0021206Y0010002D02*
X0021568D01*
X0021318Y0009903D02*
X0021568D01*
X0021407Y0009804D02*
X0021568D01*
X0021090Y0011727D02*
Y0010082D01*
X0003260Y0006240D02*
X0005636D01*
X0022476Y0010892D02*
Y0010020D01*
X0007726Y0005503D02*
Y0004651D01*
X0007132Y0005466D02*
Y0004651D01*
X0006586Y0006141D02*
X0007027D01*
X0007033Y0006559D02*
Y0006148D01*
X0007759Y0006537D02*
X0008960D01*
X0007330Y0006385D02*
Y0006323D01*
X0007429Y0006379D02*
Y0006328D01*
X0007528Y0006395D02*
Y0006313D01*
X0007627Y0006434D02*
Y0006274D01*
X0006043Y0005370D02*
Y0004641D01*
X0006934Y0006798D02*
Y0005910D01*
X0006586Y0006042D02*
X0006969D01*
X0006586Y0005943D02*
X0006939D01*
X0006586Y0005844D02*
X0006931D01*
X0006586Y0005745D02*
X0006943D01*
X0006586Y0005646D02*
X0006978D01*
X0007825Y0008379D02*
Y0008077D01*
X0007132Y0006466D02*
Y0006242D01*
X0006934Y0007798D02*
Y0006910D01*
X0007033Y0007559D02*
Y0007148D01*
X0009013Y0009347D02*
Y0007312D01*
X0007726Y0006503D02*
Y0006204D01*
X0007330Y0007385D02*
Y0007323D01*
X0007429Y0007379D02*
Y0007328D01*
X0007528Y0007395D02*
Y0007313D01*
X0007627Y0007434D02*
Y0007274D01*
X0003260Y0006537D02*
X0005749D01*
X0007231Y0007412D02*
Y0007295D01*
X0006389Y0007230D02*
X0007115D01*
X0006490Y0007131D02*
X0007020D01*
X0006547Y0007032D02*
X0006965D01*
X0006578Y0006933D02*
X0006937D01*
X0006586Y0006834D02*
X0006931D01*
X0006573Y0006735D02*
X0006946D01*
X0006537Y0006636D02*
X0006983D01*
X0003260Y0007527D02*
X0005758D01*
X0007798Y0008121D02*
X0010239D01*
X0007825Y0007631D02*
Y0007077D01*
X0006402Y0008220D02*
X0007103D01*
X0006497Y0008121D02*
X0007013D01*
X0006552Y0008022D02*
X0006961D01*
X0006579Y0007923D02*
X0006935D01*
X0006585Y0007824D02*
X0006931D01*
X0006570Y0007725D02*
X0006948D01*
X0006637Y0016826D02*
Y0000300D01*
X0007726Y0009439D02*
Y0009329D01*
X0006736Y0010239D02*
Y0000300D01*
X0007033Y0008379D02*
Y0008148D01*
X0007880Y0008715D02*
X0009645D01*
X0006141Y0008319D02*
X0007308D01*
X0007330Y0008379D02*
Y0008323D01*
X0007429Y0008379D02*
Y0008328D01*
X0007528Y0008379D02*
Y0008313D01*
X0007627Y0008379D02*
Y0008274D01*
X0006439Y0008501D02*
Y0008188D01*
X0005845Y0010195D02*
Y0009238D01*
X0007132Y0009684D02*
Y0009329D01*
X0006213Y0009309D02*
X0006930D01*
X0006415Y0009210D02*
X0006930D01*
X0006464Y0007527D02*
X0007061D01*
X0007726Y0007503D02*
Y0007204D01*
X0006934Y0009880D02*
Y0007910D01*
X0008419Y0009563D02*
Y0003425D01*
X0009904Y0009505D02*
Y0009276D01*
X0008617Y0009690D02*
Y0003425D01*
X0007330Y0009559D02*
Y0009329D01*
X0007429Y0009514D02*
Y0009329D01*
X0007528Y0009480D02*
Y0009329D01*
X0003260Y0008517D02*
X0005767D01*
X0007132Y0008379D02*
Y0008242D01*
X0006581Y0008913D02*
X0006930D01*
X0006585Y0008814D02*
X0006930D01*
X0006568Y0008715D02*
X0006930D01*
X0006527Y0008616D02*
X0006930D01*
X0006504Y0009111D02*
X0006930D01*
X0007726Y0008379D02*
Y0008204D01*
X0003260Y0009210D02*
X0005807D01*
X0005449Y0010195D02*
Y0000300D01*
X0003260Y0009111D02*
X0005717D01*
X0005845Y0008451D02*
Y0008238D01*
X0003260Y0009507D02*
X0007448D01*
X0003260Y0008913D02*
X0005641D01*
X0003260Y0008814D02*
X0005637D01*
X0003260Y0008715D02*
X0005654D01*
X0003260Y0008616D02*
X0005695D01*
X0007231Y0009615D02*
Y0009329D01*
X0003260Y0010002D02*
X0006848D01*
X0005944Y0010195D02*
Y0009289D01*
X0006043Y0010195D02*
Y0009315D01*
X0006142Y0010195D02*
Y0009319D01*
X0006241Y0010195D02*
Y0009302D01*
X0006736Y0016831D02*
Y0016455D01*
X0012902Y0009408D02*
X0015335D01*
X0006538Y0008637D02*
Y0008053D01*
X0005647Y0010195D02*
Y0008946D01*
X0006532Y0007626D02*
X0006989D01*
X0005746Y0008541D02*
Y0008148D01*
X0003260Y0008418D02*
X0005903D01*
X0003260Y0008220D02*
X0005819D01*
X0003260Y0008121D02*
X0005724D01*
X0003260Y0008022D02*
X0005670D01*
X0003260Y0007923D02*
X0005642D01*
X0003260Y0007824D02*
X0005636D01*
X0003260Y0007725D02*
X0005651D01*
X0005845Y0007451D02*
Y0007238D01*
X0012240Y0008121D02*
X0012368D01*
X0003260Y0006438D02*
X0005866D01*
X0006454Y0008517D02*
X0006930D01*
X0005944Y0008400D02*
Y0008289D01*
X0006043Y0008375D02*
Y0008315D01*
X0006142Y0008371D02*
Y0008319D01*
X0006241Y0008388D02*
Y0008302D01*
X0006340Y0008429D02*
Y0008261D01*
X0006538Y0007637D02*
Y0007053D01*
X0003260Y0007626D02*
X0005689D01*
X0005845Y0006451D02*
Y0006320D01*
X0003260Y0007428D02*
X0005884D01*
X0003260Y0007230D02*
X0005833D01*
X0003260Y0007131D02*
X0005732D01*
X0003260Y0007032D02*
X0005674D01*
X0003260Y0006933D02*
X0005644D01*
X0003260Y0006834D02*
X0005636D01*
X0003260Y0006141D02*
X0005636D01*
X0003260Y0006636D02*
X0005684D01*
X0007132Y0001788D02*
Y0000300D01*
X0006472Y0006537D02*
X0007052D01*
X0005944Y0006400D02*
Y0006320D01*
X0006043Y0006375D02*
Y0006320D01*
X0006142Y0006371D02*
Y0006320D01*
X0006241Y0006388D02*
Y0006320D01*
X0006340Y0006429D02*
Y0006320D01*
X0005746Y0006541D02*
Y0006320D01*
X0003260Y0006735D02*
X0005649D01*
X0006439Y0006501D02*
Y0006320D01*
X0006538Y0006637D02*
Y0006320D01*
X0005647Y0007744D02*
Y0006946D01*
X0014425Y0006636D02*
X0015191D01*
X0006586Y0006240D02*
X0007129D01*
X0007132Y0007466D02*
Y0007242D01*
X0005944Y0007400D02*
Y0007289D01*
X0006043Y0007375D02*
Y0007315D01*
X0006142Y0007371D02*
Y0007319D01*
X0006241Y0007388D02*
Y0007302D01*
X0021783Y0013605D02*
Y0013479D01*
X0021585Y0016320D02*
Y0015901D01*
X0021684Y0016320D02*
Y0014555D01*
X0021783Y0016320D02*
Y0014555D01*
X0021288Y0016320D02*
Y0016191D01*
X0009013Y0022145D02*
Y0020249D01*
X0009706Y0022145D02*
Y0020765D01*
X0012774Y0020800D02*
Y0020671D01*
X0007330Y0019065D02*
Y0018365D01*
X0007506Y0022178D02*
X0008975D01*
X0010003Y0022048D02*
Y0020765D01*
X0009805Y0023320D02*
Y0020765D01*
X0011191Y0023320D02*
Y0021650D01*
X0013487Y0020198D02*
X0013850D01*
X0010201Y0021819D02*
Y0020765D01*
X0010300Y0021720D02*
Y0020765D01*
X0010399Y0021621D02*
Y0020765D01*
X0010065Y0021955D02*
X0011134Y0020886D01*
X0011785Y0021400D02*
Y0021380D01*
X0011389Y0020800D02*
Y0020765D01*
X0011290Y0020804D02*
Y0020765D01*
X0008830Y0012378D02*
X0011883D01*
X0012835Y0013763D02*
X0013779D01*
X0009805Y0014238D02*
Y0010180D01*
X0013051Y0013565D02*
X0013581D01*
X0004261Y0012856D02*
Y0012296D01*
X0011983Y0014619D02*
Y0014608D01*
X0008830Y0012476D02*
X0011803D01*
X0012676Y0013037D02*
Y0012660D01*
X0008830Y0012774D02*
X0011773D01*
X0011587Y0014004D02*
Y0011571D01*
X0005647Y0016494D02*
Y0012441D01*
X0013057Y0013268D02*
X0013284D01*
X0012379Y0013235D02*
Y0012941D01*
X0011983Y0013798D02*
Y0013005D01*
X0012505Y0012674D02*
X0012690D01*
X0009240Y0010794D02*
X0010583D01*
X0008830Y0012279D02*
X0012294D01*
X0011785Y0012514D02*
Y0011769D01*
X0014061Y0014325D02*
Y0014045D01*
X0014259Y0014325D02*
Y0014243D01*
X0009240Y0011190D02*
X0011206D01*
X0012774Y0014325D02*
Y0013779D01*
X0012597Y0013862D02*
X0013878D01*
X0013368Y0014325D02*
Y0013353D01*
X0013467Y0014325D02*
Y0013451D01*
X0013566Y0014325D02*
Y0013551D01*
X0013665Y0014325D02*
Y0013649D01*
X0013764Y0014325D02*
Y0013749D01*
X0013863Y0014325D02*
Y0013847D01*
X0009240Y0010596D02*
X0010481D01*
X0009240Y0010398D02*
X0010499D01*
X0013665Y0005876D02*
Y0005087D01*
X0009412Y0013961D02*
X0011631D01*
X0008830Y0012081D02*
X0012096D01*
X0013081Y0013466D02*
X0013482D01*
X0010399Y0017155D02*
Y0015410D01*
X0008830Y0012674D02*
X0011755D01*
X0012487Y0012774D02*
X0012789D01*
X0012082Y0013699D02*
Y0013032D01*
X0012339Y0012971D02*
X0012987D01*
X0011884Y0013875D02*
Y0012943D01*
X0012280Y0013501D02*
Y0013004D01*
X0012181Y0013600D02*
Y0013032D01*
X0012439Y0012872D02*
X0012888D01*
X0012998Y0013169D02*
X0013185D01*
X0012869Y0013070D02*
X0013086D01*
X0012774Y0013041D02*
Y0012759D01*
X0009820Y0014258D02*
X0011495D01*
X0008830Y0012971D02*
X0009171D01*
X0009240Y0011289D02*
X0011305D01*
X0011191Y0014830D02*
Y0011175D01*
X0009065Y0011586D02*
X0011601D01*
X0008867Y0011784D02*
X0011799D01*
X0012874Y0008197D02*
Y0006010D01*
X0014326Y0006537D02*
X0015092D01*
X0010069Y0009111D02*
X0011091D01*
X0011092Y0009110D02*
Y0009037D01*
X0011455Y0007725D02*
X0014835D01*
X0018417Y0006495D02*
Y0006285D01*
X0009508Y0016591D02*
Y0014878D01*
X0015985Y0008418D02*
X0016085D01*
X0012972Y0014325D02*
Y0013678D01*
X0012874Y0013072D02*
Y0012858D01*
X0011587Y0008336D02*
Y0007594D01*
X0024232Y0015722D02*
X0024181Y0015670D01*
X0010716Y0010180D02*
X0010571Y0010035D01*
X0007822Y0007626D02*
X0010734D01*
X0010102Y0008258D02*
Y0007394D01*
X0012300Y0014159D02*
X0014175D01*
X0010102Y0021918D02*
Y0020765D01*
X0022377Y0016345D02*
Y0015939D01*
X0020830Y0010200D02*
X0022680D01*
X0012167Y0006933D02*
X0014043D01*
X0003845Y0014753D02*
X0009264D01*
X0008561Y0015644D02*
X0011424D01*
X0007880Y0009012D02*
X0009348D01*
X0004683Y0013466D02*
X0006725D01*
X0014170Y0015280D02*
X0014275D01*
X0007880Y0008418D02*
X0009942D01*
X0014080Y0016160D02*
Y0015370D01*
X0015447Y0017710D02*
Y0017077D01*
X0009805Y0009460D02*
Y0009376D01*
X0005080Y0013070D02*
X0008250D01*
X0004981Y0013169D02*
X0008250D01*
X0004881Y0013268D02*
X0008250D01*
X0006445Y0011883D02*
X0008250D01*
X0023070Y0020725D02*
Y0020128D01*
X0016565Y0016385D02*
X0015545Y0015365D01*
X0022674Y0020725D02*
Y0020181D01*
X0023198Y0020000D02*
X0023830D01*
X0022872Y0020725D02*
Y0020213D01*
X0022187Y0020396D02*
X0023730D01*
X0023250Y0018317D02*
X0023859D01*
X0023185Y0018911D02*
Y0018832D01*
X0019805Y0004755D02*
X0022230D01*
X0020909Y0004260D02*
X0022320D01*
X0022773Y0004533D02*
Y0004327D01*
X0020694Y0005025D02*
Y0004454D01*
X0019803Y0005545D02*
Y0005175D01*
X0020046Y0005646D02*
X0022225D01*
X0019805Y0004854D02*
X0022215D01*
X0022882Y0003765D02*
X0022910D01*
X0020397Y0003767D02*
Y0003514D01*
X0021882Y0020725D02*
Y0020651D01*
X0007152Y0023320D02*
X0011862D01*
X0020001Y0003995D02*
Y0001859D01*
X0020298Y0003842D02*
Y0003495D01*
X0019805Y0003963D02*
X0020221D01*
X0020496Y0003732D02*
Y0003507D01*
X0018714Y0005555D02*
Y0005175D01*
X0019115Y0006505D02*
Y0006295D01*
Y0006505D02*
X0020166D01*
X0019605Y0005594D02*
Y0005175D01*
X0017805Y0006495D02*
X0018445D01*
X0019485Y0005702D02*
Y0005555D01*
X0020001Y0006505D02*
Y0006230D01*
X0019115Y0006438D02*
X0020105D01*
X0019115Y0007032D02*
X0019879D01*
X0020793Y0006968D02*
Y0006935D01*
X0020298Y0006975D02*
Y0006935D01*
X0019803Y0007126D02*
Y0006935D01*
X0019330Y0009804D02*
X0019531D01*
X0019902Y0006505D02*
Y0006278D01*
X0020233Y0004656D02*
X0022275D01*
X0018166Y0008913D02*
X0018750D01*
X0016732Y0007428D02*
X0019774D01*
X0018019Y0008715D02*
X0018750D01*
X0020694Y0002884D02*
Y0002828D01*
X0021981Y0008074D02*
Y0008020D01*
X0022080Y0008071D02*
Y0008020D01*
X0021189Y0011628D02*
Y0010015D01*
X0021222Y0008121D02*
X0021829D01*
X0015744Y0007955D02*
Y0007189D01*
X0018474Y0012465D02*
X0019100D01*
X0021882Y0008098D02*
Y0008020D01*
X0021076D02*
X0022120D01*
X0017524Y0008220D02*
X0019050D01*
X0021585Y0008419D02*
Y0008020D01*
X0016040Y0011982D02*
X0016531D01*
X0021090Y0006505D02*
Y0003083D01*
X0015811Y0008022D02*
X0016577D01*
X0020100Y0006505D02*
Y0006431D01*
X0015150Y0001151D02*
Y0000300D01*
X0015051Y0003985D02*
Y0000300D01*
X0015249Y0001034D02*
Y0000300D01*
X0014764Y0000993D02*
X0015316D01*
X0014952Y0003985D02*
Y0001458D01*
X0015348Y0000979D02*
Y0000300D01*
X0014718Y0001686D02*
X0015362D01*
X0014948Y0001191D02*
X0015132D01*
X0014853Y0001054D02*
Y0000300D01*
X0015447Y0003985D02*
Y0001704D01*
X0014873Y0001587D02*
X0015207D01*
X0014940Y0001488D02*
X0015140D01*
X0013481Y0004161D02*
X0014920D01*
X0015853Y0001290D02*
X0017407D01*
X0014952Y0001202D02*
Y0000300D01*
X0015546Y0000961D02*
Y0000300D01*
X0013263Y0001290D02*
X0013477D01*
X0014890Y0001092D02*
X0015190D01*
X0013968Y0001686D02*
X0014482D01*
X0014198Y0001191D02*
X0014252D01*
X0014140Y0001092D02*
X0014310D01*
X0014014Y0000993D02*
X0014436D01*
X0014123Y0001587D02*
X0014327D01*
X0012370Y0004953D02*
X0013453D01*
X0014190Y0001488D02*
X0014260D01*
X0015447Y0000956D02*
Y0000300D01*
X0014259Y0001173D02*
Y0000300D01*
X0014358Y0001043D02*
Y0000300D01*
Y0004510D02*
Y0001617D01*
X0015546Y0005824D02*
Y0005615D01*
X0013170Y0003850D02*
Y0001579D01*
X0011550Y0001290D02*
X0011587D01*
X0013962Y0000972D02*
Y0000300D01*
X0014061Y0001020D02*
Y0000300D01*
X0013238Y0001191D02*
X0013502D01*
X0012774Y0000973D02*
Y0000300D01*
X0013071Y0003751D02*
Y0001658D01*
X0013269Y0003949D02*
Y0000300D01*
X0013071Y0001002D02*
Y0000300D01*
X0013962Y0004510D02*
Y0001688D01*
X0013180Y0001092D02*
X0013560D01*
X0013054Y0000993D02*
X0013686D01*
X0013163Y0001587D02*
X0013577D01*
X0013230Y0001488D02*
X0013510D01*
X0018445Y0007125D02*
Y0006925D01*
X0013260Y0001389D02*
X0013480D01*
X0012972Y0005530D02*
Y0004473D01*
X0012576Y0001124D02*
Y0000300D01*
X0012308Y0001191D02*
X0012542D01*
X0012250Y0001092D02*
X0012600D01*
X0012124Y0000993D02*
X0012726D01*
X0012478Y0003157D02*
Y0000300D01*
X0012576Y0003256D02*
Y0001536D01*
X0012280Y0014341D02*
Y0014180D01*
X0011320Y0002430D02*
X0011630D01*
X0012333Y0001290D02*
X0012517D01*
X0011320Y0003072D02*
X0011572D01*
X0020892Y0002153D02*
Y0001633D01*
X0012233Y0001587D02*
X0012617D01*
X0011550Y0001686D02*
X0011842D01*
X0011550Y0001191D02*
X0011612D01*
X0011550Y0001092D02*
X0011670D01*
X0011550Y0000993D02*
X0011796D01*
X0011550Y0001587D02*
X0011687D01*
X0011550Y0001488D02*
X0011620D01*
X0009580Y0002082D02*
X0010140D01*
X0011329Y0003369D02*
X0011869D01*
X0013008Y0001686D02*
X0013732D01*
X0011320Y0002430D02*
Y0002015D01*
X0012676Y0001022D02*
Y0000300D01*
X0011587Y0001296D02*
Y0000300D01*
X0011686Y0001074D02*
Y0000300D01*
X0011785Y0000999D02*
Y0000300D01*
X0012972Y0000964D02*
Y0000300D01*
X0010696Y0002015D02*
Y0000300D01*
X0013863Y0000955D02*
Y0000300D01*
X0015843Y0003985D02*
Y0001423D01*
X0015249Y0003985D02*
Y0001626D01*
X0018153Y0001290D02*
X0018327D01*
X0014973D02*
X0015107D01*
X0015598Y0001686D02*
X0017662D01*
X0017229Y0002715D02*
Y0000300D01*
X0017625Y0000988D02*
Y0000300D01*
X0016885Y0003505D02*
Y0002715D01*
X0009540Y0013565D02*
X0012215D01*
X0009056Y0016139D02*
X0011919D01*
X0008966Y0011685D02*
X0011701D01*
X0018175Y0003505D02*
Y0002715D01*
X0017823Y0000957D02*
Y0000300D01*
X0012379Y0003058D02*
Y0000300D01*
X0018818Y0001686D02*
X0019921D01*
X0012330Y0001389D02*
X0012520D01*
X0019048Y0001191D02*
X0019288D01*
X0018990Y0001092D02*
X0019332D01*
X0018417Y0001084D02*
Y0000300D01*
X0018318Y0002715D02*
Y0000300D01*
X0019011Y0003505D02*
Y0001539D01*
X0019506Y0000944D02*
Y0000300D01*
X0018714Y0000955D02*
Y0000300D01*
X0010046Y0017129D02*
X0011860D01*
X0018625Y0005547D02*
X0019753D01*
X0018864Y0000993D02*
X0019421D01*
X0018912Y0001021D02*
Y0000300D01*
X0019040Y0001488D02*
X0019332D01*
X0017575Y0003270D02*
X0018175D01*
X0020397Y0004895D02*
Y0004433D01*
X0018865Y0003468D02*
X0020238D01*
X0018714Y0002715D02*
Y0001705D01*
X0020789Y0003072D02*
X0020952D01*
X0020919Y0003963D02*
X0022217D01*
X0020602Y0003468D02*
X0022371D01*
X0020793Y0006505D02*
Y0004401D01*
X0020199Y0004044D02*
Y0003443D01*
X0018865Y0003369D02*
X0020123D01*
X0020595Y0003726D02*
Y0003472D01*
X0020991Y0011825D02*
Y0010135D01*
X0020496Y0002773D02*
Y0002623D01*
X0020793Y0003103D02*
Y0002983D01*
X0020756Y0002973D02*
X0020783D01*
X0019407Y0001004D02*
Y0000300D01*
X0019209Y0003505D02*
Y0000300D01*
X0018053Y0001587D02*
X0018427D01*
X0019879D02*
X0019916D01*
X0020506Y0002775D02*
X0020681D01*
X0017898Y0001686D02*
X0018582D01*
X0018128Y0001191D02*
X0018352D01*
X0019506Y0003505D02*
Y0001636D01*
X0020025Y0001290D02*
X0020112D01*
X0018845Y0003567D02*
X0018975D01*
X0022194Y0008094D02*
X0022120Y0008020D01*
X0020595Y0005894D02*
Y0005596D01*
X0009180Y0000696D02*
X0010710D01*
X0018120Y0003505D02*
Y0001488D01*
X0020468Y0001290D02*
X0020809D01*
X0020585Y0001389D02*
X0020822D01*
X0018813Y0000972D02*
Y0000300D01*
X0019308Y0003505D02*
Y0001444D01*
X0018021Y0001043D02*
Y0000300D01*
X0019407Y0005555D02*
Y0005175D01*
X0020397Y0002766D02*
Y0002601D01*
X0011897Y0002577D02*
X0020346D01*
X0011550Y0001884D02*
X0020024D01*
X0021288Y0006505D02*
Y0003000D01*
X0021226Y0002379D02*
X0021931D01*
X0018865Y0003171D02*
X0020046D01*
X0020199Y0002837D02*
Y0002427D01*
X0020298Y0002785D02*
Y0002545D01*
X0020892Y0002370D02*
Y0002347D01*
X0011320Y0003171D02*
X0011671D01*
X0011320Y0002280D02*
X0020156D01*
X0021486Y0006505D02*
Y0002264D01*
X0009273Y0002015D02*
X0009580D01*
X0012095Y0002775D02*
X0016885D01*
X0021783Y0002405D02*
Y0002361D01*
X0021387Y0002874D02*
X0021510D01*
X0021419Y0002775D02*
X0021495D01*
X0021423Y0002676D02*
X0021507D01*
X0021401Y0002577D02*
X0021549D01*
X0021189Y0006505D02*
Y0003058D01*
X0021684Y0002444D02*
Y0002338D01*
X0022080Y0002459D02*
Y0002379D01*
X0022179Y0002558D02*
Y0002368D01*
X0021684Y0006505D02*
Y0003096D01*
X0021882Y0006588D02*
Y0003145D01*
X0020991Y0002340D02*
Y0001825D01*
X0018120Y0001488D02*
X0018360D01*
X0022875Y0003369D02*
X0022910D01*
X0021317Y0002973D02*
X0021555D01*
X0022773Y0002835D02*
Y0002102D01*
X0020772Y0003270D02*
X0022215D01*
X0022910Y0003804D02*
Y0003308D01*
X0019073Y0001290D02*
X0019275D01*
X0022233Y0002676D02*
X0022910D01*
X0021387Y0002546D02*
Y0002211D01*
X0011320Y0002181D02*
X0020161D01*
X0022773Y0003673D02*
Y0003465D01*
X0022872Y0003753D02*
Y0003372D01*
X0022377Y0003691D02*
Y0003472D01*
X0022476Y0003643D02*
Y0003513D01*
X0020610Y0004953D02*
X0022227D01*
X0022575Y0003625D02*
Y0003525D01*
X0022910Y0004664D02*
Y0004196D01*
X0022377Y0004551D02*
Y0004309D01*
X0022476Y0004503D02*
Y0004357D01*
X0022575Y0004485D02*
Y0004375D01*
X0022674Y0004495D02*
Y0004365D01*
X0020892Y0003908D02*
Y0003050D01*
X0022872Y0004613D02*
Y0004247D01*
X0020738Y0003765D02*
X0022298D01*
X0019605Y0000918D02*
Y0000300D01*
X0022278Y0004652D02*
Y0004208D01*
X0022811Y0004557D02*
X0022910D01*
X0020940Y0004161D02*
X0022251D01*
X0020943Y0004062D02*
X0022220D01*
X0022227Y0006933D02*
X0022399D01*
X0020777Y0005349D02*
X0022910D01*
X0022872Y0005483D02*
Y0005107D01*
X0022278Y0005522D02*
Y0005068D01*
X0018845Y0004359D02*
X0018975D01*
X0020715Y0005052D02*
X0022268D01*
X0019264Y0021485D02*
X0020215D01*
X0022910Y0005534D02*
Y0005056D01*
X0022377Y0005421D02*
Y0005169D01*
X0022476Y0005373D02*
Y0005217D01*
X0022575Y0005355D02*
Y0005235D01*
X0022674Y0005365D02*
Y0005225D01*
X0020595Y0002808D02*
Y0002619D01*
X0018745Y0005745D02*
X0018815D01*
X0019805Y0004953D02*
X0020210D01*
X0017623Y0008319D02*
X0018951D01*
X0019485Y0006240D02*
X0019594D01*
X0020740Y0006042D02*
X0022382D01*
X0020199Y0005910D02*
Y0005580D01*
X0020298Y0005862D02*
Y0005628D01*
X0019485Y0005646D02*
X0019534D01*
X0019902Y0005562D02*
Y0004735D01*
X0017645Y0003908D02*
Y0003505D01*
X0020122Y0005745D02*
X0022215D01*
X0018625Y0005349D02*
X0020043D01*
X0019805Y0005151D02*
X0020054D01*
X0021981Y0006687D02*
Y0003128D01*
X0022849Y0006339D02*
X0022910D01*
Y0007616D02*
Y0006806D01*
X0020766Y0006339D02*
X0022331D01*
X0022278Y0006402D02*
Y0005938D01*
X0022179Y0006885D02*
Y0002982D01*
X0019704Y0007566D02*
Y0006935D01*
X0019805Y0003765D02*
X0020402D01*
X0019902Y0007012D02*
Y0006935D01*
X0019115D02*
X0021621D01*
X0022377Y0007083D02*
Y0006919D01*
X0022476Y0006253D02*
Y0006087D01*
X0022575Y0006235D02*
Y0006105D01*
X0022674Y0006245D02*
Y0006095D01*
X0020784Y0005250D02*
X0022910D01*
X0019805Y0003666D02*
X0022420D01*
X0022773Y0005403D02*
Y0005187D01*
X0022575Y0007281D02*
Y0006985D01*
X0022773Y0007479D02*
Y0006937D01*
X0020654Y0006505D02*
X0021710D01*
X0022910Y0006414D02*
Y0005926D01*
X0020784Y0006240D02*
X0022530D01*
X0022773Y0006283D02*
Y0006057D01*
X0020892Y0000729D02*
Y0000300D01*
X0020694Y0001913D02*
Y0000300D01*
X0019115Y0006339D02*
X0020054D01*
X0020157Y0005844D02*
X0022233D01*
X0020199Y0001256D02*
Y0000300D01*
X0020663Y0005547D02*
X0022263D01*
X0020397Y0005845D02*
Y0005645D01*
X0020793Y0003799D02*
Y0003177D01*
X0022092Y0003072D02*
X0022203D01*
X0021345Y0002478D02*
X0021635D01*
X0020100Y0002944D02*
Y0001943D01*
X0018865Y0003072D02*
X0020051D01*
X0012293Y0002973D02*
X0016885D01*
X0019902Y0001012D02*
Y0000300D01*
X0018865Y0002775D02*
X0020334D01*
X0011320Y0002082D02*
X0020195D01*
X0022278Y0002915D02*
Y0002349D01*
X0018318Y0023055D02*
Y0022110D01*
X0017922Y0022282D02*
Y0022110D01*
X0018417Y0023055D02*
Y0022110D01*
X0019110Y0023055D02*
Y0022620D01*
X0019209Y0023055D02*
Y0022771D01*
X0019677Y0022871D02*
X0019885D01*
X0019803Y0022953D02*
Y0022797D01*
X0019830Y0022772D02*
X0019984D01*
X0017787Y0022110D02*
X0018540D01*
X0019407Y0023055D02*
Y0022885D01*
X0017677Y0022871D02*
X0019363D01*
X0017830Y0022772D02*
X0019210D01*
X0017905Y0022673D02*
X0019135D01*
X0017945Y0022574D02*
X0019095D01*
X0017960Y0022475D02*
X0019080D01*
X0017952Y0022376D02*
X0019088D01*
X0022278Y0020725D02*
Y0020122D01*
X0015960Y0022850D02*
X0016445Y0022364D01*
X0017920Y0022277D02*
X0019120D01*
X0016833Y0023055D02*
Y0022725D01*
X0017130Y0023055D02*
Y0022664D01*
X0017229Y0023055D02*
Y0022790D01*
X0017328Y0023055D02*
Y0022856D01*
X0017427Y0023055D02*
Y0022890D01*
X0017625Y0023055D02*
Y0022887D01*
X0015051Y0023055D02*
Y0022920D01*
X0012747Y0020693D02*
X0013347D01*
X0015843Y0023055D02*
Y0022914D01*
X0017823Y0023055D02*
Y0022779D01*
X0005845Y0001695D02*
Y0000300D01*
X0010373Y0005448D02*
X0010627D01*
X0010102Y0005790D02*
Y0005434D01*
X0009373Y0005448D02*
X0009627D01*
X0009420Y0004260D02*
X0009580D01*
X0010597Y0005790D02*
Y0005431D01*
X0009989Y0005349D02*
X0010011D01*
X0020496Y0006964D02*
Y0006935D01*
X0007880Y0004062D02*
X0010402D01*
X0009489Y0005349D02*
X0009511D01*
X0003260Y0000696D02*
X0008340D01*
X0003260Y0005349D02*
X0009011D01*
X0003260Y0005250D02*
X0008967D01*
X0003260Y0005151D02*
X0008960D01*
X0003260Y0005052D02*
X0008960D01*
X0003260Y0004953D02*
X0008960D01*
X0003260Y0004854D02*
X0008960D01*
X0006348Y0003765D02*
X0006930D01*
X0009112Y0006200D02*
Y0005440D01*
X0007880Y0004557D02*
X0008960D01*
X0007880Y0004458D02*
X0008962D01*
X0009211Y0006168D02*
Y0005472D01*
X0009904Y0004249D02*
Y0003564D01*
X0009310Y0006171D02*
Y0005469D01*
Y0022145D02*
Y0020546D01*
X0007924Y0018384D02*
Y0018365D01*
X0007415Y0019703D02*
X0008552D01*
X0006338Y0007428D02*
X0007196D01*
X0009444Y0006240D02*
X0009486D01*
X0009508Y0013077D02*
Y0010142D01*
X0009815Y0007428D02*
X0010185D01*
X0010795Y0014830D02*
Y0010901D01*
X0010201Y0008159D02*
Y0007431D01*
X0015051Y0011557D02*
Y0011249D01*
X0010795Y0007565D02*
Y0007435D01*
X0010696Y0007664D02*
Y0007435D01*
X0008815Y0009545D02*
Y0003425D01*
X0012395Y0017155D02*
X0012420D01*
X0013962Y0018110D02*
Y0017033D01*
X0014952Y0018086D02*
Y0017237D01*
X0014111Y0016337D02*
X0014276D01*
X0012478Y0017160D02*
Y0017145D01*
X0008914Y0013155D02*
Y0011736D01*
X0014080Y0016139D02*
X0014377D01*
X0014358Y0016156D02*
Y0016064D01*
X0014080Y0016040D02*
X0014338D01*
X0015536Y0016931D02*
X0015613D01*
X0015486Y0016535D02*
X0015695D01*
X0015645Y0017710D02*
Y0017426D01*
X0014633Y0017723D02*
X0015313D01*
X0014259Y0018110D02*
Y0017609D01*
X0014358Y0018110D02*
Y0017688D01*
X0014457Y0018113D02*
Y0017726D01*
X0013402Y0017129D02*
X0014244D01*
X0003271Y0023320D02*
Y0019857D01*
X0008205Y0013425D02*
X0008250Y0013380D01*
X0012972Y0003652D02*
Y0001696D01*
X0014754Y0000988D02*
Y0000300D01*
X0014080Y0015743D02*
X0014299D01*
X0013863Y0018110D02*
Y0017031D01*
X0015545Y0015545D02*
X0015725D01*
X0016875Y0016832D02*
X0017012D01*
X0016041Y0017649D02*
Y0017511D01*
X0014556Y0011062D02*
Y0007446D01*
X0012457Y0012476D02*
X0012492D01*
X0021651Y0012774D02*
X0021677D01*
X0013665Y0022575D02*
Y0022419D01*
X0013170Y0019410D02*
Y0019395D01*
X0013566Y0020473D02*
Y0020143D01*
X0003260Y0011883D02*
X0004147D01*
X0014705Y0018416D02*
X0014940D01*
X0021090Y0020725D02*
Y0019210D01*
X0012478Y0013116D02*
Y0012801D01*
X0009240Y0010893D02*
X0010754D01*
X0009907Y0014456D02*
X0011557D01*
X0010498Y0010402D02*
Y0010035D01*
X0010102Y0014651D02*
Y0010035D01*
X0008914Y0009446D02*
Y0003425D01*
X0009614Y0013367D02*
X0012337D01*
X0009310Y0016393D02*
Y0014787D01*
Y0012971D02*
Y0009870D01*
X0010003Y0009599D02*
Y0009178D01*
X0003260Y0009903D02*
X0006916D01*
X0010102Y0009605D02*
Y0009079D01*
X0009240Y0009940D02*
X0009327Y0009854D01*
X0003260Y0009705D02*
X0007106D01*
X0008221Y0015515D02*
Y0014224D01*
X0009204Y0001884D02*
X0010710D01*
X0010696Y0010188D02*
Y0010160D01*
X0022518Y0009408D02*
X0022680D01*
X0010676Y0009606D02*
X0011046D01*
X0010399Y0007961D02*
Y0007394D01*
X0021505Y0015149D02*
X0022360D01*
X0021505Y0015248D02*
X0022360D01*
X0021505Y0015347D02*
X0022360D01*
X0023719Y0016630D02*
X0022840Y0015751D01*
X0016845Y0006215D02*
Y0005430D01*
X0009970Y0009210D02*
X0011032D01*
X0021585Y0015439D02*
Y0014555D01*
X0011290Y0017155D02*
Y0015510D01*
X0007862Y0007725D02*
X0010635D01*
X0007534Y0022376D02*
X0008975D01*
X0015249Y0017752D02*
Y0017150D01*
X0012478Y0014325D02*
Y0013982D01*
X0012370Y0004854D02*
X0013354D01*
X0011389Y0002430D02*
Y0001930D01*
X0012590Y0003270D02*
X0016885D01*
X0012370Y0004458D02*
X0012958D01*
X0012370Y0004260D02*
X0012760D01*
X0013170Y0005530D02*
Y0004671D01*
X0011320Y0003360D02*
Y0003010D01*
X0008400Y0002455D02*
Y0002015D01*
X0011450Y0003666D02*
X0012166D01*
X0011450Y0003963D02*
X0012463D01*
X0007880D02*
X0010303D01*
X0012370Y0004161D02*
X0012661D01*
X0012370Y0004062D02*
X0012562D01*
X0011686Y0003985D02*
Y0003186D01*
X0011785Y0003985D02*
Y0003285D01*
X0011884Y0003985D02*
Y0003384D01*
X0011983Y0003985D02*
Y0003483D01*
X0012082Y0003985D02*
Y0003582D01*
X0012180Y0006240D02*
X0013350D01*
X0011320Y0003270D02*
X0011770D01*
X0012280Y0008174D02*
Y0006144D01*
X0012379Y0005401D02*
Y0003879D01*
X0012502Y0005448D02*
X0014920D01*
X0012370Y0004557D02*
X0013057D01*
X0012478Y0008069D02*
Y0006106D01*
X0015962Y0011685D02*
X0016234D01*
X0013863Y0006074D02*
Y0005090D01*
X0012370Y0005400D02*
Y0003985D01*
Y0004656D02*
X0013156D01*
X0011587Y0003985D02*
Y0003087D01*
X0011320Y0003010D02*
X0011510D01*
X0007868Y0005745D02*
X0010755D01*
X0012792Y0008121D02*
X0015231D01*
X0009089Y0017624D02*
X0009508D01*
X0006538Y0001695D02*
Y0000300D01*
X0008390Y0014060D02*
X0008690D01*
X0011290Y0023320D02*
Y0021551D01*
X0012874Y0022750D02*
Y0022715D01*
X0010993Y0023320D02*
Y0021848D01*
X0013071Y0022750D02*
Y0022715D01*
X0004657Y0023320D02*
Y0020903D01*
X0004756Y0023320D02*
Y0020903D01*
X0004855Y0023320D02*
Y0020903D01*
X0003260Y0022178D02*
X0005164D01*
X0004360Y0023320D02*
Y0020887D01*
X0003260Y0023267D02*
X0005465D01*
X0005152Y0022243D02*
Y0020903D01*
X0004954Y0023320D02*
Y0020903D01*
X0005350Y0021756D02*
Y0020903D01*
X0005449Y0021632D02*
Y0020903D01*
X0007528Y0023320D02*
Y0022576D01*
X0006538Y0021258D02*
Y0020903D01*
X0011092Y0017155D02*
Y0015410D01*
X0003260Y0020792D02*
X0004206D01*
X0003260Y0020693D02*
X0004107D01*
X0008518Y0023320D02*
Y0021127D01*
X0003260Y0020594D02*
X0004008D01*
X0003260Y0020495D02*
X0003909D01*
X0003964Y0023320D02*
Y0020550D01*
X0014920Y0004510D02*
Y0003985D01*
X0005251Y0021927D02*
Y0020903D01*
X0004459Y0023320D02*
Y0020903D01*
X0008830Y0013367D02*
X0008866D01*
X0004209Y0020795D02*
X0003260Y0019846D01*
X0003845Y0014357D02*
X0006725D01*
X0008914Y0023320D02*
Y0020150D01*
X0003260Y0013763D02*
X0003351D01*
X0003260Y0013664D02*
X0003450D01*
X0003260Y0013565D02*
X0003549D01*
X0003260Y0020297D02*
X0003711D01*
X0015546Y0017068D02*
Y0016160D01*
X0007330Y0020269D02*
Y0020015D01*
X0006445Y0018595D02*
Y0018365D01*
X0006538Y0019065D02*
Y0018365D01*
X0006637Y0019065D02*
Y0018365D01*
X0006736Y0019065D02*
Y0018365D01*
X0006835Y0019065D02*
Y0018365D01*
X0007627Y0017015D02*
Y0016455D01*
X0007825Y0018405D02*
Y0018365D01*
X0008518Y0020752D02*
Y0019127D01*
X0007726Y0018446D02*
Y0018365D01*
X0008545Y0019630D02*
Y0019014D01*
X0007528Y0018624D02*
Y0018365D01*
X0007850Y0008022D02*
X0010338D01*
X0006445Y0018365D02*
X0008199D01*
X0008413Y0019307D02*
X0008545D01*
X0007033Y0019065D02*
Y0018365D01*
X0007415Y0019802D02*
X0008588D01*
X0009409Y0022145D02*
Y0020645D01*
X0009211Y0022145D02*
Y0020447D01*
X0011587Y0023320D02*
Y0021380D01*
X0007924Y0017015D02*
Y0016455D01*
X0009485Y0018020D02*
X0009587D01*
X0007415Y0020000D02*
X0008764D01*
X0003260D02*
X0003414D01*
X0008493Y0020693D02*
X0009463D01*
X0008330Y0020495D02*
X0009259D01*
G01X0009591Y0018126D02*
G03X0009585Y0018060I0000369J0000066D01*
G01X0019330Y0011560D02*
G03X0019245Y0011765I0000290J0000000D01*
G01X0007405Y0001702D02*
G03X0007879Y0002176I0000000J0000474D01*
G01X0006930D02*
G03X0007405Y0001701I0000475J0000000D01*
Y0002651D02*
G03X0006930Y0002176I0000000J0000475D01*
Y0003176D02*
G03X0007405Y0002701I0000475J0000000D01*
Y0003651D02*
G03X0006930Y0003176I0000000J0000475D01*
G01X0007880D02*
G03X0007405Y0003651I0000475J0000000D01*
G01X0006100Y0003695D02*
G03X0006575Y0004170I0000000J0000475D01*
G01X0005625D02*
G03X0006100Y0003695I0000475J0000000D01*
Y0004645D02*
G03X0005625Y0004170I0000000J0000475D01*
G01X0006575D02*
G03X0006100Y0004645I0000475J0000000D01*
Y0002695D02*
G03X0006575Y0003170I0000000J0000475D01*
G01X0005625D02*
G03X0006100Y0002695I0000475J0000000D01*
Y0003645D02*
G03X0005625Y0003170I0000000J0000475D01*
G01X0006575D02*
G03X0006100Y0003645I0000475J0000000D01*
G01X0021568Y0008545D02*
G03X0022043Y0008070I0000475J0000000D01*
G01X0022518Y0008545D02*
G03X0022043Y0009020I0000475J0000000D01*
G01X0007405Y0005379D02*
G03X0007880Y0005854I0000000J0000475D01*
G01X0006930D02*
G03X0007405Y0005379I0000475J0000000D01*
Y0006329D02*
G03X0006930Y0005854I0000000J0000475D01*
G01X0007880D02*
G03X0007405Y0006329I0000475J0000000D01*
Y0006379D02*
G03X0007880Y0006854I0000000J0000475D01*
G01X0006930D02*
G03X0007405Y0006379I0000475J0000000D01*
Y0007329D02*
G03X0006930Y0006854I0000000J0000475D01*
G01X0007880D02*
G03X0007405Y0007329I0000475J0000000D01*
Y0007379D02*
G03X0007880Y0007854I0000000J0000475D01*
G01X0006930D02*
G03X0007405Y0007379I0000475J0000000D01*
Y0008329D02*
G03X0006930Y0007854I0000000J0000475D01*
G01X0007880D02*
G03X0007405Y0008329I0000475J0000000D01*
G01X0006111Y0008370D02*
G03X0006586Y0008845I0000000J0000475D01*
G01X0005636D02*
G03X0006111Y0008370I0000475J0000000D01*
Y0009320D02*
G03X0005636Y0008845I0000000J0000475D01*
G01X0006586D02*
G03X0006111Y0009320I0000475J0000000D01*
Y0007370D02*
G03X0006586Y0007845I0000000J0000475D01*
G01X0005636D02*
G03X0006111Y0007370I0000475J0000000D01*
Y0008320D02*
G03X0005636Y0007845I0000000J0000475D01*
G01X0006586D02*
G03X0006111Y0008320I0000475J0000000D01*
Y0006370D02*
G03X0006586Y0006845I0000000J0000475D01*
G01X0005636D02*
G03X0006111Y0006370I0000475J0000000D01*
Y0007320D02*
G03X0005636Y0006845I0000000J0000475D01*
G01X0006586D02*
G03X0006111Y0007320I0000475J0000000D01*
G01X0022040Y0010605D02*
G03X0022515Y0011080I0000000J0000475D01*
G01X0021565D02*
G03X0022040Y0010605I0000475J0000000D01*
G01X0022510Y0011150D02*
G03X0022515Y0011145I0000210J0000200D01*
G01X0021565Y0013080D02*
G03X0022040Y0012605I0000475J0000000D01*
Y0013555D02*
G03X0021565Y0013080I0000000J0000475D01*
G01X0024270Y0016600D02*
G03X0023830Y0016160I0000000J0000440D01*
Y0017160D02*
G03X0024270Y0016720I0000440J0000000D01*
Y0017600D02*
G03X0023830Y0017160I0000000J0000440D01*
G01X0024460Y0016557D02*
G03X0024270Y0016600I0000190J0000397D01*
G01X0023830Y0018160D02*
G03X0024270Y0017720I0000440J0000000D01*
Y0018600D02*
G03X0023830Y0018160I0000000J0000440D01*
Y0019160D02*
G03X0024270Y0018720I0000440J0000000D01*
Y0019600D02*
G03X0023830Y0019160I0000000J0000440D01*
G01X0024710D02*
G03X0024270Y0019600I0000440J0000000D01*
G01X0022270Y0017920D02*
G03X0022179Y0017902I0000000J0000240D01*
G01X0022499Y0018499D02*
G03X0022555Y0018640I0000149J0000141D01*
G01X0023215Y0019985D02*
G03X0023155Y0020026I0000145J0000145D01*
G01X0012245Y0014250D02*
G03X0012224Y0014373I0000375J0000000D01*
G01X0023262Y0018165D02*
G03X0023240Y0018307I0000455J0000000D01*
G01X0023191Y0017920D02*
G03X0023263Y0018165I0000384J0000245D01*
G01X0017645Y0010454D02*
G03X0017360Y0010585I0000285J0000244D01*
G01X0006940Y0020065D02*
G03X0007415Y0020540I0000000J0000475D01*
G03X0006940Y0021015I0000475J0000000D01*
G01X0022043Y0009020D02*
G03X0021641Y0008797I0000000J0000475D01*
G01X0005661Y0012340D02*
G03X0005554Y0012598I0000365J0000000D01*
G01X0015740Y0006310D02*
G03X0015665Y0006360I0000170J0000170D01*
G01X0015641Y0011091D02*
G03X0015290Y0011335I0000351J0000131D01*
G01X0015310Y0011816D02*
G03X0015670Y0011545I0000360J0000104D01*
G01X0009585Y0018060D02*
G03X0009688Y0017802I0000375J0000000D01*
G01X0009825Y0005875D02*
G03X0010030Y0005790I0000205J0000205D01*
G01X0007871Y0003085D02*
G03X0007880Y0003176I0000466J0000091D01*
G01X0007780Y0002468D02*
G03X0007861Y0002455I0000081J0000252D01*
G01X0011795Y0019680D02*
G03X0011820Y0019545I0000375J0000000D01*
G01X0014562Y0018650D02*
G03X0014655Y0018738I0000147J0000250D01*
G01X0014225Y0001330D02*
G03X0014600Y0000955I0000375J0000000D01*
G01X0013850D02*
G03X0014225Y0001330I0000000J0000375D01*
G01X0018750Y0008640D02*
G03X0018835Y0008435I0000290J0000000D01*
G01X0013710Y0005090D02*
G03X0013505Y0005005I0000000J0000290D01*
G01X0022515Y0011080D02*
G03X0022510Y0011150I0000475J0000000D01*
G01X0019915Y0001620D02*
G03X0019922Y0001548I0000375J0000000D01*
G03X0019650Y0001665I0000272J0000258D01*
G01X0020256Y0001993D02*
G03X0019915Y0001620I0000034J0000373D01*
G01X0020025Y0001290D02*
G03X0020018Y0001362I0000375J0000000D01*
G01X0020665Y0001620D02*
G03X0020564Y0001876I0000375J0000000D01*
G01X0020696Y0002586D02*
G03X0020530Y0002625I0000166J0000336D01*
G01X0022910Y0001968D02*
G03X0022004Y0002381I0000906J0000787D01*
G01X0022807Y0018710D02*
G03X0023185Y0018911I0000000J0000455D01*
G01X0011608Y0008500D02*
G03X0011585Y0008370I0000352J0000130D01*
G01X0024270Y0016720D02*
G03X0024460Y0016763I0000000J0000440D01*
G01X0007405Y0002702D02*
G03X0007496Y0002710I0000000J0000474D01*
G01X0021076Y0008020D02*
G03X0021569Y0008577I0000607J0001035D01*
G01X0022043Y0008070D02*
G03X0022194Y0008094I0000000J0000475D01*
G01X0022493Y0008393D02*
G03X0022518Y0008545I0000450J0000152D01*
G01X0019790Y0006295D02*
G03X0019485Y0006138I0000000J0000375D01*
G01X0022910Y0005926D02*
G03X0022590Y0006105I0000320J0000196D01*
G01X0011365Y0003405D02*
G03X0011450Y0003610I0000205J0000205D01*
G01X0009195Y0001875D02*
G03X0009273Y0002015I0000205J0000205D01*
G01X0015195Y0017795D02*
G03X0015400Y0017710I0000205J0000205D01*
G01X0016210Y0004275D02*
G03X0016478Y0004388I0000000J0000375D01*
G01X0007535Y0022441D02*
G03X0007152Y0023320I0001200J0000000D01*
G01X0007990Y0018380D02*
G03X0008326Y0018492I0000000J0000560D01*
G01X0009680Y0020765D02*
G03X0009422Y0020658I0000000J0000365D01*
G01X0012788D02*
G03X0012530Y0020765I0000258J0000258D01*
G01X0009680D02*
G03X0009422Y0020658I0000000J0000365D01*
G01X0012049Y0020035D02*
G03X0011795Y0019680I0000121J0000355D01*
G01X0010660Y0009605D02*
G03X0010812Y0009668I0000000J0000215D01*
G01X0010850Y0010905D02*
G03X0010475Y0010530I0000000J0000375D01*
G01X0012598Y0006010D02*
G03X0012310Y0006145I0000288J0000240D01*
G01X0011585Y0008370D02*
G03X0011960Y0007995I0000375J0000000D01*
G01X0012656Y0008797D02*
G03X0012665Y0008860I0000206J0000063D01*
G01X0011320Y0008365D02*
G03X0011608Y0008500I0000000J0000375D01*
G01X0018625Y0012385D02*
G03X0018474Y0012465I0000205J0000205D01*
G01X0019100D02*
G03X0019252Y0012528I0000000J0000215D01*
G01X0021455Y0020280D02*
G03X0021830Y0019905I0000375J0000000D01*
Y0020655D02*
G03X0021455Y0020280I0000000J0000375D01*
G01X0022205D02*
G03X0021830Y0020655I0000375J0000000D01*
G01X0011475Y0019840D02*
G03X0011420Y0020035I0000375J0000000D01*
G01X0022807Y0018620D02*
G03X0022499Y0018499I0000000J0000455D01*
G01X0015402Y0016610D02*
G03X0015545Y0016860I0000147J0000250D01*
G01X0012337Y0013444D02*
G03X0012335Y0013410I0000373J0000034D01*
G01X0009240Y0011290D02*
G03X0009155Y0011495I0000290J0000000D01*
G01X0012224Y0014373D02*
G03X0012360Y0014325I0000136J0000167D01*
G01X0012430Y0018090D02*
G03X0012432Y0018048I0000560J0000000D01*
G01X0015550Y0015645D02*
G03X0015702Y0015708I0000000J0000215D01*
G01X0017520Y0022900D02*
G03X0017102Y0022597I0000000J0000440D01*
G01X0014845Y0018925D02*
G03X0014905Y0019070I0000145J0000145D01*
G01X0023535Y0018602D02*
G03X0023595Y0018747I0000145J0000145D01*
Y0019520D02*
G03X0023535Y0019665I0000205J0000000D01*
G01X0022499Y0018499D02*
G03X0022555Y0018640I0000149J0000141D01*
G01X0020570Y0003725D02*
G03X0020945Y0004100I0000000J0000375D01*
G03X0020570Y0004475I0000375J0000000D01*
G01X0020410Y0005845D02*
G03X0020785Y0006220I0000000J0000375D01*
G01X0019990Y0004745D02*
G03X0019805Y0004696I0000000J0000375D01*
G01X0020640Y0006935D02*
G03X0020900Y0007040I0000000J0000375D01*
G01X0019745Y0007525D02*
G03X0019797Y0007483I0000205J0000205D01*
G01X0020166Y0006505D02*
G03X0020035Y0006220I0000244J0000285D01*
G01X0020785D02*
G03X0020654Y0006505I0000375J0000000D01*
G01X0019755Y0007310D02*
G03X0020130Y0006935I0000375J0000000D01*
G01X0015480Y0000955D02*
G03X0015855Y0001330I0000000J0000375D01*
G01X0015105D02*
G03X0015480Y0000955I0000375J0000000D01*
Y0001705D02*
G03X0015105Y0001330I0000000J0000375D01*
G01X0015855D02*
G03X0015480Y0001705I0000375J0000000D01*
G01X0014600Y0000955D02*
G03X0014975Y0001330I0000000J0000375D01*
G03X0014600Y0001705I0000375J0000000D01*
G01X0013475Y0001330D02*
G03X0013850Y0000955I0000375J0000000D01*
Y0001705D02*
G03X0013475Y0001330I0000000J0000375D01*
G01X0012890Y0000955D02*
G03X0013265Y0001330I0000000J0000375D01*
G01X0012515D02*
G03X0012890Y0000955I0000375J0000000D01*
Y0001705D02*
G03X0012515Y0001330I0000000J0000375D01*
G01X0013265D02*
G03X0012890Y0001705I0000375J0000000D01*
G01X0011960Y0000955D02*
G03X0012335Y0001330I0000000J0000375D01*
G01X0011585D02*
G03X0011960Y0000955I0000375J0000000D01*
Y0001705D02*
G03X0011585Y0001330I0000000J0000375D01*
G01X0012335D02*
G03X0011960Y0001705I0000375J0000000D01*
G01X0017780Y0000955D02*
G03X0018155Y0001330I0000000J0000375D01*
G01X0017405D02*
G03X0017780Y0000955I0000375J0000000D01*
Y0001705D02*
G03X0017405Y0001330I0000000J0000375D01*
G01X0018155D02*
G03X0017780Y0001705I0000375J0000000D01*
G01X0018700Y0000955D02*
G03X0019075Y0001330I0000000J0000375D01*
G01X0018325D02*
G03X0018700Y0000955I0000375J0000000D01*
Y0001705D02*
G03X0018325Y0001330I0000000J0000375D01*
G01X0019075D02*
G03X0018700Y0001705I0000375J0000000D01*
G01X0020420Y0002765D02*
G03X0020795Y0003140I0000000J0000375D01*
G01X0020045D02*
G03X0020420Y0002765I0000375J0000000D01*
Y0003515D02*
G03X0020045Y0003140I0000000J0000375D01*
G01X0020795D02*
G03X0020420Y0003515I0000375J0000000D01*
G01X0019650Y0000915D02*
G03X0020025Y0001290I0000000J0000375D01*
G01X0019275D02*
G03X0019650Y0000915I0000375J0000000D01*
Y0001665D02*
G03X0019275Y0001290I0000000J0000375D01*
G01X0020290Y0001245D02*
G03X0020665Y0001620I0000000J0000375D01*
G01X0020530Y0002625D02*
G03X0020155Y0002250I0000000J0000375D01*
G01X0021870Y0002395D02*
G03X0022245Y0002770I0000000J0000375D01*
G01X0021495D02*
G03X0021870Y0002395I0000375J0000000D01*
Y0003145D02*
G03X0021495Y0002770I0000000J0000375D01*
G01X0022245D02*
G03X0021870Y0003145I0000375J0000000D01*
G01X0022195Y0003150D02*
G03X0022570Y0002775I0000375J0000000D01*
Y0003525D02*
G03X0022195Y0003150I0000000J0000375D01*
G01X0022570Y0002775D02*
G03X0022910Y0002992I0000000J0000375D01*
G01X0022215Y0004000D02*
G03X0022590Y0003625I0000375J0000000D01*
Y0004375D02*
G03X0022215Y0004000I0000000J0000375D01*
G01X0022590Y0003625D02*
G03X0022910Y0003804I0000000J0000375D01*
Y0004196D02*
G03X0022590Y0004375I0000320J0000196D01*
G01X0022215Y0004860D02*
G03X0022590Y0004485I0000375J0000000D01*
Y0005235D02*
G03X0022215Y0004860I0000000J0000375D01*
G01X0020410Y0004895D02*
G03X0020785Y0005270I0000000J0000375D01*
G01X0020035D02*
G03X0020410Y0004895I0000375J0000000D01*
Y0005645D02*
G03X0020035Y0005270I0000000J0000375D01*
G01X0020785D02*
G03X0020410Y0005645I0000375J0000000D01*
G01X0022215Y0006610D02*
G03X0022590Y0006235I0000375J0000000D01*
Y0006985D02*
G03X0022215Y0006610I0000000J0000375D01*
G01X0022590Y0006235D02*
G03X0022910Y0006414I0000000J0000375D01*
Y0005056D02*
G03X0022590Y0005235I0000320J0000196D01*
G01X0022215Y0005730D02*
G03X0022590Y0005355I0000375J0000000D01*
Y0006105D02*
G03X0022215Y0005730I0000000J0000375D01*
G01X0022590Y0005355D02*
G03X0022910Y0005534I0000000J0000375D01*
G01X0021050Y0002335D02*
G03X0021425Y0002710I0000000J0000375D01*
G01X0021050Y0003085D02*
G03X0020675Y0002710I0000000J0000375D01*
G01X0021425D02*
G03X0021050Y0003085I0000375J0000000D01*
G01X0019520Y0022020D02*
G03X0019960Y0022460I0000000J0000440D01*
G01X0019080D02*
G03X0019520Y0022020I0000440J0000000D01*
Y0022900D02*
G03X0019080Y0022460I0000000J0000440D01*
G01X0019960D02*
G03X0019520Y0022900I0000440J0000000D01*
G01X0017960Y0022460D02*
G03X0017520Y0022900I0000440J0000000D01*
G01X0010000Y0005332D02*
G03X0009750Y0005475I0000250J0000147D01*
G01X0009250D02*
G03X0008960Y0005185I0000000J0000290D01*
Y0004495D02*
G03X0009250Y0004205I0000290J0000000D01*
Y0007435D02*
G03X0008960Y0007145I0000000J0000290D01*
G01X0012243Y0014216D02*
G03X0012245Y0014250I0000373J0000034D01*
G01X0008960Y0006455D02*
G03X0009250Y0006165I0000290J0000000D01*
G01X0013585Y0016860D02*
G03X0013295Y0017150I0000290J0000000D01*
G01X0015545Y0016860D02*
G03X0015255Y0017150I0000290J0000000D01*
G01X0015545Y0016360D02*
G03X0015402Y0016610I0000290J0000000D01*
G01X0015535Y0017160D02*
G03X0015695Y0016853I0000375J0000000D01*
G01X0014275Y0015860D02*
G03X0014365Y0015650I0000290J0000000D01*
G01X0020385Y0019920D02*
G03X0020095Y0020210I0000290J0000000D01*
G01X0020242Y0019670D02*
G03X0020385Y0019920I0000147J0000250D01*
G01X0014415Y0018110D02*
G03X0014705Y0018400I0000000J0000290D01*
G01X0014930Y0019335D02*
G03X0014981Y0019338I0000000J0000375D01*
G01X0007430Y0018940D02*
G03X0007990Y0018380I0000560J0000000D01*
Y0019500D02*
G03X0007430Y0018940I0000000J0000560D01*
G01X0007990Y0020380D02*
G03X0008550Y0020940I0000000J0000560D01*
G01X0007430D02*
G03X0007990Y0020380I0000560J0000000D01*
Y0021500D02*
G03X0007430Y0020940I0000000J0000560D01*
G01X0008550D02*
G03X0007990Y0021500I0000560J0000000D01*
G01X0012990Y0017530D02*
G03X0013550Y0018090I0000000J0000560D01*
G01X0013805Y0020235D02*
G03X0013863Y0020190I0000205J0000205D01*
G01X0012948Y0017532D02*
G03X0012990Y0017530I0000042J0000558D01*
G01X0020496Y0011336D02*
G03X0020951Y0011791I0000000J0000455D01*
G01X0020197Y0004058D02*
G03X0020570Y0003725I0000373J0000042D01*
Y0004475D02*
G03X0020363Y0004412I0000000J0000375D01*
G01X0009195Y0001875D02*
G03X0009273Y0002015I0000205J0000205D01*
G01X0011005Y0009350D02*
G03X0011135Y0009066I0000375J0000000D01*
G01X0022910Y0006806D02*
G03X0022590Y0006985I0000320J0000196D01*
G01X0021710Y0006505D02*
G03X0021862Y0006568I0000000J0000215D01*
G01X0022830Y0020215D02*
G03X0022467Y0019933I0000000J0000375D01*
G01X0020275Y0011393D02*
G03X0020496Y0011336I0000221J0000398D01*
G01X0008522Y0002015D02*
G03X0008481Y0001930I0000238J0000165D01*
G01X0008522Y0002015D02*
G03X0008481Y0001930I0000238J0000165D01*
G01X0008672Y0009737D02*
G03X0008745Y0009615I0000278J0000083D01*
G01X0018175Y0011425D02*
G03X0018285Y0011690I0000265J0000265D01*
G01X0009750Y0004205D02*
G03X0010000Y0004348I0000000J0000290D01*
G01X0011365Y0003405D02*
G03X0011450Y0003610I0000205J0000205D01*
G01X0010250Y0007435D02*
G03X0010000Y0007292I0000000J0000290D01*
G01X0009734Y0009446D02*
G03X0010007Y0009605I0000034J0000374D01*
G01X0018710Y0022040D02*
G03X0018540Y0022110I0000170J0000170D01*
G01X0017000Y0016855D02*
G03X0017037Y0016857I0000000J0000375D01*
G01X0016875Y0016876D02*
G03X0017000Y0016855I0000125J0000354D01*
G01X0019790Y0006295D02*
G03X0019485Y0006138I0000000J0000375D01*
G01X0012290Y0008192D02*
G03X0012580Y0008055I0000290J0000238D01*
G01X0021589Y0011229D02*
G03X0021565Y0011080I0000451J0000149D01*
G01X0023790Y0017440D02*
G03X0023720Y0017610I0000240J0000000D01*
G01X0017820Y0003865D02*
G03X0018015Y0003920I0000000J0000375D01*
G01X0019805Y0004044D02*
G03X0019990Y0003995I0000185J0000326D01*
G01X0014981Y0019338D02*
G03X0014940Y0019190I0000249J0000148D01*
G01X0014225Y0001330D02*
G03X0013850Y0001705I0000375J0000000D01*
G01X0014705Y0018400D02*
G03X0014562Y0018650I0000290J0000000D01*
G01X0013524Y0020109D02*
G03X0012990Y0020500I0000534J0000169D01*
G01X0011135Y0020885D02*
G03X0011340Y0020800I0000205J0000205D01*
G01X0016062Y0016068D02*
G03X0016125Y0016220I0000152J0000152D01*
G01X0015450Y0016075D02*
G03X0015402Y0016110I0000195J0000215D01*
G01X0015910Y0017535D02*
G03X0015535Y0017160I0000000J0000375D01*
G01X0014418Y0016110D02*
G03X0014275Y0015860I0000147J0000250D01*
G01X0023358Y0015670D02*
G03X0023070Y0015805I0000288J0000240D01*
G01X0010160Y0015410D02*
G03X0009955Y0015325I0000000J0000290D01*
G01X0008672Y0009737D02*
G03X0008745Y0009615I0000278J0000083D01*
G01X0007595Y0002612D02*
G03X0007405Y0002652I0000190J0000436D01*
G01X0011630Y0002430D02*
G03X0011835Y0002515I0000000J0000290D01*
G01X0013710Y0005090D02*
G03X0013505Y0005005I0000000J0000290D01*
G01X0012210Y0018125D02*
G03X0012442Y0018205I0000000J0000375D01*
G01X0008280Y0015515D02*
G03X0008538Y0015622I0000000J0000365D01*
G01X0013550Y0018090D02*
G03X0013544Y0018174I0000560J0000000D01*
G01X0007780Y0002468D02*
G03X0007861Y0002455I0000081J0000252D01*
G01X0009960Y0018435D02*
G03X0009894Y0018429I0000000J0000375D01*
G01X0007870Y0009430D02*
G03X0008672Y0009737I0000000J0001200D01*
G01X0013905Y0022070D02*
G03X0013827Y0022257I0000265J0000000D01*
G01X0012760Y0022715D02*
G03X0012573Y0022637I0000000J0000265D01*
G01X0012760Y0022715D02*
G03X0012573Y0022637I0000000J0000265D01*
G01X0013447D02*
G03X0013260Y0022714I0000187J0000187D01*
G01X0013805Y0020235D02*
G03X0013863Y0020190I0000205J0000205D01*
G01X0012010Y0022075D02*
G03X0011635Y0021700I0000000J0000375D01*
G01X0011765Y0016880D02*
G03X0012140Y0016505I0000375J0000000D01*
G03X0012348Y0016568I0000000J0000375D01*
G01X0017560Y0005200D02*
G03X0017630Y0005370I0000170J0000170D01*
G01X0022910Y0003308D02*
G03X0022570Y0003525I0000340J0000158D01*
G01X0016870Y0006425D02*
G03X0016975Y0006452I0000000J0000215D01*
G01X0016870Y0006425D02*
G03X0016975Y0006452I0000000J0000215D01*
G01X0008250Y0011768D02*
G03X0007870Y0011830I0000380J0001138D01*
G01X0014940Y0018170D02*
G03X0015025Y0017965I0000290J0000000D01*
G01X0012420Y0017155D02*
G03X0012678Y0017262I0000000J0000365D01*
G01X0011310Y0014830D02*
G03X0011515Y0014915I0000000J0000290D01*
G01X0014540Y0017735D02*
G03X0014165Y0017360I0000000J0000375D01*
G01X0014915D02*
G03X0014540Y0017735I0000375J0000000D01*
G01X0004468Y0020903D02*
G03X0004210Y0020796I0000000J0000365D01*
G01X0004468Y0020903D02*
G03X0004210Y0020796I0000000J0000365D01*
G01X0014340Y0017043D02*
G03X0014275Y0016860I0000225J0000183D01*
G01X0006445Y0016900D02*
G03X0006670Y0016825I0000225J0000300D01*
G01X0005661Y0012340D02*
G03X0005554Y0012598I0000365J0000000D01*
G01X0014845Y0018925D02*
G03X0014905Y0019070I0000145J0000145D01*
G01X0014940Y0018170D02*
G03X0015025Y0017965I0000290J0000000D01*
G01X0012442Y0018205D02*
G03X0012430Y0018090I0000548J0000115D01*
G01X0008255Y0014195D02*
G03X0008215Y0014228I0000205J0000205D01*
G01X0009240Y0013715D02*
G03X0009156Y0013705I0000000J0000375D01*
G01X0009240Y0011290D02*
G03X0009155Y0011495I0000290J0000000D01*
G01X0012170Y0006890D02*
G03X0012085Y0007095I0000290J0000000D01*
G01X0012170Y0006890D02*
G03X0012085Y0007095I0000290J0000000D01*
G01X0012170Y0006877D02*
G03X0012170Y0006890I0000290J0000013D01*
G01X0010000Y0007292D02*
G03X0009750Y0007435I0000250J0000147D01*
G01X0012656Y0008797D02*
G03X0012665Y0008860I0000206J0000063D01*
G01X0013220Y0005530D02*
G03X0013390Y0005600I0000000J0000240D01*
G01X0015830Y0008040D02*
G03X0015900Y0008210I0000170J0000170D01*
G01X0016820Y0022725D02*
G03X0016445Y0022364I0000000J0000375D01*
G01X0008370Y0017015D02*
G03X0008557Y0017093I0000000J0000265D01*
G01X0009688Y0017802D02*
G03X0009662Y0017778I0000232J0000282D01*
G01X0011975Y0018208D02*
G03X0012210Y0018125I0000235J0000292D01*
G01X0011862Y0023320D02*
G03X0011665Y0022990I0000178J0000330D01*
G01X0014907Y0017283D02*
G03X0014915Y0017360I0000367J0000077D01*
G01X0009250Y0006165D02*
G03X0009474Y0006271I0000000J0000290D01*
G01X0016045Y0011920D02*
G03X0015774Y0012280I0000375J0000000D01*
G01X0013544Y0018174D02*
G03X0013725Y0018110I0000181J0000226D01*
G01X0013920Y0017035D02*
G03X0013583Y0016824I0000000J0000375D01*
G01X0014041Y0016305D02*
G03X0014295Y0016660I0000121J0000355D01*
G01X0014080Y0016160D02*
G03X0014041Y0016305I0000290J0000000D01*
G01X0013583Y0016824D02*
G03X0013585Y0016860I0000288J0000036D01*
G01X0014905Y0019336D02*
G03X0014930Y0019335I0000025J0000374D01*
G01X0015290Y0011335D02*
G03X0014915Y0010960I0000000J0000375D01*
G01X0023480Y0017850D02*
G03X0023310Y0017920I0000170J0000170D01*
G01X0024460Y0017557D02*
G03X0024270Y0017600I0000190J0000397D01*
G01X0022040Y0012605D02*
G03X0022316Y0012694I0000000J0000475D01*
G01X0008875Y0013424D02*
G03X0008865Y0013340I0000365J0000084D01*
G01X0009474Y0014844D02*
G03X0009138Y0014508I0000037J0000373D01*
G01X0010160Y0015410D02*
G03X0009955Y0015325I0000000J0000290D01*
G01X0009474Y0006271D02*
G03X0009545Y0006155I0000276J0000089D01*
G01X0014600Y0001705D02*
G03X0014225Y0001330I0000000J0000375D01*
G01X0012180Y0006800D02*
G03X0012170Y0006877I0000290J0000000D01*
G01X0008255Y0014195D02*
G03X0008215Y0014228I0000205J0000205D01*
G01X0011945Y0014740D02*
G03X0011993Y0014604I0000215J0000000D01*
G01X0011135Y0020885D02*
G03X0011340Y0020800I0000205J0000205D01*
G01X0009548Y0014098D02*
G03X0009885Y0014434I0000037J0000373D01*
G01X0009548Y0014098D02*
G03X0009885Y0014434I0000037J0000373D01*
G01X0009474Y0014844D02*
G03X0009138Y0014508I0000037J0000373D01*
G01X0017086Y0012465D02*
G03X0016935Y0012385I0000054J0000285D01*
G01X0010909Y0009765D02*
G03X0011086Y0009583I0000341J0000155D01*
G01X0010945Y0008740D02*
G03X0011320Y0008365I0000375J0000000D01*
G01X0018097Y0008793D02*
G03X0018174Y0008980I0000187J0000187D01*
G01X0017535Y0011690D02*
G03X0017645Y0011425I0000375J0000000D01*
G01X0014915Y0010960D02*
G03X0015253Y0010587I0000375J0000000D01*
G01X0015830Y0008040D02*
G03X0015900Y0008210I0000170J0000170D01*
G01X0015070Y0005765D02*
G03X0015358Y0005900I0000000J0000375D01*
G01X0014695Y0006140D02*
G03X0015070Y0005765I0000375J0000000D01*
Y0006515D02*
G03X0014695Y0006140I0000000J0000375D01*
G01X0011960Y0007995D02*
G03X0012290Y0008192I0000000J0000375D01*
G01X0014695Y0006140D02*
G03X0015070Y0005765I0000375J0000000D01*
Y0006515D02*
G03X0014695Y0006140I0000000J0000375D01*
G01X0015740Y0006310D02*
G03X0015665Y0006360I0000170J0000170D01*
G01X0017645Y0003908D02*
G03X0017820Y0003865I0000175J0000332D01*
G01X0011495Y0014250D02*
G03X0011870Y0013875I0000375J0000000D01*
Y0014625D02*
G03X0011495Y0014250I0000000J0000375D01*
G01X0012710Y0013035D02*
G03X0013085Y0013410I0000000J0000375D01*
G01X0012335D02*
G03X0012710Y0013035I0000375J0000000D01*
G01X0011870Y0013875D02*
G03X0011904Y0013877I0000000J0000375D01*
G01X0013085Y0013410D02*
G03X0012710Y0013785I0000375J0000000D01*
G01X0012170Y0006877D02*
G03X0012170Y0006890I0000290J0000013D01*
G01X0017560Y0005200D02*
G03X0017630Y0005370I0000170J0000170D01*
G01X0023720Y0016630D02*
G03X0023790Y0016800I0000170J0000170D01*
G01X0022260Y0016320D02*
G03X0022466Y0016406I0000000J0000290D01*
G01X0020768Y0020788D02*
G03X0020920Y0020725I0000152J0000152D01*
G01X0014080Y0016160D02*
G03X0014041Y0016305I0000290J0000000D01*
G01X0021807Y0019620D02*
G03X0021355Y0019210I0000000J0000455D01*
G01X0023595Y0019520D02*
G03X0023535Y0019665I0000205J0000000D01*
G01X0009580Y0002452D02*
G03X0009675Y0002515I0000110J0000268D01*
G01X0017593Y0011890D02*
G03X0017535Y0011690I0000317J0000200D01*
G01X0010250Y0004205D02*
G03X0010460Y0004295I0000000J0000290D01*
G01X0017360Y0009835D02*
G03X0017645Y0009966I0000000J0000375D01*
G01X0017820Y0004615D02*
G03X0017786Y0004613I0000000J0000375D01*
G01X0008255Y0014195D02*
G03X0008215Y0014228I0000205J0000205D01*
G01X0009580Y0002452D02*
G03X0009675Y0002515I0000110J0000268D01*
G01X0021641Y0008797D02*
G03X0021669Y0009055I0001172J0000258D01*
G01X0020951Y0011791D02*
G03X0020944Y0011873I0000455J0000000D01*
G01X0012310Y0006145D02*
G03X0012180Y0006122I0000000J0000375D01*
G01X0010460Y0007345D02*
G03X0010250Y0007435I0000210J0000200D01*
G01X0015960Y0022850D02*
G03X0015790Y0022920I0000170J0000170D01*
G01X0022004Y0002381D02*
G03X0020804Y0001181I0000000J0001200D01*
G01X0006670Y0010630D02*
G03X0007870Y0009430I0001200J0000000D01*
Y0011830D02*
G03X0006670Y0010630I0000000J0001200D01*
G01X0005135Y0022441D02*
G03X0006335Y0021241I0001200J0000000D01*
G03X0007535Y0022441I0000000J0001200D01*
G01X0010007Y0010035D02*
G03X0009700Y0010195I0000307J0000215D01*
G01X0014655Y0018738D02*
G03X0014675Y0018755I0000125J0000162D01*
G01X0013119Y0019395D02*
G03X0013502Y0019714I0000129J0000545D01*
G01X0022260Y0016320D02*
G03X0022466Y0016406I0000000J0000290D01*
G01X0020295Y0019210D02*
G03X0020385Y0019420I0000200J0000210D01*
G01X0022145Y0019469D02*
G03X0021807Y0019620I0000338J0000304D01*
G01X0020768Y0020788D02*
G03X0020920Y0020725I0000152J0000152D01*
G01X0020215Y0021430D02*
G03X0020278Y0021278I0000215J0000000D01*
G01X0019405Y0020210D02*
G03X0019330Y0020200I0000000J0000290D01*
G01X0014295Y0016660D02*
G03X0013920Y0017035I0000375J0000000D01*
G01X0019790Y0005545D02*
G03X0020165Y0005920I0000000J0000375D01*
G01X0019485Y0005702D02*
G03X0019790Y0005545I0000305J0000218D01*
G03X0020165Y0005920I0000000J0000375D01*
G01X0019485Y0005702D02*
G03X0019790Y0005545I0000305J0000218D01*
G01X0020165Y0005920D02*
G03X0020165Y0005936I0000375J0000000D01*
G01X0016985Y0010210D02*
G03X0017360Y0009835I0000375J0000000D01*
Y0010585D02*
G03X0016985Y0010210I0000000J0000375D01*
G01X0009240Y0012965D02*
G03X0009615Y0013340I0000000J0000375D01*
G01X0008865D02*
G03X0009240Y0012965I0000375J0000000D01*
G01X0009615Y0013340D02*
G03X0009240Y0013715I0000375J0000000D01*
G01X0012130Y0012285D02*
G03X0012505Y0012660I0000000J0000375D01*
G01X0011755D02*
G03X0012130Y0012285I0000375J0000000D01*
Y0013035D02*
G03X0011755Y0012660I0000000J0000375D01*
G01X0012505D02*
G03X0012130Y0013035I0000375J0000000D01*
G01X0015670Y0011545D02*
G03X0016045Y0011920I0000000J0000375D01*
G01X0012580Y0008055D02*
G03X0012955Y0008430I0000000J0000375D01*
G01X0012210Y0018125D02*
G03X0012442Y0018205I0000000J0000375D01*
G01X0011975Y0018208D02*
G03X0012210Y0018125I0000235J0000292D01*
G01X0019330Y0021320D02*
G03X0019260Y0021490I0000240J0000000D01*
G01X0021665Y0015670D02*
G03X0021303Y0016045I0000375J0000000D01*
G01X0018710Y0022040D02*
G03X0018540Y0022110I0000170J0000170D01*
G01X0017102Y0022597D02*
G03X0016820Y0022725I0000282J0000247D01*
G01X0018625Y0012385D02*
G03X0018474Y0012465I0000205J0000205D01*
G01X0018750Y0008640D02*
G03X0018835Y0008435I0000290J0000000D01*
G01X0019330Y0011560D02*
G03X0019245Y0011765I0000290J0000000D01*
G01X0019797Y0007483D02*
G03X0019755Y0007310I0000333J0000173D01*
G01X0021420Y0007040D02*
G03X0021625Y0006939I0000260J0000270D01*
G01X0022430Y0012351D02*
G03X0022040Y0012555I0000390J0000271D01*
G01X0021160Y0006935D02*
G03X0021420Y0007040I0000000J0000375D01*
G01X0022360Y0013431D02*
G03X0022040Y0013555I0000320J0000351D01*
G01X0022510Y0011150D02*
G03X0022515Y0011145I0000210J0000200D01*
G01X0024270Y0018720D02*
G03X0024361Y0018730I0000000J0000440D01*
G01X0023720Y0016630D02*
G03X0023790Y0016800I0000170J0000170D01*
G01X0012955Y0008430D02*
G03X0012656Y0008797I0000375J0000000D01*
G01X0022262Y0018165D02*
G03X0022254Y0018254I0000455J0000000D01*
G01X0023480Y0017850D02*
G03X0023310Y0017920I0000170J0000170D01*
G01X0022430Y0016020D02*
G03X0022360Y0015850I0000170J0000170D01*
G01X0013905Y0022070D02*
G03X0013827Y0022257I0000265J0000000D01*
G01X0011665Y0022990D02*
G03X0012040Y0022615I0000375J0000000D01*
G01X0015960Y0022850D02*
G03X0015790Y0022920I0000170J0000170D01*
G01X0013730Y0022510D02*
G03X0013900Y0022440I0000170J0000170D01*
G01X0013730Y0022510D02*
G03X0013900Y0022440I0000170J0000170D01*
G01X0014709Y0022920D02*
G03X0014744Y0023055I0000339J0000160D01*
G01X0020215Y0021430D02*
G03X0020278Y0021278I0000215J0000000D01*
G01X0023790Y0017440D02*
G03X0023720Y0017610I0000240J0000000D01*
G01X0023830Y0016160D02*
G03X0024232Y0015722I0000440J0000000D01*
G01X0022179Y0017902D02*
G03X0022263Y0018165I0000372J0000263D01*
G01X0022197Y0020203D02*
G03X0022205Y0020280I0000367J0000077D01*
G01X0022472Y0018472D02*
G03X0022353Y0018165I0000335J0000307D01*
G01X0023215Y0019985D02*
G03X0023155Y0020026I0000145J0000145D01*
G01X0012990Y0020500D02*
G03X0012948Y0020498I0000000J0000560D01*
G01X0021830Y0019905D02*
G03X0021907Y0019913I0000000J0000375D01*
G01X0024270Y0017720D02*
G03X0024460Y0017763I0000000J0000440D01*
Y0018557D02*
G03X0024270Y0018600I0000190J0000397D01*
G01X0022270Y0017920D02*
G03X0022179Y0017902I0000000J0000240D01*
G01X0020804Y0001181D02*
G03X0021189Y0000300I0001200J0000000D01*
G01X0020884Y0002374D02*
G03X0021050Y0002335I0000166J0000336D01*
G01X0020564Y0001876D02*
G03X0020906Y0002250I0000034J0000374D01*
G01X0021568Y0009536D02*
G03X0020564Y0010251I0001099J0000481D01*
G01X0019846Y0010081D02*
G03X0019330Y0009434I0000623J0001026D01*
G01X0019815Y0010230D02*
G03X0019846Y0010081I0000375J0000000D01*
G01X0018285Y0011690D02*
G03X0018227Y0011890I0000375J0000000D01*
G01X0020564Y0010251D02*
G03X0020275Y0010595I0000374J0000021D01*
G01X0021569Y0008577D02*
G03X0021568Y0008545I0000474J0000032D01*
G01X0006670Y0016825D02*
G03X0006996Y0017015I0000000J0000375D01*
G01X0011086Y0009583D02*
G03X0011005Y0009350I0000294J0000233D01*
G01X0012040Y0022615D02*
G03X0012328Y0022750I0000000J0000375D01*
G01X0009980Y0022145D02*
G03X0010065Y0021955I0000290J0000015D01*
G01X0008255Y0014195D02*
G03X0008215Y0014228I0000205J0000205D01*
G01X0013502Y0019714D02*
G03X0013578Y0019650I0000223J0000186D01*
G01X0022040Y0012555D02*
G03X0021894Y0012532I0000000J0000475D01*
G01X0022555Y0018786D02*
G03X0022807Y0018710I0000252J0000379D01*
G01X0014165Y0017360D02*
G03X0014340Y0017043I0000375J0000000D01*
G01X0010235Y0018315D02*
G03X0009960Y0018435I0000275J0000255D01*
G01X0009688Y0017802D02*
G03X0009662Y0017778I0000232J0000282D01*
G01X0011332Y0019545D02*
G03X0011475Y0019840I0000232J0000295D01*
G01X0015275Y0022220D02*
G03X0015358Y0021985I0000375J0000000D01*
G01X0013725Y0020190D02*
G03X0013524Y0020109I0000000J0000290D01*
G01X0012788Y0020658D02*
G03X0012530Y0020765I0000258J0000258D01*
G01X0012538Y0019609D02*
G03X0012861Y0019395I0000452J0000331D01*
G01X0012414D02*
G03X0012538Y0019609I0000244J0000285D01*
G01X0023070Y0015805D02*
G03X0022840Y0015726I0000000J0000375D01*
G01X0019845Y0010377D02*
G03X0019815Y0010230I0000345J0000147D01*
G01X0020165Y0005936D02*
G03X0020410Y0005845I0000245J0000284D01*
G01X0018015Y0004560D02*
G03X0017820Y0004615I0000195J0000320D01*
G01X0024700Y0019069D02*
G03X0024710Y0019160I0000430J0000091D01*
G01X0018097Y0008793D02*
G03X0018174Y0008980I0000187J0000187D01*
G01X0016940Y0006925D02*
G03X0016845Y0006903I0000000J0000215D01*
G01X0016940Y0006925D02*
G03X0016845Y0006903I0000000J0000215D01*
G01X0016045Y0017510D02*
G03X0015910Y0017535I0000135J0000350D01*
G01X0019330Y0021320D02*
G03X0019260Y0021490I0000240J0000000D01*
G01X0017787Y0022110D02*
G03X0017960Y0022460I0000267J0000350D01*
G01X0013578Y0019650D02*
G03X0013466Y0019531I0000147J0000250D01*
G01X0020385Y0007035D02*
G03X0020640Y0006935I0000255J0000275D01*
G01X0011993Y0014604D02*
G03X0011870Y0014625I0000123J0000354D01*
G01X0015070Y0005765D02*
G03X0015358Y0005900I0000000J0000375D01*
G01X0015880Y0004472D02*
G03X0016210Y0004275I0000330J0000178D01*
G01X0007880Y0002176D02*
G03X0007780Y0002468I0000475J0000000D01*
G01X0021669Y0009055D02*
G03X0021669Y0009070I0001200J0000000D01*
G01X0009750Y0007435D02*
G03X0009500Y0007292I0000000J0000290D01*
G01X0021505Y0015363D02*
G03X0021665Y0015670I0000215J0000307D01*
G01X0021303Y0016045D02*
G03X0021305Y0016080I0000373J0000035D01*
G03X0021218Y0016320I0000375J0000000D01*
G01X0008652Y0019888D02*
G03X0008545Y0019630I0000258J0000258D01*
G01X0011945Y0014740D02*
G03X0011993Y0014604I0000215J0000000D01*
G01X0010915Y0010899D02*
G03X0010850Y0010905I0000065J0000369D01*
G01X0011885Y0017155D02*
G03X0011765Y0016880I0000255J0000275D01*
G01X0012710Y0013785D02*
G03X0012676Y0013783I0000000J0000375D01*
G01X0011135Y0009066D02*
G03X0010945Y0008740I0000185J0000326D01*
G01X0010250Y0005475D02*
G03X0010000Y0005332I0000000J0000290D01*
G01X0012224Y0014373D02*
G03X0012360Y0014325I0000136J0000167D01*
G01X0023155Y0020026D02*
G03X0022830Y0020214I0000325J0000186D01*
G01X0020363Y0004412D02*
G03X0019990Y0004745I0000373J0000042D01*
G01X0020035Y0006220D02*
G03X0020035Y0006204I0000375J0000000D01*
G01X0020130Y0006935D02*
G03X0020385Y0007035I0000000J0000375D01*
G01X0020035Y0006204D02*
G03X0019790Y0006295I0000245J0000284D01*
G01X0020035Y0006204D02*
G03X0019790Y0006295I0000245J0000284D01*
G01X0020165Y0005920D02*
G03X0020165Y0005936I0000375J0000000D01*
G01X0017086Y0012465D02*
G03X0016935Y0012385I0000054J0000285D01*
G01X0020900Y0007040D02*
G03X0021160Y0006935I0000260J0000270D01*
G01X0016062Y0016068D02*
G03X0016125Y0016220I0000152J0000152D01*
G01X0012370Y0005400D02*
G03X0012598Y0005530I0000060J0000370D01*
G01X0019990Y0003995D02*
G03X0020197Y0004058I0000000J0000375D01*
G01X0020018Y0001362D02*
G03X0020290Y0001245I0000272J0000258D01*
G01X0023535Y0018602D02*
G03X0023595Y0018747I0000145J0000145D01*
G01X0020675Y0002710D02*
G03X0020696Y0002586I0000375J0000000D01*
G01X0022590Y0004485D02*
G03X0022910Y0004664I0000000J0000375D01*
G01X0020155Y0002250D02*
G03X0020256Y0001993I0000375J0000000D01*
G01X0022950Y0018597D02*
G03X0022807Y0018620I0000143J0000432D01*
G01X0019745Y0007525D02*
G03X0019797Y0007483I0000205J0000205D01*
G01X0020905Y0002250D02*
G03X0020884Y0002374I0000375J0000000D01*
G01X0015346Y0022440D02*
G03X0015275Y0022220I0000304J0000220D01*
G01X0010500Y0005332D02*
G03X0010250Y0005475I0000250J0000147D01*
G01X0010750D02*
G03X0010500Y0005332I0000000J0000290D01*
G01X0010000Y0004348D02*
G03X0010250Y0004205I0000250J0000147D01*
G01X0009500Y0005332D02*
G03X0009250Y0005475I0000250J0000147D01*
G01X0009825Y0005875D02*
G03X0010030Y0005790I0000205J0000205D01*
G01X0009500Y0004348D02*
G03X0009750Y0004205I0000250J0000147D01*
G01X0010870Y0005449D02*
G03X0010750Y0005475I0000120J0000264D01*
G01X0009250Y0004205D02*
G03X0009500Y0004348I0000000J0000290D01*
G01X0009750Y0005475D02*
G03X0009500Y0005332I0000000J0000290D01*
Y0007292D02*
G03X0009250Y0007435I0000250J0000147D01*
G01X0014418Y0016610D02*
G03X0014275Y0016360I0000147J0000250D01*
G01X0015402Y0016110D02*
G03X0015545Y0016360I0000147J0000250D01*
G01X0014275D02*
G03X0014418Y0016110I0000290J0000000D01*
G01X0014275Y0016860D02*
G03X0014418Y0016610I0000290J0000000D01*
G01X0015195Y0017795D02*
G03X0015400Y0017710I0000205J0000205D01*
G01X0022352Y0018165D02*
G03X0022424Y0017920I0000455J0000000D01*
G01X0020385Y0019420D02*
G03X0020242Y0019670I0000290J0000000D01*
G01X0014655Y0018738D02*
G03X0014675Y0018755I0000125J0000162D01*
G01X0013447Y0022637D02*
G03X0013260Y0022714I0000187J0000187D01*
G01X0009474Y0006271D02*
G03X0009545Y0006155I0000276J0000089D01*
G01X0010475Y0010530D02*
G03X0010716Y0010180I0000375J0000000D01*
G01X0009700Y0010195D02*
G03X0009327Y0009854I0000000J0000375D01*
G01X0011635Y0021700D02*
G03X0011814Y0021380I0000375J0000000D01*
G01X0006940Y0021015D02*
G03X0006634Y0020903I0000000J0000475D01*
G01X0006638Y0020173D02*
G03X0006940Y0020065I0000302J0000367D01*
G01X0005518Y0023320D02*
G03X0005135Y0022441I0000817J0000879D01*
G01X0008545Y0019014D02*
G03X0007990Y0019500I0000555J0000074D01*
G01X0009980Y0022145D02*
G03X0010065Y0021955I0000290J0000015D01*
G54D10*
X0019390Y0003920D03*
Y0004760D03*
X0018430Y0003920D03*
Y0004760D03*
X0017230Y0003920D03*
Y0004760D03*
X0017390Y0005870D03*
Y0006710D03*
X0016510Y0014880D03*
X0017350D03*
X0016460Y0016800D03*
Y0017640D03*
X0016800Y0021116D03*
X0017640D03*
X0009390Y0022560D03*
X0010230D03*
X0016430Y0006640D03*
Y0005800D03*
X0011560Y0019130D03*
Y0018290D03*
X0010650Y0019120D03*
Y0018280D03*
G54D16*
X0007405Y0003176D03*
Y0002176D03*
X0006100Y0003170D03*
Y0004170D03*
X0022043Y0008545D03*
X0007405Y0007854D03*
Y0006854D03*
Y0005854D03*
X0006111Y0006845D03*
Y0007845D03*
Y0008845D03*
X0022040Y0013080D03*
Y0012080D03*
Y0011080D03*
X0006940Y0020540D03*
G54D17*
X0007405Y0004176D03*
X0006100Y0002170D03*
X0022043Y0009545D03*
X0007405Y0008854D03*
X0006111Y0005845D03*
X0022040Y0014080D03*
X0006940Y0019540D03*
G54D18*
X0023496Y0011791D03*
X0020496D03*
Y0013791D03*
X0021807Y0017165D03*
X0022807Y0018165D03*
X0021807D03*
X0022807Y0019165D03*
X0021807D03*
G54D19*
X0023496Y0013791D03*
X0022807Y0017165D03*
G54D20*
X0017520Y0022460D03*
X0019520D03*
X0024270Y0019160D03*
Y0018160D03*
Y0017160D03*
Y0016160D03*
G54D21*
Y0020160D03*
G54D42*
X0015630Y0021520D03*
X0014330D03*
G54D43*
X0015660Y0008960D03*
X0016410D03*
X0015660Y0010130D03*
X0016410D03*
G54D44*
X0008760Y0001290D03*
X0011130D03*
G54D45*
X0007470Y0015890D03*
Y0013990D03*
G54D46*
X0010730Y0002720D03*
X0008990D03*
G54D47*
X0017230Y0003120D03*
X0018520D03*
G54D48*
X0005296Y0011246D03*
Y0017544D03*
G54D49*
X0015400Y0004800D03*
X0011890D03*
G54D50*
X0019150Y0005920D03*
X0018410D03*
G54D51*
X0018780Y0006710D03*
G54D52*
X0014910Y0015860D03*
Y0016360D03*
Y0016860D03*
X0012950D03*
Y0016360D03*
Y0015860D03*
Y0015360D03*
X0017790Y0017180D03*
Y0016680D03*
Y0016180D03*
X0019750D03*
Y0016680D03*
Y0017180D03*
Y0017680D03*
X0017790Y0019420D03*
Y0018920D03*
Y0018420D03*
X0019750D03*
Y0018920D03*
Y0019420D03*
Y0019920D03*
X0016030Y0018900D03*
Y0019400D03*
Y0019900D03*
X0014070D03*
Y0019400D03*
Y0018900D03*
Y0018400D03*
G54D53*
X0014910Y0015360D03*
X0017790Y0017680D03*
Y0019920D03*
X0016030Y0018400D03*
G54D54*
X0010250Y0006800D03*
X0009750D03*
X0009250D03*
Y0004840D03*
X0009750D03*
X0010250D03*
X0010750D03*
G54D55*
Y0006800D03*
G54D78*
X0014930Y0019710D03*
X0014370Y0023080D03*
X0019990Y0004370D03*
X0009960Y0018060D03*
X0013920Y0016660D03*
X0019790Y0005920D03*
X0017360Y0010210D03*
X0009240Y0013340D03*
X0012130Y0012660D03*
X0017000Y0017230D03*
X0015650Y0022220D03*
X0015670Y0011920D03*
X0012580Y0008430D03*
X0012210Y0018500D03*
X0012170Y0019680D03*
X0018940Y0017230D03*
X0016820Y0022350D03*
X0012040Y0022990D03*
X0011100Y0019840D03*
X0012310Y0005770D03*
X0006670Y0017200D03*
X0015290Y0010960D03*
X0023070Y0015430D03*
X0009511Y0014471D03*
X0018800Y0014577D03*
X0011320Y0008740D03*
X0017910Y0011690D03*
X0015070Y0006140D03*
X0011870Y0014250D03*
X0012710Y0013410D03*
X0017820Y0004240D03*
X0016210Y0004650D03*
X0023050Y0014800D03*
X0021290Y0015670D03*
X0011380Y0009350D03*
X0018440Y0013630D03*
X0020930Y0016080D03*
X0020190Y0010230D03*
X0019500Y0015440D03*
X0019220Y0014150D03*
X0011980Y0008900D03*
X0015910Y0017160D03*
X0017710Y0014340D03*
X0009700Y0009820D03*
X0011250Y0009920D03*
X0017900Y0013780D03*
X0012010Y0021700D03*
X0012140Y0016880D03*
X0014540Y0017360D03*
X0010850Y0010530D03*
X0015920Y0014440D03*
X0011960Y0008370D03*
X0019720Y0014360D03*
X0021830Y0020280D03*
X0022830Y0019840D03*
X0020570Y0004100D03*
X0020410Y0006220D03*
X0020130Y0007310D03*
X0020640D03*
X0021160D03*
X0021680D03*
X0015480Y0001330D03*
X0014600D03*
X0013850D03*
X0012890D03*
X0011960D03*
X0017780D03*
X0018700D03*
X0020420Y0003140D03*
X0019650Y0001290D03*
X0020290Y0001620D03*
X0020530Y0002250D03*
X0021870Y0002770D03*
X0022570Y0003150D03*
X0022590Y0004000D03*
Y0004860D03*
X0020410Y0005270D03*
X0022590Y0006610D03*
Y0005730D03*
X0021050Y0002710D03*
G54D84*
X0022004Y0001181D03*
X0020469Y0009055D03*
X0007870Y0010630D03*
X0022004Y0022441D03*
X0006335D03*
G54D85*
X0012990Y0021790D03*
Y0019940D03*
Y0018090D03*
X0007990Y0020940D03*
Y0018940D03*
M02*
