%
T1C0.024F200S100
X002320Y015430
X002340Y014800
X002560Y019840
X002800Y004000
X002800Y004860
X002800Y005730
X002800Y006610
X002820Y003150
X003520Y002770
X003560Y020280
X003710Y007310
X004100Y015670
X004230Y007310
X004340Y002710
X004460Y016080
X004750Y007310
X004820Y004100
X004860Y002250
X004970Y003140
X004980Y005270
X004980Y006220
X005100Y001620
X005200Y010230
X005260Y007310
X005400Y004370
X005600Y005920
X005670Y014360
X005740Y001290
X005890Y015440
X006170Y014150
X006450Y017230
X006590Y014577
X006690Y001330
X006950Y013630
X007480Y011690
X007490Y013780
X007570Y004240
X007610Y001330
X007680Y014340
X008030Y010210
X008390Y017230
X008570Y022350
X009180Y004650
X009470Y014440
X009480Y017160
X009720Y011920
X009740Y022220
X009910Y001330
X010100Y010960
X010320Y006140
X010460Y019710
X010790Y001330
X010850Y017360
X011020Y023080
X011470Y016660
X011540Y001330
X012500Y001330
X012680Y013410
X012810Y008430
X013080Y005770
X013180Y018500
X013220Y019680
X013250Y016880
X013260Y012660
X013350Y022990
X013380Y021700
X013410Y008900
X013430Y001330
X013430Y008370
X013520Y014250
X014010Y009350
X014070Y008740
X014140Y009920
X014290Y019840
X014540Y010530
X015430Y018060
X015690Y009820
X015879Y014471
X016150Y013340
X018720Y017200
T2C0.034F200S100
X001120Y016160
X001120Y017160
X001120Y018160
X001120Y019160
X001120Y020160
X001894Y011791
X001894Y013791
X004894Y011791
X004894Y013791
X005870Y022460
X007870Y022460
T3C0.037F200S100
X002583Y017165
X002583Y018165
X002583Y019165
X003583Y017165
X003583Y018165
X003583Y019165
T5C0.059F200S100
X012400Y018090
X012400Y019940
X012400Y021790
X017400Y018940
X017400Y020940
T6C0.130F200S100
X003386Y001181
X004921Y009055
X003386Y022441
X017520Y010630
X019055Y022441
T4C0.043F200S100
X003347Y008545
X003347Y009545
X003350Y011080
X003350Y012080
X003350Y013080
X003350Y014080
X017985Y005854
X017985Y006854
X017985Y007854
X017985Y008854
X017985Y002176
X017985Y003176
X017985Y004176
X018450Y019540
X018450Y020540
X019279Y005845
X019279Y006845
X019279Y007845
X019279Y008845
X019290Y002170
X019290Y003170
X019290Y004170
M30
